<svg xmlns="http://www.w3.org/2000/svg" viewBox="0 0 38.43 38.69"><defs><style>.cls-1{fill:#f37021;fill-rule:evenodd;}</style></defs><title>qraar</title><g id="Layer_2" data-name="Layer 2"><g id="Layer_1-2" data-name="Layer 1"><path class="cls-1" d="M28.76,23.36,27.71,23a9.36,9.36,0,0,0,.7-3.61l1.1,0a11.28,11.28,0,0,1-.75,4ZM5.36,0A5.36,5.36,0,0,0,1.58,1.57h0A5.34,5.34,0,0,0,0,5.36v28a5.34,5.34,0,0,0,1.57,3.79h0a5.35,5.35,0,0,0,3.78,1.58H33.07a5.35,5.35,0,0,0,3.79-1.58h0a5.34,5.34,0,0,0,1.57-3.79v-28a5.35,5.35,0,0,0-1.5-3.71l-.07-.08A5.34,5.34,0,0,0,33.07,0ZM33.07,2.4H5.36a3,3,0,0,0-2.09.87h0A3,3,0,0,0,2.4,5.36v28a2.91,2.91,0,0,0,.87,2.09h0a3,3,0,0,0,2.09.87H33.07a2.92,2.92,0,0,0,2.09-.88h0A3,3,0,0,0,36,33.32v-28a3,3,0,0,0-.81-2l-.06,0a2.91,2.91,0,0,0-2.09-.87ZM24.89,13.71a6.76,6.76,0,0,1,1.21,1.6,5.59,5.59,0,0,1-.92.51l-1-1.4.73-.71Zm-.22,15.78,1.4,1.32,4.58,0-7.54-7.4a5.72,5.72,0,1,1-.37-8.61,5.92,5.92,0,0,1,1.93,2.91l4.49-1.23.25,1.35-4.53.64a8.66,8.66,0,0,1-.22,2.33l1.17.42a8.3,8.3,0,0,0,.31-1.88l1.08,0a9.33,9.33,0,0,1-.64,3.2c.47.21.61.25,1.09.49l-1,1.65a3.83,3.83,0,0,0,.9.62,8.87,8.87,0,0,0,1.15-1.81l1,.36a10.91,10.91,0,0,0,1-4.55h-1.1l-.17-1.41c.33-.05.73-.11,1.1-.14a8,8,0,0,0-.81-2.91l-2,.8a14.08,14.08,0,0,0-1.92-2.88,4.86,4.86,0,0,0,.65-.63,14.71,14.71,0,0,1,1.78,2,3.7,3.7,0,0,1,.95-.43,9.4,9.4,0,0,0-3-3.53A11.52,11.52,0,0,0,8.33,15.49,11.59,11.59,0,0,0,11.59,28c2.9,2.17,5.8,3.4,9.85,2.62A25.49,25.49,0,0,0,24.67,29.49Z"/></g></g></svg>
