<svg xmlns="http://www.w3.org/2000/svg" viewBox="0 0 38.43 38.69"><defs><style>.cls-1{fill:#f37021;fill-rule:evenodd;}</style></defs><title>zeeleer</title><g id="Layer_2" data-name="Layer 2"><g id="Layer_1-2" data-name="Layer 1"><path class="cls-1" d="M5.36,0H33.07a5.34,5.34,0,0,1,3.79,1.57l.07.08a5.35,5.35,0,0,1,1.5,3.71v28a5.34,5.34,0,0,1-1.57,3.79h0a5.35,5.35,0,0,1-3.79,1.58H5.36a5.35,5.35,0,0,1-3.78-1.58h0A5.34,5.34,0,0,1,0,33.32v-28A5.34,5.34,0,0,1,1.57,1.58h0A5.36,5.36,0,0,1,5.36,0ZM16.07,24.84c-1.38.16-4.43,2.27-4.43,2.27l2,5.1,10.09-.82,5.34-3.52a1.13,1.13,0,0,0,.43-1.55c-.43-.85-1.53-.42-1.53-.42L23.3,28.46H18.12s-.53-.05-.53-.54a.54.54,0,0,1,.44-.55h4.18a1.29,1.29,0,0,0-.09-2.53Zm-5.64,2L4.21,29c0,1.23,0,2.45,0,3.67a1.8,1.8,0,0,0,1.91,1.76h7.29l-3-7.62ZM19.22,5.91a8.43,8.43,0,1,0,8.43,8.43,8.42,8.42,0,0,0-8.43-8.43Zm-1.5,11,.91-.52v1.26a1.33,1.33,0,0,0,.08.6.56.56,0,0,0,.51.27.56.56,0,0,0,.5-.26,1.26,1.26,0,0,0,.08-.61V15.73L21,15c.64-.37.26-1.28-.29-1l-.91.52V14l1.2-.69c.57-.33.29-1.29-.29-1l-.91.53V11.66h2.06a1.18,1.18,0,0,0,.53-.07.49.49,0,0,0,.22-.43.46.46,0,0,0-.22-.42,1.18,1.18,0,0,0-.53-.07H16.57a1.2,1.2,0,0,0-.53.07.46.46,0,0,0-.22.42.48.48,0,0,0,.22.43,1.2,1.2,0,0,0,.53.07h2.06v1.86l-1.19.69c-.62.36-.26,1.27.28,1l.91-.52v.63L17.44,16c-.64.37-.23,1.26.28,1ZM33.07,2.4H5.36a3,3,0,0,0-2.09.87h0A3,3,0,0,0,2.4,5.36v28a2.91,2.91,0,0,0,.87,2.09h0a3,3,0,0,0,2.09.87H33.07a2.92,2.92,0,0,0,2.09-.88h0A3,3,0,0,0,36,33.32v-28a3,3,0,0,0-.81-2l-.06,0A2.91,2.91,0,0,0,33.07,2.4Z"/></g></g></svg>
