<svg xmlns="http://www.w3.org/2000/svg" viewBox="0 0 69.31 63.76"><defs><style>.cls-1{isolation:isolate;}.cls-2,.cls-3,.cls-8{fill:#d6e2e2;}.cls-10,.cls-11,.cls-12,.cls-13,.cls-16,.cls-17,.cls-2,.cls-3,.cls-4,.cls-5,.cls-6,.cls-7,.cls-8,.cls-9{fill-rule:evenodd;}.cls-2,.cls-8{mix-blend-mode:multiply;}.cls-11,.cls-12,.cls-4,.cls-6{fill:#015e60;}.cls-15,.cls-5{fill:#fff;}.cls-10,.cls-6,.cls-8{opacity:0.2;}.cls-7{fill:#6b728d;}.cls-9{fill:#bad2ed;}.cls-10{fill:#316cb5;}.cls-11{opacity:0.25;}.cls-12{opacity:0.3;}.cls-13{fill:#e4ebf7;}.cls-14{fill:#a1bee4;}.cls-16,.cls-17{fill:none;}.cls-16{stroke:#fff;stroke-miterlimit:2.61;stroke-width:0.96px;}</style></defs><title>tolbor</title><g class="cls-1"><g id="Layer_2" data-name="Layer 2"><g id="Layer_1-2" data-name="Layer 1"><path class="cls-2" d="M22.4,59H19.77a.5.5,0,0,1-.5-.43L19,56.79h4.1l-.23,1.82A.51.51,0,0,1,22.4,59Z"/><path class="cls-3" d="M69.26,50.16c-.4,4-2.68,8.06-3.26,8.53s-1.65.21-2.39.21H5.34l0-.06c-1.44-2.53-3.09-5-3.91-7.82-2.28-7.89,5-13.22,9.71-18.27,2.69-2.89,2.9-7,5.23-10.14,3.19-4.23,8.59-6.43,13.75-6.77a16,16,0,0,1,14.57,6.54c3,3.95,4.64,10.06,9.3,12.44,1.67.85,3.6,1,5.41,1.44C65.26,37.84,69.87,44,69.26,50.16Z"/><path class="cls-2" d="M22.2,58.24a.87.87,0,0,1-.74.28A2.73,2.73,0,0,1,20.05,58c-1.55,1.12-8.23,1.43-11.66.41a3.67,3.67,0,0,0-1.22-.1C7.1,58.32,7.05,58,7,58c-1.46,1.14-3.61,0-1.35-2.14-.05-.2-.08-.41-.11-.61.22.26.34.61.76,1.12.64.79,6.36,2.93,10.87.2A9.11,9.11,0,0,1,21.78,55v.32a7.2,7.2,0,0,0-.1.85C22.29,56.78,22.72,57.6,22.2,58.24Z"/><path class="cls-4" d="M6.86,57.94c.2-.1.32,0,.45.05l.38.17.15.06.2,0,.4.1.8.17.82.12a26.24,26.24,0,0,0,3.31.19,26.3,26.3,0,0,0,3.32-.2l.41,0,.4-.07c.28,0,.54-.1.81-.15l.39-.1.39-.1.37-.14a.48.48,0,0,1,.39-.06h0a.2.2,0,0,1,.15.24v0a.61.61,0,0,1-.33.34l-.42.17a3.38,3.38,0,0,1-.42.13,3.25,3.25,0,0,1-.42.11,8.28,8.28,0,0,1-.84.16c-.28.05-.57.09-.85.12a32.07,32.07,0,0,1-3.39.17A29.33,29.33,0,0,1,10,59.25l-.85-.11L8.3,59l-.42-.11-.21,0-.23-.1-.38-.19c-.12-.07-.26-.09-.32-.29v0A.23.23,0,0,1,6.86,57.94Z"/><path class="cls-4" d="M5.58,55.61a4.35,4.35,0,0,1-.53.59c-.17.17-.36.34-.52.51a2,2,0,0,0-.37.57.69.69,0,0,0,0,.54.61.61,0,0,0,.38.35,1.21,1.21,0,0,0,.63.07,2.08,2.08,0,0,0,.64-.16L6.1,58c.13-.07.21-.08.33-.14h0a.15.15,0,0,1,.21.07.12.12,0,0,1,0,.1,1,1,0,0,1-.25.39,1.83,1.83,0,0,1-.36.26,2.09,2.09,0,0,1-.85.25,2.23,2.23,0,0,1-.91-.15,1.54,1.54,0,0,1-.42-.26,1.28,1.28,0,0,1-.3-.43,1.39,1.39,0,0,1,0-1,3.11,3.11,0,0,1,.47-.74,4,4,0,0,1,.61-.56,3.69,3.69,0,0,1,.7-.38h0a.16.16,0,0,1,.21.09A.13.13,0,0,1,5.58,55.61Z"/><path class="cls-4" d="M12,44.12c-.14.18-.3.16-.45.19l-.46.09-.44.13-.44.15a6.84,6.84,0,0,0-1.62.92,8.76,8.76,0,0,0-2.34,2.92,11.24,11.24,0,0,0-1.14,3.62A10.84,10.84,0,0,0,5,54c0,.31,0,.63,0,.94l.06.47a.74.74,0,0,1,0,.5H5a.2.2,0,0,1-.27.09l0,0a.78.78,0,0,1-.23-.47c0-.16,0-.33-.08-.49,0-.34-.07-.67-.08-1a12.15,12.15,0,0,1,.14-2,12.79,12.79,0,0,1,1.22-3.8,9.46,9.46,0,0,1,2.51-3.12,6.86,6.86,0,0,1,1.76-1l.48-.17.5-.13.5-.08c.17,0,.34-.07.52.08a.21.21,0,0,1,0,.3Z"/><path class="cls-4" d="M10.35,43.43a9.11,9.11,0,0,1-1.42-1.56,19,19,0,0,1-1.24-1.76c-.09-.16-.18-.33-.26-.5l0-.14a.58.58,0,0,1,0-.17.93.93,0,0,1,0-.37,1.22,1.22,0,0,1,.32-.63,2.52,2.52,0,0,1,.25-.21,2.2,2.2,0,0,1,.26-.15,3.31,3.31,0,0,1,2.27-.19l.28.07.27.1c.18.06.33.14.5.21l1,.43a7.39,7.39,0,0,0,1.93.63,6.16,6.16,0,0,0,2,0c.34,0,.67-.13,1-.21s.7-.14,1.07-.19a.3.3,0,0,1,.34.26.3.3,0,0,1-.08.24h0a11.49,11.49,0,0,0-.82,1c-.26.35-.5.71-.73,1.08s-.42.75-.61,1.14a10.23,10.23,0,0,0-.46,1.2h0a.3.3,0,0,1-.38.19.28.28,0,0,1-.19-.37A8.24,8.24,0,0,1,16,42.27a9.81,9.81,0,0,1,.64-1.2c.23-.39.49-.77.75-1.13s.55-.71.87-1.06l.25.51a8.92,8.92,0,0,0-1,.18c-.33.08-.7.17-1.06.22a7.06,7.06,0,0,1-2.2,0,8.52,8.52,0,0,1-2.07-.68l-1-.43a4.73,4.73,0,0,0-.47-.2l-.23-.08-.24-.07a3.43,3.43,0,0,0-1-.08,2.48,2.48,0,0,0-.9.22A.9.9,0,0,0,7.9,39a1.65,1.65,0,0,0,.32.77c.18.28.39.56.6.83l.65.83a7.33,7.33,0,0,1,1.11,1.82.15.15,0,0,1-.09.19A.17.17,0,0,1,10.35,43.43Z"/><path class="cls-5" d="M15.86,49.22c-.14.25-.66.23-1.51.23-.06.6-.15,1.19-.15,1.45.54.42.94.43,1.09.75A1.1,1.1,0,0,1,15,53.07a3.3,3.3,0,0,1-1.06.53c0,.61-.14,1.47-.12,1.66.08.54.14.61,0,.73a.7.7,0,0,1-1,0c-.28-.35,0-1.13,0-2-1.26.27-1.91.49-2.28.07-.19-.21,0-.73.64-.88s1.72-.12,1.72-.36a12.64,12.64,0,0,0,.16-1.53c-.63-.31-1.83-.53-1.83-1.53,0-.49,1.1-1,2.08-1.18,0-.16,0-.37,0-1.34,0-.37.73-.66,1.06-.3s0,1.23,0,1.47h.37c.3,0,.31-.09.59-.09a.55.55,0,0,1,.48.84Zm-2.61.41h0a1.78,1.78,0,0,0-.74.33,3.38,3.38,0,0,0,.68.39l.06-.72Zm.89,2.27h0l0,0c0,.21-.07.48-.08.69C14.25,52.33,14.71,52.4,14.14,51.9Z"/><path class="cls-6" d="M22.42,57.75h-5.2a3,3,0,0,1-3-3V39.58a7,7,0,0,0,3.34-.25,9.11,9.11,0,0,1,1.1-.21,13.16,13.16,0,0,0-2.56,4.51l-.06.18a4,4,0,0,1,2.43,1.54A14.43,14.43,0,0,1,21.78,55v.32a7.2,7.2,0,0,0-.1.85A2.11,2.11,0,0,1,22.42,57.75Z"/><path class="cls-4" d="M22.4,58.79a.25.25,0,0,1,.25.25.26.26,0,0,1-.25.26H19.77a.26.26,0,0,1-.26-.26.26.26,0,0,1,.26-.25Z"/><path class="cls-4" d="M19.77,58.79A.25.25,0,0,1,20,59a.26.26,0,0,1-.25.26.74.74,0,0,1-.5-.19.75.75,0,0,1-.25-.47.24.24,0,0,1,.22-.28.25.25,0,0,1,.28.22.28.28,0,0,0,.08.15A.25.25,0,0,0,19.77,58.79Z"/><path class="cls-4" d="M19.52,58.58a.25.25,0,0,1-.22.28.25.25,0,0,1-.28-.22l-.24-1.81a.27.27,0,0,1,.22-.29h4.13a.26.26,0,0,1,.26.25s0,0,0,.06l-.23,1.79a.26.26,0,0,1-.29.22.25.25,0,0,1-.21-.28l.19-1.53H19.32Z"/><path class="cls-7" d="M22.65,58.58a.24.24,0,0,1,.28-.22.25.25,0,0,1,.22.28.8.8,0,0,1-.25.47h0a.75.75,0,0,1-.48.18.26.26,0,0,1-.26-.26.26.26,0,0,1,.26-.25.25.25,0,0,0,.15,0h0A.24.24,0,0,0,22.65,58.58Z"/><path class="cls-8" d="M22.4,57.87H19.77a.5.5,0,0,1-.5-.43L19,55.62h4.1l-.23,1.82A.51.51,0,0,1,22.4,57.87Z"/><path class="cls-9" d="M49.56,59H46.93a.5.5,0,0,1-.5-.43l-.24-1.82h4.1l-.23,1.82A.51.51,0,0,1,49.56,59Z"/><path class="cls-7" d="M49.56,58.79a.25.25,0,0,1,.25.25.26.26,0,0,1-.25.26H46.93a.26.26,0,0,1-.26-.26.26.26,0,0,1,.26-.25Z"/><path class="cls-7" d="M46.93,58.79a.25.25,0,0,1,.25.25.26.26,0,0,1-.25.26.74.74,0,0,1-.5-.19.75.75,0,0,1-.25-.47.24.24,0,0,1,.22-.28.25.25,0,0,1,.28.22.28.28,0,0,0,.08.15A.25.25,0,0,0,46.93,58.79Z"/><path class="cls-7" d="M46.68,58.58a.25.25,0,0,1-.22.28.25.25,0,0,1-.28-.22l-.24-1.81a.27.27,0,0,1,.22-.29h4.13a.26.26,0,0,1,.26.25s0,0,0,.06l-.23,1.79a.26.26,0,0,1-.29.22.27.27,0,0,1-.22-.28l.2-1.53H46.48Z"/><path class="cls-7" d="M49.8,58.58a.26.26,0,0,1,.29-.22.25.25,0,0,1,.22.28.8.8,0,0,1-.25.47.76.76,0,0,1-.5.19A.26.26,0,0,1,49.3,59a.26.26,0,0,1,.26-.25.23.23,0,0,0,.16-.06A.19.19,0,0,0,49.8,58.58Z"/><path class="cls-10" d="M49.56,57.87H46.93a.5.5,0,0,1-.5-.43l-.24-1.82h4.1l-.23,1.82A.51.51,0,0,1,49.56,57.87Z"/><path class="cls-11" d="M25.34.88A.89.89,0,1,1,23.83.26h0A.85.85,0,0,1,24.46,0a.89.89,0,0,1,.88.88Zm-.59.3a.45.45,0,0,0,.12-.3.45.45,0,0,0-.12-.29h0a.45.45,0,0,0-.29-.12.44.44,0,0,0-.28.11h0a.4.4,0,0,0-.12.29.37.37,0,0,0,.12.29.37.37,0,0,0,.29.12A.44.44,0,0,0,24.75,1.18Z"/><path class="cls-11" d="M7,14.93a.79.79,0,0,1-.23.55h0a.78.78,0,0,1-.54.22.8.8,0,0,1-.54-.22.78.78,0,0,1-.22-.55.76.76,0,0,1,.22-.54h0a.76.76,0,0,1,1.06,0l0,0a.74.74,0,0,1,.21.52Zm-.56.21a.3.3,0,0,0,.08-.21.26.26,0,0,0-.07-.19h0a.27.27,0,0,0-.21-.09.32.32,0,0,0-.2.08H6a.25.25,0,0,0-.09.2.27.27,0,0,0,.09.21.29.29,0,0,0,.2.09A.31.31,0,0,0,6.39,15.14Z"/><path class="cls-12" d="M60.26,16a.25.25,0,0,1,.32-.15.24.24,0,0,1,.16.32l-.89,2.6a.26.26,0,0,1-.32.16.26.26,0,0,1-.16-.32Z"/><path class="cls-12" d="M61.45,17.59a.28.28,0,0,1,.18.35.28.28,0,0,1-.36.18l-2.6-.89a.28.28,0,0,1-.18-.36.29.29,0,0,1,.36-.17Z"/><path class="cls-11" d="M17.31,11.87a.28.28,0,0,1,.4,0,.26.26,0,0,1,0,.39L15.91,14.3a.28.28,0,0,1-.4,0,.29.29,0,0,1,0-.4Z"/><path class="cls-11" d="M17.83,13.79a.29.29,0,0,1,0,.4.28.28,0,0,1-.39,0L15.4,12.39a.28.28,0,0,1,0-.4.27.27,0,0,1,.4,0Z"/><path class="cls-12" d="M68.15,20.55a.84.84,0,0,1-.25.59h0a.85.85,0,0,1-.59.24.83.83,0,0,1-.59-.24h0a.82.82,0,0,1,0-1.18.85.85,0,0,1,1.18,0,.84.84,0,0,1,.25.59Zm-.65.2a.28.28,0,0,0,.08-.2.27.27,0,0,0-.27-.27.28.28,0,0,0-.2.08.33.33,0,0,0-.08.19.28.28,0,0,0,.08.2h0a.28.28,0,0,0,.2.08.26.26,0,0,0,.19-.08Z"/><path class="cls-11" d="M32.07,10.57a.85.85,0,0,1-.24.59h0a.83.83,0,0,1-.59.24.87.87,0,0,1-.6-.24h0a.86.86,0,0,1,0-1.19.86.86,0,0,1,.6-.24.82.82,0,0,1,.83.84Zm-.64.19a.27.27,0,0,0,.08-.19.28.28,0,0,0-.08-.2.27.27,0,0,0-.19-.08.27.27,0,0,0-.28.28.27.27,0,0,0,.08.19h0a.28.28,0,0,0,.2.08.27.27,0,0,0,.19-.08Z"/><path class="cls-12" d="M68.57,32.33a.81.81,0,0,1-.24.58h0a.78.78,0,0,1-.55.22.82.82,0,0,1-.57-.23h0a.8.8,0,0,1-.23-.57.84.84,0,0,1,.23-.57.82.82,0,0,1,1.39.57Zm-.6.22a.29.29,0,0,0,.09-.22.27.27,0,0,0-.09-.21.31.31,0,0,0-.21-.09.34.34,0,0,0-.22.09.3.3,0,0,0-.08.21.33.33,0,0,0,.08.22h0a.33.33,0,0,0,.22.08.32.32,0,0,0,.2-.07Z"/><path class="cls-11" d="M8.14,29.76a.83.83,0,0,1-.24.59.88.88,0,0,1-.6.25.84.84,0,0,1-.59-.25.85.85,0,0,1,0-1.18.8.8,0,0,1,.59-.25.84.84,0,0,1,.84.84ZM7.5,30a.27.27,0,0,0,.08-.19.27.27,0,0,0-.28-.28.27.27,0,0,0-.19.08.28.28,0,0,0-.08.2A.27.27,0,0,0,7.3,30,.28.28,0,0,0,7.5,30Z"/><path class="cls-12" d="M61.76,8.67a.8.8,0,0,1-.24.56h0a.79.79,0,0,1-.56.23.81.81,0,0,1-.56-.23h0a.81.81,0,0,1,0-1.13h0a.8.8,0,0,1,1.34.58Zm-.57.22a.31.31,0,0,0,.09-.22A.31.31,0,0,0,61,8.35a.3.3,0,0,0-.21.08h0a.33.33,0,0,0-.1.23.32.32,0,0,0,.1.22A.28.28,0,0,0,61,9,.32.32,0,0,0,61.19,8.89Z"/><path class="cls-11" d="M41,9.34l-1.13,1a.18.18,0,0,1-.25,0l-1-1.13a.18.18,0,0,1,0-.25l1.13-1a.18.18,0,0,1,.25,0l1,1.13a.17.17,0,0,1,0,.25Zm-1.23.6.86-.75-.75-.86-.86.75Z"/><path class="cls-13" d="M66,59.24h0Z"/><rect class="cls-14" x="66.03" y="59.12" width="1.36" height="0.24"/><path class="cls-4" d="M66,59.07a1.75,1.75,0,0,1,.68-.09,4,4,0,0,1,.68.06.21.21,0,0,1,.15.25.19.19,0,0,1-.15.15,3.21,3.21,0,0,1-.68.07,2,2,0,0,1-.68-.09.19.19,0,0,1-.11-.24A.2.2,0,0,1,66,59.07Z"/><path class="cls-13" d="M43.69,59.24h0Z"/><path class="cls-4" d="M43.69,59.08c.89-.07,1.78-.08,2.67-.09H49l5.33,0h8c.89,0,1.78,0,2.67.07a.22.22,0,0,1,0,.43c-.89.06-1.78.07-2.67.07h-8l-5.33,0-2.67,0c-.89,0-1.78,0-2.67-.08a.17.17,0,0,1-.15-.18A.18.18,0,0,1,43.69,59.08Z"/><path class="cls-13" d="M4.08,59.24h0Z"/><path class="cls-4" d="M4.08,59.08C5.62,59,7.16,59,8.71,59H36.5c1.54,0,3.09,0,4.63.07a.22.22,0,0,1,.21.22.23.23,0,0,1-.21.21c-1.54.06-3.09.07-4.63.07H8.71c-1.55,0-3.09,0-4.63-.08a.17.17,0,0,1-.16-.17A.16.16,0,0,1,4.08,59.08Z"/><path class="cls-4" d="M2.58,59.24h0Z"/><path class="cls-4" d="M2.58,59h.15l0,0a.24.24,0,0,1,.06.34l-.06.07,0,0s0,0,0,0h-.1a.25.25,0,0,1-.19-.3A.25.25,0,0,1,2.58,59Z"/><path class="cls-4" d="M.14,59.24h0Z"/><path class="cls-4" d="M.14,59.07A2.07,2.07,0,0,1,.63,59a1.37,1.37,0,0,1,.49,0,.2.2,0,0,1,.14.25.2.2,0,0,1-.14.14,1.37,1.37,0,0,1-.49.05,2.76,2.76,0,0,1-.49-.07A.18.18,0,0,1,0,59.2.15.15,0,0,1,.14,59.07Z"/><path class="cls-13" d="M20.52,62.49h0Z"/><path class="cls-4" d="M20.52,62.32c.79-.07,1.59-.08,2.38-.08l2.38,0,4.75,0h7.14c.79,0,1.58,0,2.37.07a.22.22,0,0,1,.2.23.22.22,0,0,1-.2.2c-.79.06-1.58.07-2.37.07H30l-4.75,0H22.9c-.79,0-1.59,0-2.38-.09a.17.17,0,0,1-.15-.18A.17.17,0,0,1,20.52,62.32Z"/><path class="cls-13" d="M12.69,62.49h0Z"/><path class="cls-4" d="M12.69,62.31c.82,0,1.63-.06,2.44-.07s1.63,0,2.44,0a.2.2,0,0,1,0,.39c-.81,0-1.63.06-2.44,0s-1.62,0-2.44-.07a.17.17,0,0,1-.16-.18A.17.17,0,0,1,12.69,62.31Z"/><path class="cls-13" d="M48,62.49h0Z"/><path class="cls-4" d="M48,62.31c.42,0,.85-.06,1.27-.07a9,9,0,0,1,1.27,0,.19.19,0,0,1,.17.22.19.19,0,0,1-.17.17,9,9,0,0,1-1.27,0c-.42,0-.85,0-1.27-.07a.17.17,0,0,1-.16-.19A.18.18,0,0,1,48,62.31Z"/><rect class="cls-15" x="15.52" y="18.74" width="38.38" height="38.38" rx="3.01" ry="3.01"/><path class="cls-4" d="M54,21.75a11.26,11.26,0,0,1,.13,2.32V54.21a3.28,3.28,0,0,1-3.26,3.16H18.43a3.28,3.28,0,0,1-3.17-3.28V21.65a3.29,3.29,0,0,1,1-2.25,3.24,3.24,0,0,1,2.28-.92H46.35c1.55,0,3.08,0,4.64,0a3.23,3.23,0,0,1,2.23,1,2.75,2.75,0,0,1,.66,1.05A3,3,0,0,1,54,21.75Zm-.24,0h0a3.27,3.27,0,0,0-.89-1.93A2.73,2.73,0,0,0,51,19H18.54a2.8,2.8,0,0,0-1.92.78,2.75,2.75,0,0,0-.83,1.89V54.1A2.72,2.72,0,0,0,16.57,56a2.66,2.66,0,0,0,1.88.83H50.89a2.77,2.77,0,0,0,2.76-2.67V24.07a11.26,11.26,0,0,1,.13-2.32Z"/><path class="cls-7" d="M35.45,18.58a2.22,2.22,0,0,1,.67-.1,2.16,2.16,0,0,1,.66.1.16.16,0,0,1,.11.21.16.16,0,0,1-.11.1,1.89,1.89,0,0,1-.66.1,2,2,0,0,1-.67-.1.17.17,0,0,1-.1-.21A.19.19,0,0,1,35.45,18.58Z"/><path class="cls-3" d="M18.71,43.14V24.43a2.52,2.52,0,0,1,2.51-2.51h27a2.52,2.52,0,0,1,2.51,2.51v27a2.52,2.52,0,0,1-2.51,2.51h-27a2.52,2.52,0,0,1-2.51-2.51V43.14Z"/><path class="cls-4" d="M18.56,43.14c-.13-1.26-.08-2.52-.09-3.78V24.45l0-.26a2.7,2.7,0,0,1,.9-1.8,2.8,2.8,0,0,1,1.89-.7h27a3.07,3.07,0,0,1,.52.06,2.74,2.74,0,0,1,2.1,2.07,2.25,2.25,0,0,1,.07.52c0,.17,0,.32,0,.48V51.32a3,3,0,0,1-.15,1,2.79,2.79,0,0,1-2.33,1.84H21a2.77,2.77,0,0,1-1.82-.9,2.81,2.81,0,0,1-.71-1.9V46.16a.81.81,0,0,1,.12-.47.15.15,0,0,1,.21,0l.05,0a.81.81,0,0,1,.12.47v5.21A2.24,2.24,0,0,0,21,53.66H48.44a2.3,2.3,0,0,0,.81-.24,2.24,2.24,0,0,0,1.08-1.26,2.35,2.35,0,0,0,.13-.84V24.81c0-.15,0-.32,0-.46a2,2,0,0,0-.05-.43,2.25,2.25,0,0,0-.95-1.37,2.16,2.16,0,0,0-.78-.33,2,2,0,0,0-.42,0h-27a2.35,2.35,0,0,0-1.59.58,2.29,2.29,0,0,0-.75,1.5V39.36c0,1.26,0,2.52-.09,3.78a.15.15,0,0,1-.17.14A.16.16,0,0,1,18.56,43.14Z"/><rect class="cls-15" x="17.96" y="25.18" width="1.57" height="4.18" rx="0.65" ry="0.65"/><path class="cls-4" d="M18.88,29.62h-.27a.89.89,0,0,1-.9-.9V25.83a.89.89,0,0,1,.9-.9h.27a.91.91,0,0,1,.64.26h0a.89.89,0,0,1,.27.64v2.89a.89.89,0,0,1-.27.64h0a.91.91,0,0,1-.63.25Zm-.27-.51h.27a.41.41,0,0,0,.27-.1h0a.4.4,0,0,0,.12-.28V25.83a.4.4,0,0,0-.12-.28.39.39,0,0,0-.28-.11h-.27a.38.38,0,0,0-.39.39v2.89a.38.38,0,0,0,.39.39Z"/><path class="cls-5" d="M18,48.6V47.17a.65.65,0,0,1,.65-.65h.27a.65.65,0,0,1,.65.65v2.89a.65.65,0,0,1-.65.64h-.27a.64.64,0,0,1-.63-.5Z"/><path class="cls-4" d="M17.86,48.6a8.06,8.06,0,0,1-.13-1.1v-.44a1.16,1.16,0,0,1,0-.18.89.89,0,0,1,.86-.61h.29a.9.9,0,0,1,.66.33,1.06,1.06,0,0,1,.18.33l0,.19V50a1,1,0,0,1-.07.37.85.85,0,0,1-.21.32.79.79,0,0,1-.33.2A.58.58,0,0,1,19,51h-.47a.77.77,0,0,1-.36-.12.64.64,0,0,1-.34-.61A.14.14,0,0,1,18,50.1a.15.15,0,0,1,.09,0l0,0a1,1,0,0,0,.3.24l.16.05h.25a.4.4,0,0,0,.44-.43V47.27a.47.47,0,0,0,0-.12.19.19,0,0,0,0-.08.35.35,0,0,0-.07-.15.38.38,0,0,0-.29-.15h-.27a.44.44,0,0,0-.17,0,.42.42,0,0,0-.23.24.29.29,0,0,0,0,.09.06.06,0,0,0,0,0v.34a5.8,5.8,0,0,1-.13,1.1.1.1,0,0,1-.12.08A.11.11,0,0,1,17.86,48.6Z"/><path class="cls-6" d="M45.23,44l-2.78-1.61a7.8,7.8,0,0,0,.66-3.13,7.64,7.64,0,0,0-.84-3.51L45,34a.84.84,0,0,0,.24-1.15.82.82,0,0,0-1.14-.24l-2.7,1.75a7.75,7.75,0,0,0-5.18-2.81V28.28a.83.83,0,0,0-1.66,0V31.5a7.73,7.73,0,0,0-5.44,3.13L26.31,33a.84.84,0,0,0-1.14.31.83.83,0,0,0,.31,1.13l2.78,1.61a7.81,7.81,0,0,0-.66,3.14,7.63,7.63,0,0,0,.84,3.5l-2.7,1.75a.83.83,0,0,0,.91,1.4l2.69-1.76a7.72,7.72,0,0,0,5.19,2.82v3.21a.83.83,0,1,0,1.66,0V46.92a7.77,7.77,0,0,0,5.43-3.14l2.78,1.61A.83.83,0,1,0,45.23,44Zm-9.87,1h0a5.79,5.79,0,1,1,5.79-5.79A5.79,5.79,0,0,1,35.36,45Z"/><path class="cls-6" d="M35.36,36.07a3.14,3.14,0,1,0,3.13,3.14A3.14,3.14,0,0,0,35.36,36.07Z"/><path class="cls-5" d="M34,30.29a7.71,7.71,0,0,0-5.43,3.13l-2.79-1.61A.83.83,0,0,0,25,33.25l2.79,1.61A7.65,7.65,0,0,0,27.12,38,7.75,7.75,0,0,0,28,41.5l-2.69,1.76a.83.83,0,0,0,.9,1.39l2.7-1.76A7.72,7.72,0,0,0,34,45.71v3.21a.83.83,0,0,0,1.66,0V45.71a7.73,7.73,0,0,0,5.43-3.14l2.79,1.61a.83.83,0,0,0,.83-1.44L42,41.13a7.75,7.75,0,0,0-.18-6.64l2.7-1.75a.83.83,0,1,0-.91-1.39l-2.7,1.75a7.71,7.71,0,0,0-5.18-2.81V27.07a.83.83,0,1,0-1.66,0v3.22Zm.83,13.5h0a5.83,5.83,0,1,1,.55,0Z"/><path class="cls-4" d="M34.06,30.42a8.11,8.11,0,0,0-3,1,7.86,7.86,0,0,0-2.3,2.11.23.23,0,0,1-.31.06h0l-2-1.12L26,32.23l-.25-.14a.34.34,0,0,0-.11-.07l-.09,0a.59.59,0,0,0-.68.26A.58.58,0,0,0,25,33a.78.78,0,0,0,.19.13l.25.14.49.28,1.95,1.13A.25.25,0,0,1,28,35a7.49,7.49,0,0,0,.17,6.43.26.26,0,0,1-.09.33L26.2,43l-.47.31-.24.15a1.17,1.17,0,0,0-.19.14.57.57,0,0,0-.07.71.58.58,0,0,0,.69.23l.19-.12.24-.15.47-.31,1.9-1.23a.25.25,0,0,1,.34,0,7.4,7.4,0,0,0,2.24,1.85,7.48,7.48,0,0,0,2.77.87.26.26,0,0,1,.23.26v3.11a1.35,1.35,0,0,0,0,.22.56.56,0,0,0,1.1,0,.72.72,0,0,0,0-.23v-3.1a.28.28,0,0,1,.24-.27,7.46,7.46,0,0,0,5.25-3,.26.26,0,0,1,.35-.07l1.95,1.13.49.28.25.15.2.1a.57.57,0,0,0,.66-.25.56.56,0,0,0-.11-.71.69.69,0,0,0-.19-.12l-.24-.15-.49-.28-2-1.13a.26.26,0,0,1-.1-.33,7.6,7.6,0,0,0,.63-3.23,7.38,7.38,0,0,0-.8-3.19.27.27,0,0,1,.09-.34L43.54,33l.48-.31.23-.15a1.17,1.17,0,0,0,.19-.14.56.56,0,0,0,.07-.71.57.57,0,0,0-.68-.22l-.09,0-.11.07-.24.16-.47.3L41,33.32a.25.25,0,0,1-.33-.06,7.54,7.54,0,0,0-2.24-1.85,7.41,7.41,0,0,0-2.77-.87.25.25,0,0,1-.23-.25v-2.9a2.77,2.77,0,0,0,0-.43.57.57,0,0,0-.15-.3.6.6,0,0,0-1,.39c0,.63,0,1.29-.07,1.93a.15.15,0,0,1-.15.14A.15.15,0,0,1,33.9,29c0-.65-.06-1.29-.07-1.94a1.06,1.06,0,0,1,.65-1,1,1,0,0,1,1.16.23,1.16,1.16,0,0,1,.3.54c0,.23,0,.37,0,.54v2.9L35.73,30a7.94,7.94,0,0,1,3,.93,7.75,7.75,0,0,1,2.39,2l-.34-.06,1.9-1.23.47-.31.24-.15.13-.08a.8.8,0,0,1,.16-.08,1.08,1.08,0,0,1,.73,0,1.1,1.1,0,0,1,.58.44,1.17,1.17,0,0,1,.17.71,1.09,1.09,0,0,1-.32.65,1.66,1.66,0,0,1-.26.2l-.24.16-.47.31-1.9,1.23.09-.34a8,8,0,0,1,.18,6.87l-.1-.33L44.05,42l.49.28.25.14a1.54,1.54,0,0,1,.28.19,1.09,1.09,0,0,1,.34.64,1.13,1.13,0,0,1-.13.72A1.1,1.1,0,0,1,44,44.5l-.17-.07-.13-.08-.24-.14L43,43.93,41,42.8l.35-.07A8.07,8.07,0,0,1,35.73,46l.24-.26v3.1a1.42,1.42,0,0,1,0,.34,1.11,1.11,0,0,1-1.07.87,1.18,1.18,0,0,1-.69-.24,1.12,1.12,0,0,1-.38-.63,1.32,1.32,0,0,1,0-.33V45.71L34,46a8.06,8.06,0,0,1-5.35-2.91l.34,0-1.89,1.23-.48.31-.23.16a2.59,2.59,0,0,1-.3.16,1.09,1.09,0,0,1-1.3-.42,1.12,1.12,0,0,1-.17-.71,1.16,1.16,0,0,1,.31-.66,1.85,1.85,0,0,1,.27-.2l.24-.15.47-.31,1.89-1.23-.08.33a8,8,0,0,1-.86-3.41,7.88,7.88,0,0,1,.68-3.45l.1.32L25.7,34l-.49-.28L25,33.52a1.57,1.57,0,0,1-.27-.18A1.09,1.09,0,0,1,24.47,32a1.08,1.08,0,0,1,.55-.46,1,1,0,0,1,.72,0l.17.07.13.07.25.14.49.29,1.95,1.13-.32.07a8.17,8.17,0,0,1,1.13-1.22,7.75,7.75,0,0,1,2.87-1.61,8.11,8.11,0,0,1,1.62-.3.13.13,0,0,1,.14.13A.12.12,0,0,1,34.06,30.42Z"/><path class="cls-4" d="M34.87,43.92a5.2,5.2,0,0,1-2.27-.34,5.84,5.84,0,0,1-2-1.26,6,6,0,1,1,7,1c-.17.1-.35.17-.52.25s-.38.12-.56.17a5.4,5.4,0,0,1-.58.11l-.57,0a.15.15,0,0,1-.15-.15.14.14,0,0,1,.1-.14h0l.53-.13.51-.16.5-.2.49-.22a5.59,5.59,0,0,0,1.65-1.33,5.53,5.53,0,0,0-8.26-7.34A5.53,5.53,0,0,0,31,42a6.28,6.28,0,0,0,3.87,1.69.14.14,0,0,1,.13.15A.14.14,0,0,1,34.87,43.92Z"/><path class="cls-5" d="M34.87,34.86A3.14,3.14,0,1,0,38,38,3.14,3.14,0,0,0,34.87,34.86Z"/><path class="cls-4" d="M36.3,35.37a7,7,0,0,0-1-.22,2.82,2.82,0,0,0-1,0,2.85,2.85,0,0,0-1.64.92,2.64,2.64,0,0,0-.51.81,2.93,2.93,0,0,0-.21.93,2.8,2.8,0,0,0,.5,1.8,2.88,2.88,0,0,0,3.39,1.05,2.87,2.87,0,0,0,1.44-1.22,3.24,3.24,0,0,0,.35-.89l0-.24c0-.08,0-.16,0-.24a1.4,1.4,0,0,1,.06-.49v0a.19.19,0,0,1,.23-.1.2.2,0,0,1,.09.09,1.86,1.86,0,0,1,.06,1.12,3.62,3.62,0,0,1-.4,1.05,3.39,3.39,0,0,1-6.32-1.93,3.22,3.22,0,0,1,.26-1.1,3.51,3.51,0,0,1,.61-1,3.3,3.3,0,0,1,1.95-1.07,3.24,3.24,0,0,1,1.12,0,2.26,2.26,0,0,1,1,.46.14.14,0,0,1,0,.2.15.15,0,0,1-.15,0Z"/><path class="cls-4" d="M37.49,36.8v-.08a.25.25,0,0,1,.24-.25.24.24,0,0,1,.17.07l.06.05h0A.27.27,0,0,1,38,37a.28.28,0,0,1-.39,0A.33.33,0,0,1,37.49,36.8Z"/><path class="cls-6" d="M54.18,44.31v9.17a3.44,3.44,0,0,1-3.43,3.44H38.11a8.34,8.34,0,0,1-1.3-2.17c-.18,0-.87,0-1.06,0a1.19,1.19,0,0,1-1.19-1.19V51a1.19,1.19,0,0,1,1.19-1.19h.87A8.91,8.91,0,0,1,40.1,45.3V43.4a.35.35,0,0,1,.25-.34,3.11,3.11,0,0,1,3.15.55l1-.3c0-.15,0-.3,0-.45a4.57,4.57,0,0,1,3.69-4.54,4.64,4.64,0,0,1,5.57,4.54,4.74,4.74,0,0,1-.16,1.19Z"/><path class="cls-5" d="M58.83,57.79c-.33.32-.44.14-.47.72v.29c0,.59,0,1.65,0,3.66a1,1,0,0,1-1,1h-3.1a1,1,0,0,1-1-1V60.73a15,15,0,0,1-6.37.13v1.6a1,1,0,0,1-1,1h-3.1a1,1,0,0,1-1-1V58.68a10.87,10.87,0,0,1-.91-.74,8.7,8.7,0,0,1-2.26-3.18c-.19,0-.87,0-1.06,0a1.19,1.19,0,0,1-1.19-1.19V51a1.19,1.19,0,0,1,1.19-1.19h.86a9,9,0,0,1,3.48-4.55V43.47a.45.45,0,0,1,.32-.43,3.1,3.1,0,0,1,3.09.58C56.62,40,66.39,50.59,58.83,57.79Z"/><path class="cls-3" d="M41.82,58.68v3.78a1,1,0,0,0,1,1h3.1a1,1,0,0,0,1-1V61a19.57,19.57,0,0,1-6-3.1A10.87,10.87,0,0,0,41.82,58.68Z"/><path class="cls-3" d="M58.36,58.8v-.29a14.31,14.31,0,0,1-5.08,2.39v1.56a1,1,0,0,0,1,1h3.1a1,1,0,0,0,1-1C58.37,60.45,58.35,59.39,58.36,58.8Z"/><path class="cls-9" d="M42.91,48.19c.33.34.2,1-.3,1.51s-1.17.62-1.5.29-.2-1,.29-1.5S42.57,47.86,42.91,48.19Z"/><path class="cls-7" d="M43.11,48a1,1,0,0,1,.24.95,1.89,1.89,0,0,1-.53,1l0,0a2,2,0,0,1-.94.52,1,1,0,0,1-1.2-1.2,2,2,0,0,1,.54-1h0a1.85,1.85,0,0,1,.94-.52,1,1,0,0,1,1,.24Zm-.33.84a.46.46,0,0,0-.08-.43h0a.46.46,0,0,0-.43-.09,1.45,1.45,0,0,0-.65.37h0a1.32,1.32,0,0,0-.38.67.39.39,0,0,0,.51.51,1.33,1.33,0,0,0,.65-.36l0,0A1.34,1.34,0,0,0,42.78,48.83Z"/><path class="cls-4" d="M61.49,51.38c.07-.1.14-.08.21-.08l.21,0,.42.1a2.76,2.76,0,0,1,.8.33,1.92,1.92,0,0,1,.65.65,2,2,0,0,1,.31.85A1.94,1.94,0,0,1,63.5,55a1.2,1.2,0,0,1-.44.25,1.15,1.15,0,0,1-.52.07,1.1,1.1,0,0,1-.88-.59,1.14,1.14,0,0,1,.07-1A2,2,0,0,1,62.4,53a2.52,2.52,0,0,1,.82-.3,1.73,1.73,0,0,1,.9.07A2.17,2.17,0,0,1,65.31,54a5.5,5.5,0,0,1,.32,1.55.2.2,0,0,1-.18.22.19.19,0,0,1-.2-.16,5.93,5.93,0,0,0-.42-1.39,1.66,1.66,0,0,0-.91-.88,1.4,1.4,0,0,0-1.19.2,1.35,1.35,0,0,0-.44.41.52.52,0,0,0,0,.43.45.45,0,0,0,.36.2.41.41,0,0,0,.22,0,.71.71,0,0,0,.22-.13,1.24,1.24,0,0,0,.34-1.08,1.46,1.46,0,0,0-.21-.57,1.3,1.3,0,0,0-.43-.41,2,2,0,0,0-.6-.24,1.27,1.27,0,0,0-.34-.05l-.17,0a.19.19,0,0,1-.17-.1l0,0A.52.52,0,0,1,61.49,51.38Z"/><path class="cls-4" d="M44.4,63.63a8.48,8.48,0,0,1-.87.06l-.43,0a3.66,3.66,0,0,1-.47,0,1.28,1.28,0,0,1-1.1-1.11.61.61,0,0,1,0-.14v-.32c0-1.16,0-2.31,0-3.47l.12.26a10.85,10.85,0,0,1-1.91-1.8,8.72,8.72,0,0,1-1.36-2.27l.33.19a5.43,5.43,0,0,1-.55,0h-.52A1.67,1.67,0,0,1,37,55a1.62,1.62,0,0,1-.52-.38,1.5,1.5,0,0,1-.31-.55,1.13,1.13,0,0,1-.06-.32.81.81,0,0,1,0-.15V51.38c0-.18,0-.32,0-.55a1.55,1.55,0,0,1,.22-.6,1.48,1.48,0,0,1,1-.66,5.26,5.26,0,0,1,.55,0h.52l-.28.2a5.54,5.54,0,0,1,.55-1.36,5,5,0,0,1,.88-1.15.2.2,0,0,1,.28,0,.2.2,0,0,1,0,.23h0c-.22.41-.45.81-.65,1.21s-.37.82-.54,1.24v0a.28.28,0,0,1-.26.19h-.52a3.48,3.48,0,0,0-.47,0,.85.85,0,0,0-.63.4.93.93,0,0,0-.14.36c0,.11,0,.3,0,.47v2.28a1.06,1.06,0,0,0,0,.19.92.92,0,0,0,.19.33.89.89,0,0,0,.69.29h.51a3.62,3.62,0,0,0,.48,0h0a.32.32,0,0,1,.32.19,7.9,7.9,0,0,0,1.27,2.1A9.68,9.68,0,0,0,42,58.43a.34.34,0,0,1,.13.25h0c0,1.16,0,2.31,0,3.47v.32s0,.05,0,.08a.72.72,0,0,0,.58.63,3.66,3.66,0,0,0,.39,0l.43,0a8.48,8.48,0,0,1,.87.06.17.17,0,0,1,0,.34Z"/><path class="cls-4" d="M41,45.83a3.21,3.21,0,0,1,.79-.77l-.13.24V43.15h0a.28.28,0,0,1,.18-.26,4.59,4.59,0,0,1,1-.25,3.93,3.93,0,0,1,1,0,3.29,3.29,0,0,1,1,.24,3.07,3.07,0,0,1,.84.58l-.3-.07a15.74,15.74,0,0,1,5-.75c.22,0,.43,0,.65,0s.42,0,.64,0c.42.06.85.11,1.27.21a13.15,13.15,0,0,1,2.45.77,11.94,11.94,0,0,1,4.2,2.93A9.11,9.11,0,0,1,61,48.73a7.75,7.75,0,0,1,.77,2.49,7.36,7.36,0,0,1-1.21,5,11.17,11.17,0,0,1-.77,1l-.45.47-.22.23a1.76,1.76,0,0,1-.29.24l-.1.07s0,0,0,0a.57.57,0,0,0,0,.22c0,.19,0,.4,0,.61v3.15c0,.11,0,.19,0,.34a1.38,1.38,0,0,1-.1.4,1.24,1.24,0,0,1-.54.59,1.37,1.37,0,0,1-.38.15,1.71,1.71,0,0,1-.37,0h-3l-.21,0a1.23,1.23,0,0,1-.71-.37,1.27,1.27,0,0,1-.36-.71c0-.07,0-.14,0-.2V60.72l.37.29a15.28,15.28,0,0,1-6.49.13l.34-.28c0,.49,0,1,0,1.47a1.39,1.39,0,0,1,0,.44,1.2,1.2,0,0,1-.2.43,1.1,1.1,0,0,1-.8.42.2.2,0,0,1-.2-.19.19.19,0,0,1,.1-.17h0a.92.92,0,0,0,.39-.39.5.5,0,0,0,.09-.23,1.21,1.21,0,0,0,0-.3c0-.49,0-1,0-1.47a.29.29,0,0,1,.29-.29H47a14.75,14.75,0,0,0,6.24-.13.28.28,0,0,1,.35.22.13.13,0,0,1,0,.06v1.74s0,.07,0,.11a.67.67,0,0,0,.2.39.78.78,0,0,0,.38.2h3.36l.2-.08a.67.67,0,0,0,.29-.33.65.65,0,0,0,.06-.21V59.1c0-.21,0-.42,0-.65a1.84,1.84,0,0,1,.06-.4.64.64,0,0,1,.19-.25.63.63,0,0,1,.15-.1,1.4,1.4,0,0,0,.2-.17l.21-.22c.14-.15.29-.29.42-.45a8.39,8.39,0,0,0,.72-1,7.33,7.33,0,0,0,.59-1.06l.22-.56c0-.1.06-.19.09-.29l.07-.29a6.63,6.63,0,0,0,.15-2.39,7.49,7.49,0,0,0-.71-2.3,8.77,8.77,0,0,0-1.37-2,11.35,11.35,0,0,0-4-2.79,12.07,12.07,0,0,0-2.35-.73c-.4-.1-.81-.15-1.21-.21-.2,0-.41,0-.62-.05a6.08,6.08,0,0,0-.61,0,14.87,14.87,0,0,0-4.86.71.3.3,0,0,1-.29-.07h0a2.37,2.37,0,0,0-.65-.45,2.62,2.62,0,0,0-.79-.2,3.33,3.33,0,0,0-.83,0,3.44,3.44,0,0,0-.81.21l.18-.27V45.3a.3.3,0,0,1-.11.23h0a2.72,2.72,0,0,1-.9.55h0A.18.18,0,0,1,41,46,.16.16,0,0,1,41,45.83Z"/><path class="cls-16" d="M54.8,42.82a3.81,3.81,0,0,1-1.31,2.87A12.76,12.76,0,0,0,48,45.2a3.75,3.75,0,0,1-.84-2.38,3.81,3.81,0,1,1,7.61,0Z"/><path class="cls-17" d="M54.8,42.82a3.81,3.81,0,0,1-1.31,2.87A12.76,12.76,0,0,0,48,45.2a3.75,3.75,0,0,1-.84-2.38,3.81,3.81,0,1,1,7.61,0Z"/><path class="cls-5" d="M53.64,41.85a1.79,1.79,0,0,1,.28.8,3.06,3.06,0,0,1-.07.85A2.9,2.9,0,0,1,53,45a3.07,3.07,0,0,1-.58.42c-.34-.07-.7-.14-1.06-.19h0a2.43,2.43,0,0,0,1.25-.62,2.39,2.39,0,0,0,.72-1.21,4.37,4.37,0,0,0,0-1.45h0a.13.13,0,0,1,.12-.13.16.16,0,0,1,.11.05ZM49.76,45.1a.26.26,0,0,1,.24,0l.12,0Z"/><path class="cls-5" d="M48.48,44.06a2.69,2.69,0,0,1-.3-2,2.88,2.88,0,0,1,1.13-1.69,2.79,2.79,0,0,1,2-.51,2.61,2.61,0,0,1,1,.31,2,2,0,0,1,.71.72A.07.07,0,0,1,53,41a.06.06,0,0,1-.07,0,4,4,0,0,0-1.66-.62,2.76,2.76,0,0,0-.86.08,2.65,2.65,0,0,0-.79.35,2.55,2.55,0,0,0-1,1.39,2.87,2.87,0,0,0-.1.88,3,3,0,0,0,.19.88.1.1,0,0,1-.06.14A.11.11,0,0,1,48.48,44.06Z"/><path class="cls-5" d="M51.89,42.05c0,.1-.26.09-.6.09,0,.24-.06.48-.06.58.22.17.37.17.44.3a.45.45,0,0,1-.12.57,1.15,1.15,0,0,1-.43.21c0,.25,0,.6,0,.67s.05.25,0,.3a.28.28,0,0,1-.39,0c-.11-.14,0-.45,0-.79-.51.11-.77.19-.92,0s0-.3.26-.36.69,0,.69-.14c0-.38.06-.48.06-.62-.25-.12-.73-.21-.73-.61,0-.2.44-.42.83-.47a4.91,4.91,0,0,0,0-.54c0-.15.29-.27.42-.12s0,.49,0,.59h.14c.13,0,.13,0,.24,0a.22.22,0,0,1,.19.34Zm-1,.16h0a.74.74,0,0,0-.3.13,1.28,1.28,0,0,0,.27.16l0-.29Zm.35.91h0a1.24,1.24,0,0,0,0,.27C51.25,43.29,51.43,43.32,51.2,43.12Z"/><path class="cls-5" d="M55.29,46.74a12.75,12.75,0,0,0-8.81-1Z"/><path class="cls-4" d="M55.21,46.9c-.71-.25-1.4-.5-2.11-.69a12.22,12.22,0,0,0-2.16-.38l-.55,0a5,5,0,0,0-.55,0h-.55c-.18,0-.36,0-.55,0a13.47,13.47,0,0,1-2.22.12h0a.2.2,0,0,1-.16-.21.22.22,0,0,1,.08-.13A5,5,0,0,1,48.69,45a11.43,11.43,0,0,1,1.17,0l.58,0,.58.06a13.2,13.2,0,0,1,2.26.5,7.57,7.57,0,0,1,2.09,1,.17.17,0,0,1,.05.25.18.18,0,0,1-.21.07Z"/><path class="cls-3" d="M42.91,48.19c.33.34.2,1-.3,1.51s-1.17.62-1.5.29-.2-1,.29-1.5S42.57,47.86,42.91,48.19Z"/><path class="cls-4" d="M43.11,48a1,1,0,0,1,.24.95,1.89,1.89,0,0,1-.53,1l0,0a2,2,0,0,1-.94.52,1,1,0,0,1-1.2-1.2,2,2,0,0,1,.54-1h0a1.85,1.85,0,0,1,.94-.52,1,1,0,0,1,1,.24Zm-.33.84a.46.46,0,0,0-.08-.43h0a.46.46,0,0,0-.43-.09,1.45,1.45,0,0,0-.65.37h0a1.32,1.32,0,0,0-.38.67.39.39,0,0,0,.51.51,1.33,1.33,0,0,0,.65-.36l0,0A1.34,1.34,0,0,0,42.78,48.83Z"/><path class="cls-4" d="M43,59.33a2.26,2.26,0,0,1,.76.29l.72.34c.49.21,1,.41,1.5.59a.11.11,0,0,1,.08.15.12.12,0,0,1-.13.07,7.27,7.27,0,0,1-1.6-.43c-.26-.1-.52-.21-.77-.33a1.88,1.88,0,0,1-.68-.48.12.12,0,0,1,0-.17A.12.12,0,0,1,43,59.33Z"/><path class="cls-4" d="M53.85,60.35a.29.29,0,0,1,.14-.08l.14-.06.3-.11.58-.25a.08.08,0,0,1,.11,0,.1.1,0,0,1,0,.1,6.18,6.18,0,0,1-.53.36l-.29.16-.14.08a.23.23,0,0,1-.16,0,.18.18,0,0,1-.15-.2l0-.07Z"/><path class="cls-16" d="M59.12,27.84a3.73,3.73,0,1,1-3.73-3.74A3.73,3.73,0,0,1,59.12,27.84Z"/><path class="cls-17" d="M59.12,27.84a3.73,3.73,0,1,1-3.73-3.74A3.73,3.73,0,0,1,59.12,27.84Z"/><path class="cls-5" d="M58,26.89a1.67,1.67,0,0,1,.28.78,3,3,0,0,1-.07.84A2.83,2.83,0,0,1,57.37,30a2.93,2.93,0,0,1-1.5.75,2.8,2.8,0,0,1-1.64-.23.24.24,0,0,1,.19-.43,2.38,2.38,0,0,0,1.37.14A2.25,2.25,0,0,0,57,29.57a2.29,2.29,0,0,0,.71-1.18,4.48,4.48,0,0,0,0-1.42h0a.12.12,0,0,1,.22-.08Z"/><path class="cls-5" d="M52.92,29.05a2.62,2.62,0,0,1-.29-1.92,2.8,2.8,0,0,1,1.11-1.66A2.74,2.74,0,0,1,55.68,25a2.69,2.69,0,0,1,1,.31,1.91,1.91,0,0,1,.7.71.05.05,0,0,1,0,.08.09.09,0,0,1-.07,0,3.83,3.83,0,0,0-1.63-.61,3,3,0,0,0-.84.07,2.68,2.68,0,0,0-.77.35,2.43,2.43,0,0,0-1,1.36,2.51,2.51,0,0,0-.1.86,2.65,2.65,0,0,0,.18.87.11.11,0,0,1-.06.14A.1.1,0,0,1,52.92,29.05Z"/><path class="cls-5" d="M56.26,27c0,.09-.23.08-.53.08,0,.21-.06.42-.06.51.19.15.33.16.39.27a.38.38,0,0,1-.1.5,1.13,1.13,0,0,1-.38.19,5.68,5.68,0,0,0,0,.59c0,.19.05.22,0,.26a.25.25,0,0,1-.35,0c-.09-.12,0-.4,0-.7-.44.1-.68.17-.81,0s0-.26.23-.32.61,0,.61-.12c0-.34.06-.43.06-.55-.22-.11-.65-.19-.65-.54,0-.17.39-.37.74-.42V26.3c0-.13.26-.24.38-.11s0,.43,0,.52h.13a1.77,1.77,0,0,1,.21,0c.22,0,.21.22.17.3Zm-.92.14h0a.66.66,0,0,0-.27.12,1,1,0,0,0,.24.14l0-.26Zm.31.81h0v0a2.13,2.13,0,0,0,0,.25C55.69,28.08,55.85,28.11,55.65,27.93Z"/><path class="cls-16" d="M53,16.32a4.55,4.55,0,1,1-4.55-4.55A4.55,4.55,0,0,1,53,16.32Z"/><path class="cls-17" d="M53,16.32a4.55,4.55,0,1,1-4.55-4.55A4.55,4.55,0,0,1,53,16.32Z"/><path class="cls-5" d="M51.57,15.17a1.9,1.9,0,0,1,.33,1,3.51,3.51,0,0,1-.07,1,3.58,3.58,0,0,1-1,1.76,3.53,3.53,0,0,1-1.83.91,3.39,3.39,0,0,1-2-.28.28.28,0,0,1-.13-.38.27.27,0,0,1,.36-.14h0a3.28,3.28,0,0,0,.82.2,3,3,0,0,0,.85,0A3,3,0,0,0,51.25,17a3.47,3.47,0,0,0,.1-.85c0-.29,0-.57-.05-.88h0a.15.15,0,0,1,.14-.15A.14.14,0,0,1,51.57,15.17Z"/><path class="cls-5" d="M45.4,17.8a3.17,3.17,0,0,1-.35-2.34,3.45,3.45,0,0,1,1.35-2,3.38,3.38,0,0,1,2.37-.61,3,3,0,0,1,1.17.38,2.27,2.27,0,0,1,.86.85.08.08,0,0,1-.11.1,4.67,4.67,0,0,0-2-.74,2.25,2.25,0,0,0-.52,0,2.3,2.3,0,0,0-.26,0l-.25.05a3.3,3.3,0,0,0-.94.42,3,3,0,0,0-1.21,1.66,3.36,3.36,0,0,0-.12,1,3.25,3.25,0,0,0,.23,1.06.14.14,0,0,1-.08.17A.13.13,0,0,1,45.4,17.8Z"/><path class="cls-5" d="M49.54,15.24c-.07.11-.3.1-.67.1,0,.27-.07.53-.07.64.24.18.42.19.49.33a.5.5,0,0,1-.13.63,1.58,1.58,0,0,1-.47.23c0,.27-.06.65,0,.73,0,.24.06.27,0,.32a.31.31,0,0,1-.44,0c-.12-.15,0-.49,0-.86-.55.12-.84.21-1,0s0-.32.28-.39.76-.05.76-.16a6.09,6.09,0,0,0,.07-.67c-.28-.14-.81-.24-.81-.68,0-.21.49-.45.92-.51V14.4c0-.17.32-.3.47-.13s0,.53,0,.64h.16c.14,0,.14,0,.27,0s.26.28.21.37Zm-1.15.18h0a.77.77,0,0,0-.33.15,1.52,1.52,0,0,0,.3.17l0-.32Zm.39,1h0l0,0c0,.1,0,.21,0,.31C48.83,16.61,49,16.64,48.78,16.42Z"/><rect class="cls-15" x="23.03" y="60.38" width="5.24" height="1.81"/><path class="cls-4" d="M28.27,62.45H23a.26.26,0,0,1-.26-.26V60.38a.27.27,0,0,1,.26-.27h5.24a.27.27,0,0,1,.26.27v1.81a.26.26,0,0,1-.26.26Zm-5-.52H28V60.64H23.29Z"/><rect class="cls-15" x="21.92" y="58.56" width="5.24" height="1.81"/><path class="cls-4" d="M27.16,60.63H21.92a.26.26,0,0,1-.26-.26V58.56a.26.26,0,0,1,.26-.26h5.24a.26.26,0,0,1,.26.26v1.81a.26.26,0,0,1-.26.26Zm-5-.52H26.9V58.82H22.18Z"/><rect class="cls-15" x="23.57" y="56.73" width="5.24" height="1.81"/><path class="cls-4" d="M28.8,58.8H23.57a.26.26,0,0,1-.26-.26V56.73a.26.26,0,0,1,.26-.27H28.8a.27.27,0,0,1,.27.27v1.81a.27.27,0,0,1-.27.26Zm-5-.52h4.71V57H23.83Z"/><rect class="cls-15" x="31.12" y="60.65" width="5.24" height="1.81"/><path class="cls-4" d="M36.36,62.72H31.12a.26.26,0,0,1-.26-.26V60.65a.26.26,0,0,1,.26-.26h5.24a.26.26,0,0,1,.26.26v1.81a.26.26,0,0,1-.26.26Zm-5-.52H36.1V60.91H31.38Z"/><rect class="cls-15" x="22.05" y="54.91" width="5.24" height="1.81"/><path class="cls-4" d="M27.29,57H22.05a.26.26,0,0,1-.26-.26V54.91a.26.26,0,0,1,.26-.26h5.24a.26.26,0,0,1,.26.26v1.81a.26.26,0,0,1-.26.26Zm-5-.52H27V55.17H22.31Z"/></g></g></g></svg>
