<svg xmlns="http://www.w3.org/2000/svg" viewBox="0 0 74.35 59.3"><defs><style>.cls-1{fill:#d6e2e2;}.cls-1,.cls-2,.cls-3,.cls-4,.cls-5{fill-rule:evenodd;}.cls-2{fill:#f26122;stroke:#015e60;stroke-miterlimit:2.61;stroke-width:0.72px;}.cls-3,.cls-5{fill:#015e60;}.cls-4{fill:#fff;}.cls-5{opacity:0.2;}</style></defs><title>Baritcaagui</title><g id="Layer_2" data-name="Layer 2"><g id="Layer_1-2" data-name="Layer 1"><path class="cls-1" d="M4.57,46.07a16.25,16.25,0,0,0,2.91,7.6c.55.44,1.47.19,2.12.19H61.47l0,0a32.7,32.7,0,0,0,3.49-7c2-7-4.45-11.77-8.64-16.26-2.4-2.57-2.59-6.28-4.66-9-2.84-3.76-7.65-5.72-12.24-6a14.21,14.21,0,0,0-13,5.82c-2.63,3.51-4.13,9-8.28,11.07-1.48.76-3.2.85-4.81,1.29C8.14,35.11,4,40.55,4.57,46.07Z"/><path class="cls-1" d="M52.51,16a1.25,1.25,0,1,1-1.24-1.25A1.24,1.24,0,0,1,52.51,16Z"/><path class="cls-1" d="M37.32,2.49a1.47,1.47,0,1,1-2.93,0,1.47,1.47,0,0,1,2.93,0Z"/><path class="cls-1" d="M59,20a1,1,0,1,1-1-1A1,1,0,0,1,59,20Z"/><path class="cls-1" d="M58.09,5.65a.85.85,0,1,1-.84-.85A.85.85,0,0,1,58.09,5.65Z"/><path class="cls-1" d="M45.35.85A.85.85,0,1,1,44.5,0,.85.85,0,0,1,45.35.85Z"/><path class="cls-1" d="M8.81,18.94a1.49,1.49,0,0,0,1.48.24,1.38,1.38,0,0,0,.56-.42,2.29,2.29,0,0,0,.38-2.11c-.24-.77-.94-1.49-1.66-1.34a2.68,2.68,0,0,0-1.63,1.82A2,2,0,0,0,8.81,18.94Z"/><path class="cls-2" d="M34.34,38.08A13.85,13.85,0,0,0,48.19,24.23c0-.12,0-.23,0-.35h0c0-.12,0-.24,0-.36l0-.35a2.07,2.07,0,0,0,0-.35h0c0-.12,0-.23,0-.35s0-.23,0-.34L48,21.78h0c0-.11,0-.22-.07-.34s0-.22-.07-.33,0-.22-.08-.33-.06-.23-.09-.33h0c0-.1-.06-.21-.1-.32s-.07-.22-.1-.33-.08-.21-.11-.31a3.05,3.05,0,0,0-.13-.32l-.12-.31h0c-.05-.11-.09-.21-.14-.31l-.14-.31-.15-.3-.16-.29h0c0-.1-.1-.2-.16-.3h0l-.17-.28L46,16.77h0l-.18-.27h0a2.75,2.75,0,0,0-.19-.28h0L45.44,16h0l-.21-.26h0L45,15.43l-.21-.25-.22-.25-.23-.25-.23-.23h0l-.24-.23h0L43.65,14l-.25-.22-.25-.22-.26-.2h0l-.26-.2L42.36,13l-.28-.19-.28-.19h0a2.61,2.61,0,0,0-.28-.17l-.29-.17-.29-.17h0l-.3-.15-.3-.15-.3-.14-.31-.14-.31-.13-.32-.12-.32-.11L38.46,11l-.33-.09-.33-.09-.33-.08h0l-.34-.08-.34-.06-.34-.06-.34-.05-.35,0-.35,0-.35,0h-.72a13.85,13.85,0,0,0,0,27.69Zm0-3.46h0A10.39,10.39,0,1,1,44.73,24.23,10.39,10.39,0,0,1,34.34,34.62Z"/><path class="cls-2" d="M32.34,29.09a.51.51,0,0,0,.74,0l7.34-7.35a.5.5,0,0,0,0-.73l-1.63-1.63a.5.5,0,0,0-.73,0l-5.35,5.34-2.08-2.08a.53.53,0,0,0-.74,0l-1.63,1.64a.52.52,0,0,0,0,.73Z"/><path class="cls-3" d="M4.22,54c2.63-.07,5.26-.08,7.88-.08H20l15.77,0H59.41c2.63,0,5.26,0,7.88.06a.21.21,0,0,1,.22.2.2.2,0,0,1-.22.18c-2.62.06-5.25.06-7.88.06H12.1c-2.62,0-5.25,0-7.88-.07a.17.17,0,0,1-.17-.15A.16.16,0,0,1,4.22,54Z"/><path class="cls-3" d="M2.67,53.9h.15l.05,0a.2.2,0,0,1,.07.31l-.07.06H2.82l0,0h-.1a.23.23,0,0,1-.2-.27A.24.24,0,0,1,2.67,53.9Z"/><path class="cls-3" d="M.14,54a2.94,2.94,0,0,1,.51-.05,1.47,1.47,0,0,1,.51,0,.17.17,0,0,1,.14.22.17.17,0,0,1-.14.12,1.48,1.48,0,0,1-.51,0,3,3,0,0,1-.51-.06.16.16,0,0,1-.13-.2A.18.18,0,0,1,.14,54Z"/><path class="cls-3" d="M20.39,56.84c.84,0,1.68-.05,2.52-.06s1.69,0,2.53,0a.2.2,0,0,1,.19.19.19.19,0,0,1-.19.16c-.84,0-1.68,0-2.53,0s-1.68,0-2.52-.06a.16.16,0,0,1-.17-.16A.17.17,0,0,1,20.39,56.84Z"/><path class="cls-3" d="M68.33,54a1.84,1.84,0,0,1,.7-.08,4.12,4.12,0,0,1,.7,0,.18.18,0,0,1,.16.22.21.21,0,0,1-.16.14,5.51,5.51,0,0,1-.7.06,2.07,2.07,0,0,1-.7-.09.15.15,0,0,1-.11-.21A.17.17,0,0,1,68.33,54Z"/><path class="cls-1" d="M67.06,36.72a.28.28,0,0,1-.28-.28.29.29,0,0,1,.28-.29h5.11a.29.29,0,0,1,.29.29.28.28,0,0,1-.29.28Z"/><path class="cls-1" d="M72.17,36.72a.28.28,0,0,1-.29-.28.29.29,0,0,1,.29-.29.18.18,0,0,0,.14-.06h0a.17.17,0,0,0,.05-.14.29.29,0,0,1,.58,0,.79.79,0,0,1-.21.54l0,0A.78.78,0,0,1,72.17,36.72Z"/><path class="cls-1" d="M73,35.94a.29.29,0,1,1-.58,0V34.36a.29.29,0,1,1,.58,0Z"/><path class="cls-1" d="M73,34.36a.29.29,0,0,1-.58,0,.25.25,0,0,0-.05-.15.2.2,0,0,0-.15-.06.29.29,0,1,1,0-.58.79.79,0,0,1,.55.23A.81.81,0,0,1,73,34.36Z"/><path class="cls-1" d="M72.17,33.57a.29.29,0,1,1,0,.58H67.06a.29.29,0,0,1,0-.58Z"/><path class="cls-1" d="M67.06,33.57a.29.29,0,1,1,0,.58.18.18,0,0,0-.14.06.2.2,0,0,0-.06.15.29.29,0,0,1-.58,0,.81.81,0,0,1,.23-.56A.79.79,0,0,1,67.06,33.57Z"/><path class="cls-1" d="M66.28,34.36a.29.29,0,1,1,.58,0v1.58a.29.29,0,1,1-.58,0Z"/><path class="cls-1" d="M66.28,35.94a.29.29,0,0,1,.58,0,.2.2,0,0,0,.06.15h0a.19.19,0,0,0,.13,0,.29.29,0,0,1,.29.29.28.28,0,0,1-.29.28.78.78,0,0,1-.53-.21h0A.81.81,0,0,1,66.28,35.94Z"/><path class="cls-1" d="M64.7,34.16a.29.29,0,1,1,0-.58h5.1a.29.29,0,0,1,0,.58Z"/><path class="cls-1" d="M69.8,34.16a.29.29,0,0,1,0-.58.2.2,0,0,0,.15-.06h0a.2.2,0,0,0,.06-.15.29.29,0,0,1,.29-.28.28.28,0,0,1,.28.28.76.76,0,0,1-.22.55h0A.77.77,0,0,1,69.8,34.16Z"/><path class="cls-1" d="M70.58,33.37a.28.28,0,0,1-.28.29.29.29,0,0,1-.29-.29V31.79a.29.29,0,0,1,.29-.29.28.28,0,0,1,.28.29Z"/><path class="cls-1" d="M70.58,31.79a.27.27,0,0,1-.28.28.28.28,0,0,1-.29-.28.21.21,0,0,0-.21-.21.28.28,0,0,1-.28-.29A.27.27,0,0,1,69.8,31a.77.77,0,0,1,.56.23A.76.76,0,0,1,70.58,31.79Z"/><path class="cls-1" d="M69.8,31a.28.28,0,0,1,.29.28.29.29,0,0,1-.29.29H64.7a.29.29,0,0,1-.29-.29A.28.28,0,0,1,64.7,31Z"/><path class="cls-1" d="M64.7,31a.28.28,0,0,1,.29.28.29.29,0,0,1-.29.29.2.2,0,0,0-.15.06h0a.25.25,0,0,0-.06.15.29.29,0,0,1-.57,0,.81.81,0,0,1,.23-.56h0A.76.76,0,0,1,64.7,31Z"/><path class="cls-1" d="M63.92,31.79a.29.29,0,1,1,.57,0v1.58a.29.29,0,1,1-.57,0Z"/><path class="cls-1" d="M63.92,33.37a.29.29,0,0,1,.57,0,.25.25,0,0,0,.06.15.2.2,0,0,0,.15.06.29.29,0,1,1,0,.58.77.77,0,0,1-.55-.23A.81.81,0,0,1,63.92,33.37Z"/><path class="cls-1" d="M70.09,36.73a.29.29,0,0,1,0-.58h4a.29.29,0,0,1,0,.58Z"/><path class="cls-1" d="M68.63,32.32a.29.29,0,0,1,0,.58h0a.29.29,0,1,1,0-.58Z"/><path class="cls-1" d="M66,32a.28.28,0,0,1,.29.28.29.29,0,0,1-.29.29h0a.29.29,0,0,1-.29-.29A.28.28,0,0,1,66,32Z"/><path class="cls-1" d="M67.31,35.2a.28.28,0,0,1-.29-.28.29.29,0,0,1,.29-.29h0a.29.29,0,0,1,.29.29.28.28,0,0,1-.29.28Z"/><path class="cls-1" d="M69.9,35.49a.29.29,0,1,1,0-.57h0a.29.29,0,1,1,0,.57Z"/><path class="cls-3" d="M19.34,53.62a.31.31,0,1,1,0,.61H14a.31.31,0,0,1,0-.61Z"/><path class="cls-3" d="M14,53.62a.31.31,0,1,1,0,.61.83.83,0,0,1-.58-.24h0a.81.81,0,0,1-.24-.58.3.3,0,1,1,.6,0,.24.24,0,0,0,.07.16h0A.2.2,0,0,0,14,53.62Z"/><path class="cls-3" d="M13.73,53.4a.3.3,0,1,1-.6,0V51.73a.3.3,0,1,1,.6,0Z"/><path class="cls-3" d="M13.73,51.73a.3.3,0,0,1-.6,0,.83.83,0,0,1,.24-.59h0A.81.81,0,0,1,14,50.9a.31.31,0,1,1,0,.61.2.2,0,0,0-.15.06h0A.22.22,0,0,0,13.73,51.73Z"/><path class="cls-3" d="M14,51.51a.31.31,0,0,1,0-.61h5.39a.31.31,0,1,1,0,.61Z"/><path class="cls-3" d="M19.34,51.51a.31.31,0,0,1,0-.61.83.83,0,0,1,.59.24l0,0a.88.88,0,0,1,.22.57.31.31,0,0,1-.61,0,.25.25,0,0,0,0-.15h0A.23.23,0,0,0,19.34,51.51Z"/><path class="cls-3" d="M19.56,51.73a.31.31,0,1,1,.61,0V53.4a.31.31,0,1,1-.61,0Z"/><path class="cls-3" d="M19.56,53.4a.31.31,0,0,1,.61,0,.79.79,0,0,1-.24.58h0a.83.83,0,0,1-.59.24.31.31,0,0,1,0-.61.23.23,0,0,0,.16-.06h0A.23.23,0,0,0,19.56,53.4Z"/><path class="cls-3" d="M21.84,50.91a.3.3,0,1,1,0,.6H16.45a.3.3,0,1,1,0-.6Z"/><path class="cls-3" d="M16.45,50.91a.3.3,0,0,1,0,.6.81.81,0,0,1-.58-.24.82.82,0,0,1-.25-.58.31.31,0,0,1,.31-.31.3.3,0,0,1,.3.31.21.21,0,0,0,.07.15A.2.2,0,0,0,16.45,50.91Z"/><path class="cls-3" d="M16.23,50.69a.29.29,0,0,1-.3.3.3.3,0,0,1-.31-.3V49a.3.3,0,0,1,.31-.3.29.29,0,0,1,.3.3Z"/><path class="cls-3" d="M16.23,49a.3.3,0,0,1-.3.31.31.31,0,0,1-.31-.31.82.82,0,0,1,.25-.58.81.81,0,0,1,.58-.24.3.3,0,0,1,0,.6.24.24,0,0,0-.16.07A.25.25,0,0,0,16.23,49Z"/><path class="cls-3" d="M16.45,48.79a.3.3,0,1,1,0-.6h5.39a.3.3,0,1,1,0,.6Z"/><path class="cls-3" d="M21.84,48.79a.3.3,0,1,1,0-.6.81.81,0,0,1,.58.24.82.82,0,0,1,.25.58.31.31,0,1,1-.61,0,.2.2,0,0,0-.06-.15A.24.24,0,0,0,21.84,48.79Z"/><path class="cls-3" d="M22.06,49a.31.31,0,0,1,.61,0v1.68a.31.31,0,0,1-.61,0Z"/><path class="cls-3" d="M22.06,50.69a.31.31,0,1,1,.61,0,.82.82,0,0,1-.25.58l0,0a.79.79,0,0,1-.56.22.3.3,0,1,1,0-.6.2.2,0,0,0,.15-.06h0A.2.2,0,0,0,22.06,50.69Z"/><path class="cls-3" d="M17.69,50.19a.31.31,0,0,1,0-.61h0a.31.31,0,0,1,0,.61Z"/><path class="cls-3" d="M20.43,49.88a.3.3,0,0,1-.3-.3.31.31,0,0,1,.3-.31h0a.3.3,0,0,1,.3.31.29.29,0,0,1-.3.3Z"/><path class="cls-3" d="M25.8,53.65a.3.3,0,1,1,0,.6H20.41a.3.3,0,0,1,0-.6Z"/><path class="cls-3" d="M20.41,53.65a.3.3,0,0,1,0,.6.83.83,0,0,1-.59-.24.85.85,0,0,1-.24-.58.31.31,0,0,1,.61,0,.25.25,0,0,0,.06.15A.24.24,0,0,0,20.41,53.65Z"/><path class="cls-3" d="M20.19,53.43a.31.31,0,0,1-.61,0V51.75a.31.31,0,0,1,.61,0Z"/><path class="cls-3" d="M20.19,51.75a.31.31,0,1,1-.61,0,.85.85,0,0,1,.24-.58l0,0a.79.79,0,0,1,.56-.22.3.3,0,0,1,0,.6.2.2,0,0,0-.15.06h0A.25.25,0,0,0,20.19,51.75Z"/><path class="cls-3" d="M20.41,51.53a.3.3,0,0,1,0-.6H25.8a.3.3,0,0,1,0,.6Z"/><path class="cls-3" d="M25.8,51.53a.3.3,0,0,1,0-.6.81.81,0,0,1,.58.24.83.83,0,0,1,.25.58.31.31,0,0,1-.31.31.3.3,0,0,1-.3-.31A.25.25,0,0,0,26,51.6.24.24,0,0,0,25.8,51.53Z"/><path class="cls-3" d="M26,51.75a.29.29,0,0,1,.3-.3.3.3,0,0,1,.31.3v1.68a.3.3,0,0,1-.31.3.29.29,0,0,1-.3-.3Z"/><path class="cls-3" d="M26,53.43a.29.29,0,0,1,.3-.3.3.3,0,0,1,.31.3.82.82,0,0,1-.25.58.81.81,0,0,1-.58.24.3.3,0,1,1,0-.6.2.2,0,0,0,.15-.07A.21.21,0,0,0,26,53.43Z"/><path class="cls-3" d="M21.65,52.93a.31.31,0,0,1,0-.61h0a.31.31,0,0,1,0,.61Z"/><path class="cls-3" d="M24.39,52.62a.3.3,0,1,1,0-.6h0a.3.3,0,0,1,0,.6Z"/><path class="cls-3" d="M19.09,52a.3.3,0,0,1,0,.6h0a.3.3,0,0,1,0-.6Z"/><path class="cls-3" d="M16.34,52.32a.31.31,0,1,1,0,.61h0a.31.31,0,0,1,0-.61Z"/><path class="cls-4" d="M60.08,48l2.16-.42,1.84-1.35,2.31-1.56.85-1.2.08-1.84-.24-2.17.51-.56-2.78,2.54-.33.4s-1.41,3.61-1.44,3.7a8.39,8.39,0,0,1-1.25.34l-1.69,2Z"/><path class="cls-3" d="M63.26,45.31c-.24.27-.51.52-.77.78l-.78.77-.8.74a8.08,8.08,0,0,1-.88.66l-.11-.35a5.22,5.22,0,0,0,2.16-.47,3.7,3.7,0,0,0,1.67-1.31,4.18,4.18,0,0,0,.57-2.06,8.66,8.66,0,0,0-.18-2.22v0a.31.31,0,0,1,.11-.3l1.34-1.14,1.36-1.12h0a.22.22,0,0,1,.32,0,.19.19,0,0,1,0,.09A12.94,12.94,0,0,1,67.61,41a10.15,10.15,0,0,1,.09,1.66,6,6,0,0,1-.11.84,2,2,0,0,1-.14.43,1.62,1.62,0,0,1-.28.39,7.92,7.92,0,0,1-.63.56l-.34.23a.87.87,0,0,1-.41.14,0,0,0,0,1-.05,0v0a.76.76,0,0,1,.22-.36,4,4,0,0,1,.3-.28,5.64,5.64,0,0,0,.55-.54,1.38,1.38,0,0,0,.3-.62c0-.24.1-.5.13-.76a6.36,6.36,0,0,0,0-1.57,10.2,10.2,0,0,0-.34-1.55l.38.11L66,40.82c-.43.4-.86.8-1.3,1.19l.1-.32A9,9,0,0,1,65,44.11a4.65,4.65,0,0,1-.69,2.37,4.39,4.39,0,0,1-2,1.5,6.79,6.79,0,0,1-2.41.33.19.19,0,0,1-.19-.2.2.2,0,0,1,.06-.14h0c.27-.25.48-.56.77-.78l.85-.68.88-.66c.29-.22.58-.44.88-.65a.07.07,0,0,1,.11,0A.08.08,0,0,1,63.26,45.31Z"/><path class="cls-3" d="M16,5c.31-.38.6-.78.88-1.19s.54-.83.77-1.25l.35.52a7,7,0,0,0-1.39.43,3.52,3.52,0,0,0-1.15.77,1.15,1.15,0,0,0-.29,1.11l.05.15.06.18.14.34c.1.23.2.46.31.68a13.52,13.52,0,0,0,1.69,2.47c.64.77,1.34,1.52,2.05,2.24a.34.34,0,0,1,0,.48c-.67.66-1.35,1.3-2.06,1.93-.35.31-.71.61-1.07.91s-.73.6-1.12.88h0a.35.35,0,0,1-.44,0,14.81,14.81,0,0,1-2-2.47,13.65,13.65,0,0,1-1.38-2.82,10.74,10.74,0,0,1-.47-1.52A3.2,3.2,0,0,1,10.83,8a2,2,0,0,1,.2-.87,3,3,0,0,1,.49-.69,5,5,0,0,1,.54-.58,9.29,9.29,0,0,1,1.26-.93.15.15,0,0,1,.2,0,.14.14,0,0,1,0,.17A13.54,13.54,0,0,0,12.41,6.2a3.47,3.47,0,0,0-.84,1.15,2.37,2.37,0,0,0,.06,1.31,11,11,0,0,0,.46,1.41,14.25,14.25,0,0,0,1.31,2.69,16.25,16.25,0,0,0,1.8,2.39l-.44,0h0c.37-.26.73-.56,1.09-.85s.71-.6,1-.9c.7-.62,1.38-1.25,2-1.9v.48c-.72-.74-1.42-1.49-2.09-2.29a14.7,14.7,0,0,1-1.77-2.6c-.12-.23-.22-.47-.33-.72L14.6,6a3.14,3.14,0,0,1-.13-.4,1.73,1.73,0,0,1,0-.93,1.86,1.86,0,0,1,.45-.8,3.9,3.9,0,0,1,1.38-.94,8.1,8.1,0,0,1,1.54-.48h0a.33.33,0,0,1,.32.53c-.32.41-.64.79-1,1.16s-.7.73-1.06,1.07a.11.11,0,0,1-.17,0A.14.14,0,0,1,16,5Z"/><path class="cls-3" d="M14.74,6.87a.44.44,0,0,1,.12.15.78.78,0,0,1,0,.7,2.24,2.24,0,0,1-.35.58,2.56,2.56,0,0,1-.61.53h0a1.74,1.74,0,0,1-.27.14,1.34,1.34,0,0,1-.8.09.92.92,0,0,1-.63-.42l0,0a.36.36,0,0,1,0-.09,1.32,1.32,0,0,1,.13-1.06,2,2,0,0,1,.75-.83,1.34,1.34,0,0,1,.86-.13,1.79,1.79,0,0,1,.83.37Zm-.53.59s0,0,0,0a1,1,0,0,0-.44-.19.66.66,0,0,0-.4,0,1.23,1.23,0,0,0-.45.52.74.74,0,0,0-.11.45v0a.22.22,0,0,0,.15.08.62.62,0,0,0,.39-.05l.16-.08A1.89,1.89,0,0,0,14,7.83,1.56,1.56,0,0,0,14.21,7.46Z"/><path class="cls-1" d="M18.17,5.65a.29.29,0,0,1-.2-.37.28.28,0,0,1,.36-.2h0A5.8,5.8,0,0,1,21.13,6.7a.29.29,0,0,1,0,.42.3.3,0,0,1-.42,0,5.36,5.36,0,0,0-2.52-1.45Z"/><path class="cls-1" d="M19.19,4.49a.3.3,0,1,1,.19-.56,5.9,5.9,0,0,1,.71.29,6.53,6.53,0,0,1,.74.44.3.3,0,0,1-.34.49,3.8,3.8,0,0,0-.66-.39A5.53,5.53,0,0,0,19.19,4.49Z"/><path class="cls-3" d="M63.55,17.07c.73.05,1.46.12,2.2.19l1.09.1c.37.05.73.08,1.09.14h0a.36.36,0,0,1,.3.41h0A13.57,13.57,0,0,1,67.31,21a18.25,18.25,0,0,1-1.48,2.8c-.56.88-1.15,1.74-1.79,2.57a16.31,16.31,0,0,1-2.12,2.35h0a.4.4,0,0,1-.38.07L57.25,27.2a.38.38,0,0,1-.22-.48.39.39,0,0,1,.14-.17h0a14.61,14.61,0,0,0,1.88-1.66,16.6,16.6,0,0,0,1.59-2,15.77,15.77,0,0,0,2.14-4.59.17.17,0,0,1,.33.08,13.19,13.19,0,0,1-.73,2.52,13.6,13.6,0,0,1-1.22,2.33,16.17,16.17,0,0,1-1.6,2.1,13.07,13.07,0,0,1-2,1.79l-.08-.65,4.3,1.57-.38.07a15.59,15.59,0,0,0,2-2.25c.62-.81,1.2-1.67,1.75-2.53a18.12,18.12,0,0,0,1.43-2.68,14.57,14.57,0,0,0,.88-2.87h0l.31.41c-.37-.05-.73-.12-1.09-.19s-.72-.14-1.08-.21l-2.15-.46a.15.15,0,0,1-.12-.18A.16.16,0,0,1,63.55,17.07Z"/><path class="cls-3" d="M65,22.68a1.32,1.32,0,0,1-.45,1,1.55,1.55,0,0,1-2.08,0,1.32,1.32,0,0,1-.45-1,1.34,1.34,0,0,1,.45-1,1.55,1.55,0,0,1,2.08,0,1.34,1.34,0,0,1,.45,1Zm-.94.45a.6.6,0,0,0,0-.91.86.86,0,0,0-1.1,0,.6.6,0,0,0,0,.91.83.83,0,0,0,1.1,0Z"/><path class="cls-1" d="M64.34,10a.35.35,0,0,1,.2-.45.36.36,0,0,1,.44.2h0a6.22,6.22,0,0,1,.37,3.64.35.35,0,0,1-.41.26.34.34,0,0,1-.26-.4A5.67,5.67,0,0,0,64.34,10Z"/><path class="cls-1" d="M66.49,13.23a.34.34,0,1,1,.68-.07,5.91,5.91,0,0,1,0,.86,5.83,5.83,0,0,1-.12,1,.34.34,0,0,1-.67-.14,5.41,5.41,0,0,0,.1-.86A4.73,4.73,0,0,0,66.49,13.23Z"/><path class="cls-3" d="M65.33,43.59a.91.91,0,0,1,.72-.46,1,1,0,0,1,.82.28.16.16,0,0,1,0,.22.15.15,0,0,1-.17,0h0a1.25,1.25,0,0,0-.59-.09,2.81,2.81,0,0,0-.6.2h0a.15.15,0,0,1-.19-.08A.14.14,0,0,1,65.33,43.59Z"/><path class="cls-1" d="M8.54,30.66a.29.29,0,1,1,0-.57h5.11a.29.29,0,0,1,0,.57Z"/><path class="cls-1" d="M13.65,30.66a.29.29,0,1,1,0-.57.25.25,0,0,0,.14-.06h0a.24.24,0,0,0,0-.14.29.29,0,1,1,.58,0,.77.77,0,0,1-.21.53l0,0A.79.79,0,0,1,13.65,30.66Z"/><path class="cls-1" d="M14.43,29.88a.29.29,0,1,1-.58,0V28.29a.29.29,0,0,1,.58,0Z"/><path class="cls-1" d="M14.43,28.29a.29.29,0,0,1-.58,0,.21.21,0,0,0-.2-.2.29.29,0,1,1,0-.58.79.79,0,0,1,.78.78Z"/><path class="cls-1" d="M13.65,27.51a.29.29,0,0,1,0,.58H8.54a.29.29,0,0,1,0-.58Z"/><path class="cls-1" d="M8.54,27.51a.29.29,0,0,1,0,.58.2.2,0,0,0-.15.06.22.22,0,0,0-.06.14.28.28,0,0,1-.28.29.29.29,0,0,1-.29-.29.79.79,0,0,1,.78-.78Z"/><path class="cls-1" d="M7.76,28.29A.29.29,0,0,1,8.05,28a.28.28,0,0,1,.28.28v1.59a.28.28,0,0,1-.28.29.29.29,0,0,1-.29-.29Z"/><path class="cls-1" d="M7.76,29.88a.29.29,0,0,1,.29-.29.28.28,0,0,1,.28.29A.21.21,0,0,0,8.4,30h0a.19.19,0,0,0,.13.05.29.29,0,1,1,0,.57A.78.78,0,0,1,8,30.45l0,0A.77.77,0,0,1,7.76,29.88Z"/><path class="cls-1" d="M6.18,28.09a.29.29,0,1,1,0-.57h5.1a.29.29,0,1,1,0,.57Z"/><path class="cls-1" d="M11.28,28.09a.29.29,0,1,1,0-.57.2.2,0,0,0,.15-.06h0a.25.25,0,0,0,.06-.15.29.29,0,1,1,.57,0,.77.77,0,0,1-.23.55h0A.75.75,0,0,1,11.28,28.09Z"/><path class="cls-1" d="M12.06,27.31a.29.29,0,1,1-.57,0V25.72a.29.29,0,0,1,.57,0Z"/><path class="cls-1" d="M12.06,25.72a.29.29,0,1,1-.57,0,.22.22,0,0,0-.06-.14.2.2,0,0,0-.15-.06.29.29,0,1,1,0-.58.77.77,0,0,1,.55.23A.79.79,0,0,1,12.06,25.72Z"/><path class="cls-1" d="M11.28,24.94a.29.29,0,0,1,0,.58H6.18a.29.29,0,1,1,0-.58Z"/><path class="cls-1" d="M6.18,24.94a.29.29,0,0,1,0,.58.2.2,0,0,0-.15.06H6a.2.2,0,0,0-.06.14.29.29,0,0,1-.29.29.28.28,0,0,1-.28-.29.78.78,0,0,1,.22-.55h0A.81.81,0,0,1,6.18,24.94Z"/><path class="cls-1" d="M5.4,25.72a.28.28,0,0,1,.28-.28.29.29,0,0,1,.29.28v1.59a.29.29,0,0,1-.29.29.28.28,0,0,1-.28-.29Z"/><path class="cls-1" d="M5.4,27.31A.28.28,0,0,1,5.68,27a.29.29,0,0,1,.29.29.2.2,0,0,0,.06.15.25.25,0,0,0,.15.06.29.29,0,0,1,0,.57.79.79,0,0,1-.78-.78Z"/><path class="cls-1" d="M11.57,30.66a.29.29,0,1,1,0-.57h4a.29.29,0,1,1,0,.57Z"/><path class="cls-1" d="M10.1,26.26a.29.29,0,0,1,0,.58h0a.29.29,0,1,1,0-.58Z"/><path class="cls-1" d="M7.51,26a.29.29,0,0,1,0,.58h0a.29.29,0,0,1,0-.58Z"/><path class="cls-1" d="M8.79,29.14a.29.29,0,1,1,0-.57h0a.29.29,0,1,1,0,.57Z"/><path class="cls-1" d="M11.38,29.43a.29.29,0,0,1-.29-.29.28.28,0,0,1,.29-.28h0a.28.28,0,0,1,.28.28.29.29,0,0,1-.28.29Z"/><path class="cls-5" d="M53.82,38.54a2.05,2.05,0,0,0-4.08-.34h-.92V36.61a2.06,2.06,0,0,0-4.11,0v1.55h-.84V35a2.21,2.21,0,0,0-4.41,0v3.13h-.74V28.76a2.2,2.2,0,1,0-4.4,0V48h-.79v-3.3a4.41,4.41,0,0,0-4.41-4.4v8.09a2.2,2.2,0,0,0,.4,1.26v0c.83,1.28,5.38,5.19,7.48,7a3.85,3.85,0,0,0,2.47.9h9a5.4,5.4,0,0,0,5.4-5.4Z"/><path class="cls-4" d="M55.09,40A2.05,2.05,0,0,0,51,39.62h-.92V38A2,2,0,1,0,46,38v1.55h-.85V36.41a2.2,2.2,0,0,0-4.4,0v3.12H40V30.17a2.21,2.21,0,0,0-4.41,0v19.2H34.8V46.08a4.4,4.4,0,0,0-4.4-4.4v8.09A2.19,2.19,0,0,0,30.79,51v0c.83,1.28,5.38,5.18,7.49,7a3.82,3.82,0,0,0,2.46.9h9a5.39,5.39,0,0,0,5.39-5.39Z"/><path class="cls-3" d="M54.72,40a1.71,1.71,0,0,0-.49-1.19h0A1.71,1.71,0,0,0,53,38.28a1.63,1.63,0,0,0-1.08.4,1.68,1.68,0,0,0-.58,1A.37.37,0,0,1,51,40h-.9a.38.38,0,0,1-.37-.37h0V38a1.71,1.71,0,0,0-.49-1.19l0,0a1.69,1.69,0,0,0-2.36,0A1.71,1.71,0,0,0,46.36,38v1.55A.38.38,0,0,1,46,40h-.85a.38.38,0,0,1-.37-.37h0V36.41a1.83,1.83,0,1,0-3.66,0v3.12a.37.37,0,0,1-.37.38H40a.37.37,0,0,1-.36-.37h0V30.17a1.83,1.83,0,1,0-3.65,0v19.2a.38.38,0,0,1-.38.38H34.8a.38.38,0,0,1-.37-.38V46.08a4,4,0,0,0-3.66-4v7.7a2,2,0,0,0,.08.55h0a1.8,1.8,0,0,0,.24.48.54.54,0,0,1,0,.11,27.46,27.46,0,0,0,3.16,3.16c1.48,1.34,3.15,2.76,4.21,3.66a3.49,3.49,0,0,0,1,.6,3.33,3.33,0,0,0,1.18.21h9a5,5,0,0,0,5-5V40Zm0-1.71h0A2.4,2.4,0,0,1,55.46,40V53.53A5.77,5.77,0,0,1,49.7,59.3h-9A4.17,4.17,0,0,1,39.3,59,4.32,4.32,0,0,1,38,58.31c-1-.89-2.71-2.3-4.23-3.68a26,26,0,0,1-3.33-3.37.3.3,0,0,1,0-.1,2.56,2.56,0,0,1-.29-.6v0a2.76,2.76,0,0,1-.12-.77V41.68a.38.38,0,0,1,.38-.38,4.78,4.78,0,0,1,4.78,4.78V49h0V30.17A2.6,2.6,0,0,1,36,28.35h0a2.58,2.58,0,0,1,3.64,0h0a2.6,2.6,0,0,1,.75,1.82v6.08a2.57,2.57,0,0,1,4.39-1.66h0a2.54,2.54,0,0,1,.76,1.82V39.2h.09V38a2.39,2.39,0,0,1,.71-1.71h0a2.41,2.41,0,0,1,3.41,0l0,0A2.43,2.43,0,0,1,50.47,38v1.21h.25a2.38,2.38,0,0,1,.75-1.13,2.4,2.4,0,0,1,3.28.14Z"/></g></g></svg>
