<svg xmlns="http://www.w3.org/2000/svg" xmlns:xlink="http://www.w3.org/1999/xlink" viewBox="0 0 38.88 39.02"><defs><style>.cls-1{fill:#e6e7e8;}.cls-2,.cls-8{fill:#fff;}.cls-3,.cls-6,.cls-8{fill-rule:evenodd;}.cls-3{fill:url(#GradientFill_2);}.cls-4{fill:none;stroke:#fff;stroke-linecap:round;stroke-miterlimit:2.61;stroke-width:1.44px;}.cls-5{opacity:0.1;}.cls-7{fill:#f37021;}</style><linearGradient id="GradientFill_2" x1="22.38" y1="7.03" x2="22.38" y2="32.77" gradientUnits="userSpaceOnUse"><stop offset="0" stop-color="#f8971d"/><stop offset="1" stop-color="#ef4123"/></linearGradient></defs><title>info</title><g id="Layer_2" data-name="Layer 2"><g id="Layer_1-2" data-name="Layer 1"><rect class="cls-1" x="10.12" y="10.26" width="28.76" height="28.76" rx="6.32" ry="6.32"/><rect class="cls-2" x="8.63" y="8.77" width="27.61" height="27.61" rx="6.07" ry="6.07"/><path class="cls-3" d="M13.41,8.18h18a5.41,5.41,0,0,1,5.4,5.4v18a5.41,5.41,0,0,1-5.4,5.4H13.41A5.41,5.41,0,0,1,8,31.53v-18a5.41,5.41,0,0,1,5.41-5.4Z"/><line class="cls-4" x1="14.87" y1="17.33" x2="29.89" y2="17.33"/><line class="cls-4" x1="14.87" y1="22.55" x2="29.89" y2="22.55"/><line class="cls-4" x1="14.87" y1="27.78" x2="29.89" y2="27.78"/><g class="cls-5"><circle cx="8.13" cy="8.13" r="7.13"/><path class="cls-6" d="M10.39,11.19a.55.55,0,0,0-.3-.52,1,1,0,0,0-.54-.08H7.62L9.39,8.47a2.79,2.79,0,0,0,.93-2,2,2,0,0,0-2.22-2A2.24,2.24,0,0,0,6.54,5a1.66,1.66,0,0,0-.61,1.2.67.67,0,0,0,.16.47.55.55,0,0,0,.47.2.64.64,0,0,0,.38-.11.91.91,0,0,0,.26-.38.9.9,0,0,1,.92-.69A.8.8,0,0,1,9,6.51a1.7,1.7,0,0,1-.51,1.15L6.23,10.4a1.12,1.12,0,0,0-.35.73.65.65,0,0,0,.18.47.88.88,0,0,0,.7.2H9.55a1,1,0,0,0,.54-.08A.57.57,0,0,0,10.39,11.19Z"/></g><circle class="cls-7" cx="7.13" cy="7.13" r="7.13"/><path class="cls-8" d="M9.39,10.19a.55.55,0,0,0-.3-.52,1,1,0,0,0-.54-.08H6.62L8.39,7.47a2.79,2.79,0,0,0,.93-2,2,2,0,0,0-2.22-2A2.24,2.24,0,0,0,5.54,4a1.66,1.66,0,0,0-.61,1.2.67.67,0,0,0,.16.47.55.55,0,0,0,.47.2.64.64,0,0,0,.38-.11.91.91,0,0,0,.26-.38.9.9,0,0,1,.92-.69A.8.8,0,0,1,8,5.51a1.7,1.7,0,0,1-.51,1.15L5.23,9.4a1.12,1.12,0,0,0-.35.73.65.65,0,0,0,.18.47.88.88,0,0,0,.7.2H8.55a1,1,0,0,0,.54-.08A.57.57,0,0,0,9.39,10.19Z"/></g></g></svg>
