<svg xmlns="http://www.w3.org/2000/svg" viewBox="0 0 87 60.67"><defs><style>.cls-1{isolation:isolate;}.cls-2{fill:#d6e2e2;}.cls-11,.cls-12,.cls-2,.cls-3,.cls-4,.cls-5,.cls-6,.cls-7,.cls-8,.cls-9{fill-rule:evenodd;}.cls-12,.cls-3,.cls-4{fill:#015e60;}.cls-3{opacity:0.4;}.cls-5{fill:#c7d7ec;}.cls-6{fill:#e4ebf7;}.cls-7{fill:#fff;}.cls-8{fill:#93b5df;}.cls-9{fill:#6b728d;}.cls-10{fill:#f37021;stroke:#fff;stroke-miterlimit:2.61;stroke-width:1.2px;}.cls-11{fill:#a1bee4;}.cls-12{opacity:0.2;mix-blend-mode:multiply;}</style></defs><title>lenddii</title><g class="cls-1"><g id="Layer_2" data-name="Layer 2"><g id="Layer_1-2" data-name="Layer 1"><path class="cls-2" d="M83.43,46c-.46,4.38-3.07,8.77-3.74,9.28s-1.89.23-2.73.23H10.2l0-.06C8.51,52.67,6.62,50,5.68,46.92,3.07,38.34,11.41,32.53,16.8,27c3.09-3.15,3.32-7.68,6-11,3.65-4.6,9.84-7,15.75-7.37,6.79-.43,12.56,1.89,16.68,7.11,3.39,4.3,5.33,11,10.66,13.54,1.91.93,4.12,1,6.2,1.57C78.84,32.58,84.12,39.22,83.43,46Z"/><path class="cls-3" d="M33.37.33A.33.33,0,0,1,33.7,0,.33.33,0,0,1,34,.33v2a.33.33,0,0,1-.33.34.34.34,0,0,1-.33-.34Z"/><path class="cls-3" d="M34.68,1a.33.33,0,0,1,.33.33.33.33,0,0,1-.33.34h-2a.34.34,0,0,1,0-.67Z"/><path class="cls-4" d="M31.15,6.25a.72.72,0,0,1-.2.49.71.71,0,0,1-1,0h0a.71.71,0,0,1,0-1h0a.67.67,0,0,1,.48-.19.68.68,0,0,1,.69.7Zm-.5.19a.27.27,0,0,0,.08-.19.24.24,0,0,0-.08-.19A.27.27,0,0,0,30.46,6a.26.26,0,0,0-.19.07h0a.24.24,0,0,0-.08.19.32.32,0,0,0,.07.19h0a.24.24,0,0,0,.19.08.27.27,0,0,0,.19-.08Z"/><path class="cls-3" d="M58.05,4.91a.25.25,0,1,1,.5,0V7a.25.25,0,0,1-.5,0Z"/><path class="cls-3" d="M59.33,5.69a.25.25,0,0,1,0,.5H57.27a.25.25,0,0,1,0-.5Z"/><path class="cls-5" d="M68.93,10.29a.76.76,0,0,1-.22.54h0a.76.76,0,0,1-1.07,0,.76.76,0,0,1-.22-.54.72.72,0,0,1,.22-.53.74.74,0,0,1,1.07,0,.72.72,0,0,1,.22.53Zm-.62.13a.19.19,0,0,0,0-.13.16.16,0,0,0-.06-.13.17.17,0,0,0-.13-.05.21.21,0,0,0-.13.05.19.19,0,0,0,0,.26.22.22,0,0,0,.13.06.18.18,0,0,0,.13-.06Z"/><path class="cls-4" d="M47.34,4.7l-.84.73a.16.16,0,0,1-.23,0l-.73-.84a.16.16,0,0,1,0-.23l.84-.73a.16.16,0,0,1,.22,0l.74.85a.15.15,0,0,1,0,.22Zm-.93.39.6-.52L46.49,4l-.6.53Z"/><path class="cls-4" d="M66,2.25l.21.74a.17.17,0,0,1-.12.2l-.74.2a.16.16,0,0,1-.19-.11l-.21-.74a.16.16,0,0,1,.12-.2l.74-.2a.15.15,0,0,1,.19.11Zm-.14.67-.12-.43-.44.12.12.43Z"/><path class="cls-6" d="M85,55.48h0Z"/><path class="cls-4" d="M85,55.33a3.29,3.29,0,0,1,.88-.09,6.36,6.36,0,0,1,.87.06c.14,0,.23.12.2.22a.24.24,0,0,1-.2.14,6.36,6.36,0,0,1-.87.06,3.29,3.29,0,0,1-.88-.09c-.12,0-.18-.12-.13-.21A.18.18,0,0,1,85,55.33Z"/><path class="cls-6" d="M5.25,55.48h0Z"/><path class="cls-4" d="M5.25,55.33c3.27-.06,6.54-.07,9.81-.07H73.94c3.28,0,6.55,0,9.82.06.15,0,.27.09.27.2s-.13.18-.27.18c-3.27.06-6.54.06-9.82.07H15.06c-3.27,0-6.54,0-9.81-.07-.12,0-.21-.07-.2-.15S5.14,55.34,5.25,55.33Z"/><path class="cls-6" d="M3.32,55.48h0Z"/><path class="cls-4" d="M3.32,55.26h.19l.06,0c.15.07.19.21.09.32l-.09.06-.06,0H3.32c-.17,0-.28-.15-.24-.27A.3.3,0,0,1,3.32,55.26Z"/><path class="cls-6" d="M.18,55.48h0Z"/><path class="cls-4" d="M.18,55.32a4.48,4.48,0,0,1,.63-.06,2.31,2.31,0,0,1,.64.05c.14,0,.21.13.17.22a.24.24,0,0,1-.17.13,2.76,2.76,0,0,1-.64,0,4.48,4.48,0,0,1-.63-.06c-.13,0-.2-.11-.17-.2A.23.23,0,0,1,.18,55.32Z"/><path class="cls-6" d="M35.46,58.39h0Z"/><path class="cls-4" d="M35.46,58.24c1-.06,2-.07,3.07-.07l3.06,0,6.13,0H56.9c1,0,2.05,0,3.07.07.15,0,.26.1.25.21s-.12.16-.25.17c-1,.06-2,.06-3.07.07H47.72l-6.13,0H38.53c-1,0-2.05,0-3.07-.07-.11,0-.2-.08-.19-.16S35.36,58.25,35.46,58.24Z"/><path class="cls-6" d="M25.38,58.39h0Z"/><path class="cls-4" d="M25.38,58.23c1.05,0,2.09,0,3.14-.06s2.09,0,3.14,0c.14,0,.25.09.24.19a.22.22,0,0,1-.24.16c-1.05,0-2.09,0-3.14,0s-2.09,0-3.14-.06c-.12,0-.22-.08-.21-.17S25.27,58.24,25.38,58.23Z"/><path class="cls-7" d="M35.85,14.4v36a5,5,0,0,1-5,5H15.74a5,5,0,0,1-4.8-3.58c-.13-.45-.2-22.83-.2-30.89,0-6.55,0-7.06.07-7.33v0A5,5,0,0,1,15.74,9.4H30.86a5,5,0,0,1,4.92,4.15A4.8,4.8,0,0,1,35.85,14.4Z"/><path class="cls-2" d="M36.14,49.8v.67a5,5,0,0,1-5,5H16a5,5,0,0,1-4.79-3.59V49.8Z"/><path class="cls-2" d="M35.78,13.55h-25A5,5,0,0,1,15.73,9.4H30.86A5,5,0,0,1,35.78,13.55Z"/><path class="cls-4" d="M36,29.31c.21,2.91.13,5.83.15,8.74v12a6.4,6.4,0,0,1-.07,1.14A5.28,5.28,0,0,1,33.6,55a5.37,5.37,0,0,1-2.2.74l-.58,0H16.07a7.45,7.45,0,0,1-1.14-.06,5.75,5.75,0,0,1-1.13-.31,5.37,5.37,0,0,1-3.12-3.27A5.43,5.43,0,0,1,10.43,51a5.78,5.78,0,0,1,0-.58V34.53a8.87,8.87,0,0,1,.16-2.18.16.16,0,0,1,.32,0,8.87,8.87,0,0,1,.16,2.18V50.38c0,.17,0,.34,0,.5a4.82,4.82,0,0,0,.22,1,4.7,4.7,0,0,0,1,1.72,4.63,4.63,0,0,0,1.68,1.12A4.89,4.89,0,0,0,15,55a5.08,5.08,0,0,0,1,.05H30.82a4.24,4.24,0,0,0,.51,0,4.64,4.64,0,0,0,1.92-.63A4.87,4.87,0,0,0,34.72,53a4.78,4.78,0,0,0,.74-1.88,5.9,5.9,0,0,0,0-1v-12c0-2.91-.06-5.83.15-8.74a.18.18,0,0,1,.19-.17A.18.18,0,0,1,36,29.31Z"/><path class="cls-4" d="M10.56,27.51c-.06-1.15-.09-2.3-.13-3.45s0-2.3,0-3.45V14.13c0-.16,0-.31.05-.46a5.3,5.3,0,0,1,1.67-3.2,5.41,5.41,0,0,1,1.54-1,5.19,5.19,0,0,1,1.78-.41H31a5.26,5.26,0,0,1,1.8.37,5.32,5.32,0,0,1,2.72,2.38,5.22,5.22,0,0,1,.59,1.73,5.58,5.58,0,0,1,.07.91v9.49A6.27,6.27,0,0,1,36,25.66a.17.17,0,0,1-.2.12.18.18,0,0,1-.12-.12,6.27,6.27,0,0,1-.16-1.72V14.45a5.29,5.29,0,0,0-.06-.8,4.83,4.83,0,0,0-.53-1.52,4.73,4.73,0,0,0-2.38-2.07A4.66,4.66,0,0,0,31,9.75H15.49a4.38,4.38,0,0,0-1.56.35,4.59,4.59,0,0,0-1.35.87,4.68,4.68,0,0,0-1.47,2.79,2.69,2.69,0,0,0,0,.4c0,.13,0,.27,0,.42v6c0,1.15,0,2.3,0,3.45s-.08,2.3-.13,3.45a.19.19,0,0,1-.19.18A.18.18,0,0,1,10.56,27.51Z"/><path class="cls-4" d="M21.61,11.35a6.61,6.61,0,0,1,.88-.11c.29,0,.59,0,.88,0a14.72,14.72,0,0,1,1.76.12.22.22,0,0,1,.18.23.21.21,0,0,1-.18.17,12.91,12.91,0,0,1-1.76.13c-.29,0-.59,0-.88,0a5.29,5.29,0,0,1-.88-.11.21.21,0,0,1-.16-.24A.22.22,0,0,1,21.61,11.35Z"/><path class="cls-4" d="M24.77,53.47a1.51,1.51,0,0,1-.88.78,1.83,1.83,0,0,1-1.22,0,1.91,1.91,0,0,1-.93-.8,1.82,1.82,0,0,1-.23-1.19,1.86,1.86,0,0,1,.54-1.08,1.93,1.93,0,0,1,1.08-.5,1.73,1.73,0,0,1,1.13.26,1.66,1.66,0,0,1,.67.9.12.12,0,0,1-.09.14.11.11,0,0,1-.13,0h0a1.47,1.47,0,0,0-1.51-.74,1.28,1.28,0,0,0-1.07,1.14,1.28,1.28,0,0,0,.79,1.3,1.06,1.06,0,0,0,.39.09,1.42,1.42,0,0,0,.41,0,1.77,1.77,0,0,0,.78-.38h0a.17.17,0,0,1,.24,0A.17.17,0,0,1,24.77,53.47Z"/><path class="cls-4" d="M33.29,49.64a8.72,8.72,0,0,1,1.25-.16c.41,0,.83,0,1.24,0a.33.33,0,0,1,0,.65c-.41,0-.83,0-1.24,0A8.72,8.72,0,0,1,33.29,50a.16.16,0,0,1-.12-.19A.18.18,0,0,1,33.29,49.64Z"/><path class="cls-4" d="M29,49.66a.79.79,0,0,1,.35-.13.3.3,0,0,1,.34.1.26.26,0,0,1,0,.33.3.3,0,0,1-.34.1.79.79,0,0,1-.35-.13.17.17,0,0,1,0-.23Z"/><path class="cls-4" d="M10.77,49.47c2.73,0,5.46,0,8.19,0l4.09,0a26.7,26.7,0,0,1,4.09.21.12.12,0,0,1,.1.15.13.13,0,0,1-.1.1,26.7,26.7,0,0,1-4.09.21l-4.09,0c-2.73,0-5.46,0-8.19,0a.33.33,0,0,1,0-.65Z"/><path class="cls-4" d="M13.61,13.46c1.85-.17,3.7-.15,5.55-.17l5.54,0h5.54l5.54,0a.33.33,0,0,1,.33.33.32.32,0,0,1-.33.32l-5.54,0H24.7l-5.54,0c-1.85,0-3.7,0-5.55-.17a.14.14,0,0,1-.13-.15A.15.15,0,0,1,13.61,13.46Z"/><path class="cls-7" d="M77.62,13.77V54.6A5.67,5.67,0,0,1,72,60.27H54.8a5.66,5.66,0,0,1-5.44-4.07c-.15-.5-.23-25.89-.23-35,0-7.43,0-8,.08-8.31v0A5.67,5.67,0,0,1,54.8,8.11H72a5.66,5.66,0,0,1,5.59,4.71A6,6,0,0,1,77.62,13.77Z"/><path class="cls-2" d="M78,54v.75a5.67,5.67,0,0,1-5.67,5.67H55.13a5.67,5.67,0,0,1-5.44-4.07V54Z"/><path class="cls-2" d="M77.54,12.82H49.21A5.67,5.67,0,0,1,54.8,8.11H72A5.66,5.66,0,0,1,77.54,12.82Z"/><path class="cls-4" d="M77.83,30.69c.23,3.31.15,6.61.16,9.92V54.25a7.12,7.12,0,0,1-.07,1.29A6,6,0,0,1,77,58a6.08,6.08,0,0,1-1.9,1.81,6.17,6.17,0,0,1-2.49.83l-.66,0H55.18a7.12,7.12,0,0,1-1.29-.07,5.62,5.62,0,0,1-1.28-.34,6,6,0,0,1-2.18-1.46,5.92,5.92,0,0,1-1.36-2.25,5.61,5.61,0,0,1-.29-1.29q0-.33,0-.66v-18A10.37,10.37,0,0,1,49,34.14a.19.19,0,0,1,.23-.13.19.19,0,0,1,.13.13,9.88,9.88,0,0,1,.18,2.48v18a5.49,5.49,0,0,0,0,.58,5,5,0,0,0,.25,1.13,5,5,0,0,0,1.19,2,5.23,5.23,0,0,0,1.9,1.28,6,6,0,0,0,1.11.29,7.58,7.58,0,0,0,1.18.06H71.92l.58,0a5.28,5.28,0,0,0,2.17-.73,5.44,5.44,0,0,0,1.67-1.57,5.35,5.35,0,0,0,.83-2.14,6.35,6.35,0,0,0,.07-1.17V40.61c0-3.31-.07-6.61.16-9.92a.21.21,0,0,1,.42,0Z"/><path class="cls-4" d="M48.92,28.66c-.06-1.31-.1-2.61-.14-3.92s0-2.61,0-3.91V13.47c0-.17,0-.35.05-.52A6.06,6.06,0,0,1,52.45,8.2a6.19,6.19,0,0,1,2-.47H72.12a5.94,5.94,0,0,1,2,.42,6.06,6.06,0,0,1,3.76,4.66,7.28,7.28,0,0,1,.08,1V24.6a6.86,6.86,0,0,1-.18,2,.19.19,0,0,1-.23.13.21.21,0,0,1-.13-.13,7.24,7.24,0,0,1-.18-2V13.84a5.62,5.62,0,0,0-.07-.92,5.19,5.19,0,0,0-.59-1.71,5.34,5.34,0,0,0-2.7-2.35A5.18,5.18,0,0,0,72.1,8.5H54.52a5.36,5.36,0,0,0-1.77.4,5.47,5.47,0,0,0-1.53,1,5.29,5.29,0,0,0-1.66,3.17,3.59,3.59,0,0,0-.05.46c0,.15,0,.3,0,.47v6.85c0,1.3,0,2.61,0,3.91s-.08,2.61-.14,3.92a.2.2,0,0,1-.22.19A.21.21,0,0,1,48.92,28.66Z"/><path class="cls-4" d="M61.47,10.32a6.69,6.69,0,0,1,1-.12c.34,0,.67,0,1,0a16.65,16.65,0,0,1,2,.13.23.23,0,0,1,.2.26.24.24,0,0,1-.2.2,16.66,16.66,0,0,1-2,.14c-.33,0-.66,0-1,0a6.69,6.69,0,0,1-1-.12.23.23,0,0,1-.18-.28A.24.24,0,0,1,61.47,10.32Z"/><path class="cls-4" d="M65.05,58.11a1.67,1.67,0,0,1-1,.87,2,2,0,0,1-1.38,0,2.1,2.1,0,0,1,.52-4,2,2,0,0,1,1.28.3,1.83,1.83,0,0,1,.76,1,.13.13,0,0,1-.1.16.12.12,0,0,1-.14-.06h0a1.7,1.7,0,0,0-1.73-.84,1.48,1.48,0,0,0-.83.45,1.45,1.45,0,0,0-.37.85A1.43,1.43,0,0,0,63,58.24a1,1,0,0,0,.45.1,1.43,1.43,0,0,0,.46,0,2.06,2.06,0,0,0,.88-.43h0a.18.18,0,0,1,.27,0A.18.18,0,0,1,65.05,58.11Z"/><path class="cls-4" d="M74.71,53.77a8.79,8.79,0,0,1,1.42-.19,11.2,11.2,0,0,1,1.42,0,.37.37,0,0,1,0,.73,11.2,11.2,0,0,1-1.42,0,10,10,0,0,1-1.42-.18.19.19,0,0,1-.13-.21A.17.17,0,0,1,74.71,53.77Z"/><path class="cls-4" d="M69.83,53.79a1.08,1.08,0,0,1,.39-.16c.13,0,.26-.05.39.11a.3.3,0,0,1,0,.39c-.13.16-.26.12-.39.11a.81.81,0,0,1-.39-.16.17.17,0,0,1,0-.25A.1.1,0,0,1,69.83,53.79Z"/><path class="cls-4" d="M49.17,53.57c3.09,0,6.19,0,9.28,0l4.65,0a30.12,30.12,0,0,1,4.64.23.15.15,0,0,1,.12.17.15.15,0,0,1-.12.12,30.12,30.12,0,0,1-4.64.23l-4.65,0c-3.09,0-6.19,0-9.28-.05a.35.35,0,0,1-.36-.37A.36.36,0,0,1,49.17,53.57Z"/><path class="cls-4" d="M52.39,12.72c2.1-.2,4.19-.18,6.29-.2l6.29,0h6.29l6.29,0a.37.37,0,0,1,0,.74l-6.29,0H65l-6.29,0c-2.1,0-4.19,0-6.29-.19a.17.17,0,0,1-.15-.18A.18.18,0,0,1,52.39,12.72Z"/><path class="cls-8" d="M55.75,18.19c0,.16,0,.31-.07.47Z"/><path class="cls-7" d="M54,17.78,65,17.69Z"/><path class="cls-4" d="M54,17.59a15.82,15.82,0,0,1,2.75-.18l2.77,0,2.77,0c.92,0,1.85,0,2.77.06.32,0,.55.12.52.24s-.23.18-.5.19c-.91.05-1.84.08-2.76.11l-2.76.06-2.76,0A17.27,17.27,0,0,1,54,18c-.28,0-.41-.16-.3-.27A.61.61,0,0,1,54,17.59Z"/><path class="cls-7" d="M54.06,19.34l14.29-.12Z"/><path class="cls-4" d="M54.05,19.16A35.28,35.28,0,0,1,57.62,19l3.57,0h3.57c1.19,0,2.39,0,3.58,0,.32,0,.56.1.55.22s-.24.2-.53.21l-3.57.08c-1.19,0-2.38.05-3.57.06l-3.57,0c-1.19,0-2.38,0-3.58-.08-.28,0-.46-.12-.4-.23A.5.5,0,0,1,54.05,19.16Z"/><path class="cls-7" d="M67.29,17.67l5.11,0Z"/><path class="cls-4" d="M67.28,17.48a10.87,10.87,0,0,1,1.28-.06h1.27c.85,0,1.71,0,2.56,0,.32,0,.56.11.55.23s-.24.19-.53.2c-.85,0-1.7,0-2.55.05H68.58a11,11,0,0,1-1.28,0c-.28,0-.44-.14-.37-.24A.54.54,0,0,1,67.28,17.48Z"/><path class="cls-7" d="M54,25,65,24.91Z"/><path class="cls-4" d="M54,24.81a15.82,15.82,0,0,1,2.75-.18l2.77,0,2.77,0c.92,0,1.85,0,2.77.06.32,0,.55.12.52.24s-.23.18-.5.19c-.91.05-1.84.08-2.76.11s-1.84.05-2.76.06l-2.76,0A17.27,17.27,0,0,1,54,25.19c-.28,0-.41-.16-.3-.27A.61.61,0,0,1,54,24.81Z"/><path class="cls-7" d="M54.06,26.56l14.29-.12Z"/><path class="cls-7" d="M67.29,24.89l5.11,0Z"/><path class="cls-4" d="M67.28,24.7a10.87,10.87,0,0,1,1.28-.06l1.27,0h2.56c.32,0,.56.11.55.23s-.24.19-.53.2c-.85,0-1.7,0-2.55.05H68.58c-.42,0-.85,0-1.28,0-.28,0-.44-.14-.37-.24A.54.54,0,0,1,67.28,24.7Z"/><path class="cls-7" d="M54,32.22,65,32.13Z"/><path class="cls-4" d="M54,32a15.82,15.82,0,0,1,2.75-.18l2.77,0,2.77,0c.92,0,1.85,0,2.77.06.32,0,.55.12.52.24s-.23.18-.5.19c-.91,0-1.84.08-2.76.11l-2.76.06-2.76,0A17.27,17.27,0,0,1,54,32.41c-.28,0-.41-.16-.3-.27A.61.61,0,0,1,54,32Z"/><path class="cls-7" d="M54.06,33.78l14.29-.12Z"/><path class="cls-4" d="M54.05,33.6a35.28,35.28,0,0,1,3.57-.14l3.57,0h3.57l3.58,0c.32,0,.56.1.55.22s-.24.2-.53.21L64.79,34,61.22,34l-3.57,0c-1.19,0-2.38,0-3.58-.08-.28,0-.46-.12-.4-.23A.5.5,0,0,1,54.05,33.6Z"/><path class="cls-7" d="M67.29,32.11l5.11,0Z"/><path class="cls-4" d="M67.28,31.92a10.87,10.87,0,0,1,1.28-.06h1.27c.85,0,1.71,0,2.56,0,.32,0,.56.11.55.23s-.24.19-.53.2c-.85,0-1.7,0-2.55,0H68.58a11,11,0,0,1-1.28,0c-.28,0-.44-.14-.37-.24A.54.54,0,0,1,67.28,31.92Z"/><path class="cls-8" d="M16.65,18.29a2.9,2.9,0,0,0-.06.41Z"/><path class="cls-7" d="M15.08,17.93l9.75-.08Z"/><path class="cls-4" d="M15.07,17.76a14,14,0,0,1,2.43-.16c.81,0,1.62,0,2.44,0h2.44l2.44.06c.28,0,.49.1.46.2s-.21.16-.44.17c-.81,0-1.62.07-2.43.1L20,18.19l-2.44,0a14.32,14.32,0,0,1-2.44-.13c-.25,0-.37-.14-.27-.23A.48.48,0,0,1,15.07,17.76Z"/><path class="cls-7" d="M15.16,19.3l12.59-.1Z"/><path class="cls-4" d="M15.15,19.14c1-.1,2.09-.12,3.14-.13l3.15,0h3.15l3.15,0c.28,0,.5.09.49.2s-.21.17-.46.18l-3.15.07-3.15.05-3.15,0c-1.05,0-2.1,0-3.15-.07-.25,0-.4-.11-.35-.2S15,19.15,15.15,19.14Z"/><path class="cls-7" d="M26.82,17.83l4.51,0Z"/><path class="cls-9" d="M26.81,17.66a10.68,10.68,0,0,1,1.13-.05h1.12q1.13,0,2.25,0c.28,0,.5.09.49.2s-.21.17-.46.18c-.75,0-1.5,0-2.25,0H28a8.6,8.6,0,0,1-1.13,0c-.24,0-.39-.12-.32-.21A.47.47,0,0,1,26.81,17.66Z"/><path class="cls-7" d="M15.08,24.29l9.75-.08Z"/><path class="cls-4" d="M15.07,24.12A14,14,0,0,1,17.5,24h2.44c.81,0,1.62,0,2.44,0S24,24,24.82,24c.28,0,.49.1.46.21s-.21.16-.44.17q-1.21.06-2.43.09c-.81,0-1.63.05-2.44.06l-2.44,0a15.4,15.4,0,0,1-2.44-.12c-.25,0-.37-.15-.27-.24A.59.59,0,0,1,15.07,24.12Z"/><path class="cls-7" d="M15.16,25.67l12.59-.11Z"/><path class="cls-4" d="M15.15,25.5c1-.1,2.09-.12,3.14-.12l3.15,0h3.15l3.15,0c.28,0,.5.09.49.2s-.21.18-.46.18l-3.15.08-3.15,0-3.15,0c-1.05,0-2.1,0-3.15-.07-.25,0-.4-.11-.35-.2S15,25.52,15.15,25.5Z"/><path class="cls-7" d="M26.82,24.19l4.51,0Z"/><path class="cls-9" d="M26.81,24A8.56,8.56,0,0,1,27.94,24h1.12c.75,0,1.5,0,2.25,0,.28,0,.5.09.49.19s-.21.18-.46.18c-.75,0-1.5,0-2.25.05H28a10.76,10.76,0,0,1-1.13,0c-.24,0-.39-.12-.32-.21A.42.42,0,0,1,26.81,24Z"/><path class="cls-7" d="M15.08,30.65l9.75-.08Z"/><path class="cls-4" d="M15.07,30.49a15.11,15.11,0,0,1,2.43-.17h2.44l2.44,0,2.44.05c.28,0,.49.11.46.21s-.21.16-.44.17l-2.43.1L20,30.91c-.81,0-1.62,0-2.44,0a13.35,13.35,0,0,1-2.44-.12c-.25,0-.37-.14-.27-.24A.6.6,0,0,1,15.07,30.49Z"/><path class="cls-7" d="M15.16,32l12.59-.1Z"/><path class="cls-4" d="M15.15,31.87c1-.1,2.09-.12,3.14-.13l3.15,0h3.15c1.05,0,2.1,0,3.15,0,.28,0,.5.09.49.19s-.21.18-.46.19l-3.15.07-3.15.05-3.15,0c-1.05,0-2.1,0-3.15-.07-.25,0-.4-.11-.35-.2S15,31.88,15.15,31.87Z"/><path class="cls-7" d="M26.82,30.56l4.51,0Z"/><path class="cls-4" d="M26.81,30.39c.38,0,.75-.05,1.13-.06h3.37c.28,0,.5.09.49.2s-.21.17-.46.18l-2.25,0H28a10.76,10.76,0,0,1-1.13,0c-.24,0-.39-.12-.32-.21A.47.47,0,0,1,26.81,30.39Z"/><circle class="cls-10" cx="63.38" cy="37.81" r="7.7"/><path class="cls-7" d="M61.88,40.4l.91-.53v1.27a1.33,1.33,0,0,0,.08.6.58.58,0,0,0,.51.27.59.59,0,0,0,.5-.26,1.26,1.26,0,0,0,.08-.61V39.2l1.2-.69c.64-.37.26-1.28-.29-1l-.91.52v-.63l1.2-.69c.57-.33.29-1.29-.29-1l-.91.52V35.12H66a1.18,1.18,0,0,0,.53-.06.53.53,0,0,0,0-.86,1.33,1.33,0,0,0-.53-.06H60.73a1.35,1.35,0,0,0-.53.06.53.53,0,0,0,0,.86,1.21,1.21,0,0,0,.53.06h2.06V37l-1.19.69c-.62.35-.25,1.27.28,1l.91-.52v.63l-1.19.69C61,39.8,61.37,40.7,61.88,40.4Z"/><path class="cls-11" d="M44,18.13a.63.63,0,0,1-.18.44.6.6,0,0,1-.44.19.62.62,0,0,1-.45-.19h0a.63.63,0,0,1,0-.88.62.62,0,0,1,.45-.19.6.6,0,0,1,.44.19.63.63,0,0,1,.18.44Zm-.48.14a.19.19,0,0,0,0-.28.2.2,0,0,0-.14-.06.2.2,0,0,0-.15.34h0a.2.2,0,0,0,.15.06A.2.2,0,0,0,43.47,18.27Z"/><path class="cls-12" d="M35.85,17.94V28.18H31.49l-3,2.75,0-2.75H26.65a1.59,1.59,0,0,1-1.59-1.59V19.53a1.59,1.59,0,0,1,1.59-1.59Z"/><path class="cls-7" d="M60.64,21.43V25a1.59,1.59,0,0,1-1.59,1.59H31.49l-3,2.74,0-2.74H26.65A1.59,1.59,0,0,1,25.06,25V17.93a1.59,1.59,0,0,1,1.59-1.59h32.4a1.59,1.59,0,0,1,1.59,1.59v3.5Z"/><path class="cls-4" d="M60.74,21.43A7.24,7.24,0,0,1,60.86,23v2a1.83,1.83,0,0,1-.07.46,2,2,0,0,1-.48.79,1.83,1.83,0,0,1-.8.46,1.76,1.76,0,0,1-.46.06H31.49l.16-.07-3,2.74a.25.25,0,0,1-.36,0,.27.27,0,0,1-.06-.17l0-2.74.25.26h-2a1.84,1.84,0,0,1-1.62-1.39,1.67,1.67,0,0,1-.06-.38v-1l0-5.23v-.66c0-.11,0-.2,0-.34a1.57,1.57,0,0,1,.05-.37,1.89,1.89,0,0,1,.92-1.18,1.76,1.76,0,0,1,.73-.22H58.55a5.39,5.39,0,0,1,.69,0,1.87,1.87,0,0,1,1.57,1.44,2.33,2.33,0,0,1,0,.37c0,.12,0,.22,0,.33a3,3,0,0,1-.11.66.13.13,0,0,1-.17.08.14.14,0,0,1-.09-.08,3.79,3.79,0,0,1-.11-.66c0-.1,0-.22,0-.32a1.33,1.33,0,0,0,0-.28,1.32,1.32,0,0,0-.63-.86,1.2,1.2,0,0,0-.52-.18,6.14,6.14,0,0,0-.62,0H44.17l-10.46,0H26.54a1.35,1.35,0,0,0-1.16,1,2.51,2.51,0,0,0,0,.27v6.85c0,.11,0,.23,0,.32a1.24,1.24,0,0,0,0,.27,1.36,1.36,0,0,0,.65.85,1.32,1.32,0,0,0,.52.16h1.93a.26.26,0,0,1,.26.25h0l0,2.74-.42-.19,3.05-2.74a.22.22,0,0,1,.17-.07H59a1,1,0,0,0,.33,0A1.29,1.29,0,0,0,60,26a1.31,1.31,0,0,0,.34-.58,1.28,1.28,0,0,0,.06-.33V23a7.89,7.89,0,0,1,.12-1.61.15.15,0,0,1,.18-.11A.13.13,0,0,1,60.74,21.43Z"/><path class="cls-2" d="M44,24V22.89a.28.28,0,0,0-.28-.29H39.82a.4.4,0,0,1-.39-.41V20.62a.4.4,0,0,1,.39-.41H43.7a.28.28,0,0,0,.28-.29V18.8a.33.33,0,0,1,.53-.27L47.34,21a.61.61,0,0,1,0,.91l-2.83,2.42A.33.33,0,0,1,44,24Z"/><path class="cls-4" d="M41.2,20.51a.3.3,0,0,1,0-.6h0a.3.3,0,0,1,0,.6Z"/><path class="cls-4" d="M42.35,20.51a.3.3,0,0,1,0-.6H43.7a.3.3,0,0,1,0,.6Z"/><path class="cls-4" d="M43.7,20.51a.29.29,0,0,1-.28-.3.3.3,0,0,1,.28-.3.29.29,0,0,1,.28-.29.28.28,0,0,1,.28.3.63.63,0,0,1-.16.42A.57.57,0,0,1,43.7,20.51Z"/><path class="cls-4" d="M44.26,19.92a.28.28,0,1,1-.56,0V18.8a.28.28,0,1,1,.56,0Z"/><path class="cls-4" d="M44.26,18.8a.28.28,0,1,1-.56,0,.69.69,0,0,1,.13-.41.91.91,0,0,1,.21-.18h0a.69.69,0,0,1,.24-.05.59.59,0,0,1,.38.15.31.31,0,0,1,0,.42.26.26,0,0,1-.39,0h-.07A0,0,0,0,0,44.26,18.8Z"/><path class="cls-4" d="M44.34,18.76a.31.31,0,0,1-.05-.42.27.27,0,0,1,.4,0l2.82,2.42a.32.32,0,0,1,.05.42.28.28,0,0,1-.4.05Z"/><path class="cls-4" d="M47.16,21.19a.32.32,0,0,1,0-.43.27.27,0,0,1,.39,0,.8.8,0,0,1,.13.13.93.93,0,0,1,.18.55,1,1,0,0,1-.18.56,1.59,1.59,0,0,1-.13.13.27.27,0,0,1-.39-.05.31.31,0,0,1,0-.42l0,0a.28.28,0,0,0,.06-.18.27.27,0,0,0-.06-.17A.08.08,0,0,0,47.16,21.19Z"/><path class="cls-4" d="M47.16,21.62a.28.28,0,0,1,.4.05.32.32,0,0,1-.05.42l-2.82,2.42a.27.27,0,0,1-.4,0,.31.31,0,0,1,.05-.42Z"/><path class="cls-4" d="M44.34,24.05a.26.26,0,0,1,.39,0,.31.31,0,0,1,0,.42.59.59,0,0,1-.38.15.68.68,0,0,1-.27-.07.6.6,0,0,1-.21-.18.66.66,0,0,1-.13-.4.28.28,0,1,1,.56,0,0,0,0,0,0,0,0h.07Z"/><path class="cls-4" d="M44.26,24a.28.28,0,1,1-.56,0V22.89a.28.28,0,1,1,.56,0Z"/><path class="cls-4" d="M44.26,22.89a.28.28,0,0,1-.28.3.29.29,0,0,1-.28-.29.3.3,0,0,1-.28-.3.29.29,0,0,1,.28-.3.54.54,0,0,1,.4.17h0A.63.63,0,0,1,44.26,22.89Z"/><path class="cls-4" d="M43.7,22.3a.29.29,0,0,1,.29.3.3.3,0,0,1-.29.3H39.82a.29.29,0,0,1-.28-.3.28.28,0,0,1,.28-.3Z"/><path class="cls-4" d="M39.82,22.3a.29.29,0,0,1,.28.3.3.3,0,0,1-.28.3.63.63,0,0,1-.47-.21.73.73,0,0,1-.2-.5.29.29,0,1,1,.57,0,.11.11,0,0,0,0,.08A.08.08,0,0,0,39.82,22.3Z"/><path class="cls-4" d="M39.72,22.19a.29.29,0,1,1-.57,0V20.62a.29.29,0,1,1,.57,0Z"/><path class="cls-4" d="M39.72,20.62a.29.29,0,1,1-.57,0,.73.73,0,0,1,.2-.5h0a.63.63,0,0,1,.47-.21.3.3,0,0,1,0,.6.08.08,0,0,0-.07,0h0A.19.19,0,0,0,39.72,20.62Z"/><path class="cls-4" d="M39.82,20.51a.3.3,0,0,1,0-.6h.58a.3.3,0,0,1,0,.6Z"/><circle class="cls-10" cx="23.3" cy="37.81" r="7.7"/><path class="cls-7" d="M21.8,40.4l.91-.53v1.27a1.33,1.33,0,0,0,.08.6.57.57,0,0,0,.5.27.59.59,0,0,0,.51-.26,1.39,1.39,0,0,0,.08-.61V39.2l1.2-.69c.64-.37.26-1.28-.29-1l-.91.52v-.63l1.2-.69c.57-.33.28-1.29-.29-1l-.91.52V35.12h2.06a1.18,1.18,0,0,0,.53-.06.53.53,0,0,0,0-.86,1.33,1.33,0,0,0-.53-.06H20.65a1.33,1.33,0,0,0-.53.06.53.53,0,0,0,0,.86,1.18,1.18,0,0,0,.53.06h2.06V37l-1.2.69c-.61.35-.25,1.27.29,1l.91-.52v.63l-1.2.69C20.88,39.8,21.28,40.7,21.8,40.4Z"/></g></g></g></svg>
