<svg xmlns="http://www.w3.org/2000/svg" viewBox="0 0 54.24 74.2"><defs><style>.cls-1{fill:#d6e2e2;}.cls-2,.cls-3,.cls-7{fill:none;}.cls-2,.cls-7{stroke:#fff;stroke-miterlimit:2.61;}.cls-2{stroke-width:2.4px;}.cls-2,.cls-3,.cls-5,.cls-6,.cls-7{fill-rule:evenodd;}.cls-4,.cls-5{fill:#fff;}.cls-6{fill:#f37021;}.cls-7{stroke-width:1.92px;}</style></defs><title>qraartolokh</title><g id="Layer_2" data-name="Layer 2"><g id="Layer_1-2" data-name="Layer 1"><rect class="cls-1" y="21.63" width="54.24" height="52.57" rx="10.01" ry="10.01"/><path class="cls-2" d="M15.31,1.2H38.92c2.87,0,5.21,2,5.21,4.52v9.33a.56.56,0,0,1,.6.51v4a.56.56,0,0,1-.6.52V61.92c0,2.48-2.35,4.52-5.21,4.52H15.31c-2.86,0-5.21-2-5.21-4.52V26.12a.57.57,0,0,1-.59-.52v-4a.56.56,0,0,1,.59-.52v-1a.56.56,0,0,1-.59-.51v-4A.56.56,0,0,1,10.1,15V5.72C10.1,3.23,12.45,1.2,15.31,1.2Z"/><path class="cls-3" d="M15.31,1.2H38.92c2.87,0,5.21,2,5.21,4.52v9.33a.56.56,0,0,1,.6.51v4a.56.56,0,0,1-.6.52V61.92c0,2.48-2.35,4.52-5.21,4.52H15.31c-2.86,0-5.21-2-5.21-4.52V26.12a.57.57,0,0,1-.59-.52v-4a.56.56,0,0,1,.59-.52v-1a.56.56,0,0,1-.59-.51v-4A.56.56,0,0,1,10.1,15V5.72C10.1,3.23,12.45,1.2,15.31,1.2Z"/><rect class="cls-4" x="11.34" y="10.35" width="31.55" height="44.58"/><path class="cls-5" d="M27.12,63.84a3.33,3.33,0,1,0-3.34-3.33A3.34,3.34,0,0,0,27.12,63.84Z"/><path class="cls-6" d="M35.69,30.6l-.94-.35A8.46,8.46,0,0,0,35.38,27h1a10,10,0,0,1-.68,3.61Zm-3.47-8.67a6.53,6.53,0,0,1,1.09,1.43,4.62,4.62,0,0,1-.83.47l-.92-1.26.66-.64ZM32,36.11l1.26,1.19,4.11,0-6.78-6.65a5.14,5.14,0,1,1-.33-7.75A5.38,5.38,0,0,1,32,25.55l4-1.1.23,1.21-4.07.57a8.18,8.18,0,0,1-.2,2.1l1.05.37A7.66,7.66,0,0,0,33.34,27l1,0a8.27,8.27,0,0,1-.57,2.87c.42.19.54.23,1,.44l-.89,1.49a3.52,3.52,0,0,0,.82.56,8.36,8.36,0,0,0,1-1.63l.9.32A9.58,9.58,0,0,0,37.46,27h-1l-.15-1.27c.3,0,.67-.1,1-.13A7.05,7.05,0,0,0,36.59,23l-1.83.71A12.88,12.88,0,0,0,33,21.08a4,4,0,0,0,.58-.58,14.27,14.27,0,0,1,1.6,1.84,3.44,3.44,0,0,1,.85-.39,8.34,8.34,0,0,0-2.67-3.16,10.35,10.35,0,0,0-16.07,4.74,10.61,10.61,0,0,0,1.13,9.17,10.37,10.37,0,0,0,1.8,2.08c2.61,1.95,5.22,3.06,8.86,2.36A21.07,21.07,0,0,0,32,36.11Z"/><path class="cls-6" d="M32.13,30.55a2.63,2.63,0,0,0,.66-1.11l-1-.41a3,3,0,0,1-.43,1C31.62,30.22,31.89,30.37,32.13,30.55Z"/><path class="cls-7" d="M36.65,49.2,42,57l.33-.23L39.49,52.6c-.68-1,1.12-2.11,1.74-1.2l3.37,4.89a4,4,0,0,0,.34-.23l-3-4.31c-.77-1.12,1-2.23,1.74-1.2l3,4.31.3-.2L45.56,52.6a.84.84,0,1,1,1.39-1l2.91,4.23c1.27,2.13,2.64,3.88,2.68,5.53s-2.7,4.53-4.3,5.2a6.71,6.71,0,0,1-4.38.18c-2.63-.84-6.09-4.93-8-7a1.06,1.06,0,0,1,1.5-1.5c.24.2,3.42,3.35,3.42,3.35a.68.68,0,0,0,1,0c.44-.52-.18-1.21-.18-1.21L35.07,50.31C34.31,49,35.87,48,36.65,49.2Z"/><path class="cls-3" d="M36.65,49.2,42,57l.33-.23L39.49,52.6c-.68-1,1.12-2.11,1.74-1.2l3.37,4.89a4,4,0,0,0,.34-.23l-3-4.31c-.77-1.12,1-2.23,1.74-1.2l3,4.31.3-.2L45.56,52.6a.84.84,0,1,1,1.39-1l2.91,4.23c1.27,2.13,2.64,3.88,2.68,5.53s-2.7,4.53-4.3,5.2a6.71,6.71,0,0,1-4.38.18c-2.63-.84-6.09-4.93-8-7a1.06,1.06,0,0,1,1.5-1.5c.24.2,3.42,3.35,3.42,3.35a.68.68,0,0,0,1,0c.44-.52-.18-1.21-.18-1.21L35.07,50.31C34.31,49,35.87,48,36.65,49.2Z"/></g></g></svg>
