<svg xmlns="http://www.w3.org/2000/svg" viewBox="0 0 54.24 74.2"><defs><style>.cls-1{fill:#d6e2e2;}.cls-2,.cls-3,.cls-8{fill:none;}.cls-2,.cls-8{stroke:#fff;stroke-miterlimit:2.61;}.cls-2{stroke-width:2.4px;}.cls-2,.cls-3,.cls-5,.cls-6,.cls-7,.cls-8{fill-rule:evenodd;}.cls-4,.cls-5{fill:#fff;}.cls-6{fill:#f37021;}.cls-7{fill:#6d6e71;}.cls-8{stroke-width:1.92px;}</style></defs><title>onlinaar</title><g id="Layer_2" data-name="Layer 2"><g id="Layer_1-2" data-name="Layer 1"><rect class="cls-1" y="21.63" width="54.24" height="52.57" rx="10.01" ry="10.01"/><path class="cls-2" d="M15.31,1.2H38.92c2.87,0,5.21,2,5.21,4.52v9.33a.56.56,0,0,1,.6.51v4a.56.56,0,0,1-.6.52V61.92c0,2.48-2.35,4.52-5.21,4.52H15.31c-2.86,0-5.21-2-5.21-4.52V26.12a.57.57,0,0,1-.59-.52v-4a.56.56,0,0,1,.59-.52v-1a.56.56,0,0,1-.59-.51v-4A.56.56,0,0,1,10.1,15V5.72C10.1,3.23,12.45,1.2,15.31,1.2Z"/><path class="cls-3" d="M15.31,1.2H38.92c2.87,0,5.21,2,5.21,4.52v9.33a.56.56,0,0,1,.6.51v4a.56.56,0,0,1-.6.52V61.92c0,2.48-2.35,4.52-5.21,4.52H15.31c-2.86,0-5.21-2-5.21-4.52V26.12a.57.57,0,0,1-.59-.52v-4a.56.56,0,0,1,.59-.52v-1a.56.56,0,0,1-.59-.51v-4A.56.56,0,0,1,10.1,15V5.72C10.1,3.23,12.45,1.2,15.31,1.2Z"/><rect class="cls-4" x="11.34" y="10.35" width="31.55" height="44.58"/><path class="cls-5" d="M27.12,63.84a3.33,3.33,0,1,0-3.34-3.33A3.34,3.34,0,0,0,27.12,63.84Z"/><path class="cls-6" d="M22.62,17.67a3.75,3.75,0,1,1-3.74-3.75A3.74,3.74,0,0,1,22.62,17.67Z"/><path class="cls-5" d="M17.24,17.24l1.51,1-1.15,0,2.87-2.57a.52.52,0,0,1,.75.72l-2.44,3,0,.05a.71.71,0,0,1-1,.1l-.12-.12L16.52,18a.53.53,0,0,1,.72-.75Z"/><path class="cls-7" d="M26.28,15.58a4.54,4.54,0,0,1,1.86-.34l1.87,0c.62,0,1.25,0,1.87,0s1.25.05,1.87.11a.39.39,0,0,1,.36.42.38.38,0,0,1-.34.35c-.62.09-1.24.15-1.86.2s-1.25.08-1.87.11-1.25.05-1.87.06a4.24,4.24,0,0,1-1.88-.25.38.38,0,0,1-.2-.48A.41.41,0,0,1,26.28,15.58Z"/><path class="cls-7" d="M26.34,18.4a10.39,10.39,0,0,1,2.41-.25l2.42,0c.8,0,1.61,0,2.41,0s1.61,0,2.42,0a.39.39,0,0,1,0,.77c-.8.07-1.6.12-2.41.15s-1.61.08-2.41.1l-2.41.06a9.85,9.85,0,0,1-2.42-.14.34.34,0,0,1-.27-.41A.33.33,0,0,1,26.34,18.4Z"/><path class="cls-7" d="M35.28,15.38a2.86,2.86,0,0,1,.86-.11l.87,0c.57,0,1.15,0,1.72,0a.38.38,0,0,1,.38.4.39.39,0,0,1-.36.37c-.57,0-1.15.07-1.72.09l-.87,0a2.79,2.79,0,0,1-.86-.08.35.35,0,0,1-.25-.43A.36.36,0,0,1,35.28,15.38Z"/><path class="cls-6" d="M22.62,26.89a3.75,3.75,0,1,1-3.74-3.74A3.74,3.74,0,0,1,22.62,26.89Z"/><path class="cls-5" d="M17.24,26.46l1.51,1-1.15,0L20.47,25a.52.52,0,0,1,.75.71l-2.44,3,0,0a.7.7,0,0,1-1,.1l-.12-.12-1.1-1.47a.51.51,0,0,1,.1-.73A.54.54,0,0,1,17.24,26.46Z"/><path class="cls-7" d="M26.28,24.81a4.23,4.23,0,0,1,1.86-.34c.62,0,1.25,0,1.87,0s1.25,0,1.87,0,1.25.06,1.87.11a.39.39,0,0,1,.36.42.4.4,0,0,1-.34.36c-.62.08-1.24.14-1.86.19L30,25.68c-.62,0-1.25.05-1.87.06a4.4,4.4,0,0,1-1.88-.26.38.38,0,0,1-.2-.48A.35.35,0,0,1,26.28,24.81Z"/><path class="cls-7" d="M26.34,27.63a11,11,0,0,1,2.41-.26l2.42,0c.8,0,1.61,0,2.41,0s1.61,0,2.42,0a.39.39,0,0,1,0,.78c-.8.06-1.6.11-2.41.15s-1.61.08-2.41.1l-2.41.06a10.37,10.37,0,0,1-2.42-.15.34.34,0,0,1-.27-.41A.33.33,0,0,1,26.34,27.63Z"/><path class="cls-7" d="M35.28,24.61a3.24,3.24,0,0,1,.86-.12l.87,0c.57,0,1.15,0,1.72,0a.39.39,0,0,1,.38.4.41.41,0,0,1-.36.38c-.57,0-1.15.07-1.72.09h-.87a3.13,3.13,0,0,1-.86-.07.36.36,0,0,1-.25-.44A.33.33,0,0,1,35.28,24.61Z"/><path class="cls-6" d="M22.62,36.12a3.75,3.75,0,1,1-3.74-3.75A3.74,3.74,0,0,1,22.62,36.12Z"/><path class="cls-5" d="M17.24,35.69l1.51,1-1.15,0,2.87-2.57a.52.52,0,0,1,.75.72l-2.44,3,0,0a.71.71,0,0,1-1,.1l-.12-.12-1.1-1.47a.53.53,0,0,1,.72-.75Z"/><path class="cls-7" d="M26.28,34a4.36,4.36,0,0,1,1.86-.33c.62,0,1.25,0,1.87,0s1.25,0,1.87,0,1.25,0,1.87.11a.39.39,0,0,1,.36.42.38.38,0,0,1-.34.35c-.62.09-1.24.15-1.86.2s-1.25.08-1.87.11-1.25.05-1.87.06a4.24,4.24,0,0,1-1.88-.25.38.38,0,0,1-.2-.48A.41.41,0,0,1,26.28,34Z"/><path class="cls-7" d="M26.34,36.85a10.39,10.39,0,0,1,2.41-.25l2.42,0c.8,0,1.61,0,2.41,0s1.61,0,2.42,0a.38.38,0,0,1,.37.4.39.39,0,0,1-.36.38c-.8.06-1.6.11-2.41.14s-1.61.08-2.41.1l-2.41.06a9.85,9.85,0,0,1-2.42-.14.34.34,0,0,1-.27-.41A.33.33,0,0,1,26.34,36.85Z"/><path class="cls-7" d="M35.28,33.83a2.86,2.86,0,0,1,.86-.11l.87,0c.57,0,1.15,0,1.72,0a.38.38,0,0,1,.38.4.39.39,0,0,1-.36.37c-.57.05-1.15.07-1.72.09l-.87,0a2.79,2.79,0,0,1-.86-.08.35.35,0,0,1-.25-.43A.36.36,0,0,1,35.28,33.83Z"/><path class="cls-6" d="M19.06,43.14H35.18a3.94,3.94,0,0,1,3.93,3.93h0A3.94,3.94,0,0,1,35.18,51H19.06a3.94,3.94,0,0,1-3.93-3.93h0A3.94,3.94,0,0,1,19.06,43.14Z"/><path class="cls-8" d="M36.56,49.2,41.94,57l.33-.23L39.4,52.6c-.68-1,1.11-2.11,1.74-1.2l3.37,4.89.34-.23-3-4.31c-.77-1.12,1-2.23,1.74-1.2l3,4.31.29-.2L45.47,52.6a.84.84,0,1,1,1.38-1l2.92,4.23C51,58,52.4,59.75,52.45,61.4s-2.7,4.53-4.3,5.2a6.71,6.71,0,0,1-4.38.18c-2.63-.84-6.09-4.93-8-7a1.06,1.06,0,0,1,1.51-1.5c.24.2,3.42,3.35,3.42,3.35a.68.68,0,0,0,1,0c.44-.52-.18-1.21-.18-1.21L35,50.31C34.22,49,35.78,48,36.56,49.2Z"/><path class="cls-3" d="M36.56,49.2,41.94,57l.33-.23L39.4,52.6c-.68-1,1.11-2.11,1.74-1.2l3.37,4.89.34-.23-3-4.31c-.77-1.12,1-2.23,1.74-1.2l3,4.31.29-.2L45.47,52.6a.84.84,0,1,1,1.38-1l2.92,4.23C51,58,52.4,59.75,52.45,61.4s-2.7,4.53-4.3,5.2a6.71,6.71,0,0,1-4.38.18c-2.63-.84-6.09-4.93-8-7a1.06,1.06,0,0,1,1.51-1.5c.24.2,3.42,3.35,3.42,3.35a.68.68,0,0,0,1,0c.44-.52-.18-1.21-.18-1.21L35,50.31C34.22,49,35.78,48,36.56,49.2Z"/></g></g></svg>
