<?xml version="1.0" encoding="utf-8"?>
<!-- Generator: Adobe Illustrator 22.0.1, SVG Export Plug-In . SVG Version: 6.00 Build 0)  -->
<svg version="1.1" id="Layer_1" xmlns="http://www.w3.org/2000/svg" xmlns:xlink="http://www.w3.org/1999/xlink" x="0px" y="0px"
	 viewBox="0 0 90 81.5" style="enable-background:new 0 0 90 81.5;" xml:space="preserve">
<style type="text/css">
	.st0{fill:#D6E2E2;}
	.st1{fill:#E4EBF7;}
	.st2{opacity:0.7;fill:#015E60;enable-background:new    ;}
	.st3{fill:#015E60;}
	.st4{opacity:0.7;fill:#D6E2E2;enable-background:new    ;}
	.st5{fill:#6B728D;}
	.st6{opacity:0.5;fill:#D6E2E2;enable-background:new    ;}
	.st7{opacity:0.5;fill:#015E60;enable-background:new    ;}
	.st8{fill:#FFFFFF;}
	.st9{fill:#F37021;}
	.st10{fill:#93B5DF;}
	.st11{opacity:0.2;fill:#D6E2E2;enable-background:new    ;}
	.st12{opacity:0.2;fill:#015E60;enable-background:new    ;}
</style>
<title>bonus</title>
<g id="Layer_2_1_">
	<g id="Layer_1-2">
		<path class="st0" d="M49.9,64.4l24.7-24.7c1.8-1.3,4.2-1,5.6,0.8c1.1,1.4,1.1,3.4,0,4.8L55.4,70c-1.7,1.3-4.2,1-5.6-0.8
			C48.8,67.8,48.8,65.8,49.9,64.4z"/>
		<path class="st0" d="M8.4,44.5l3.8-3.8c1.3-1.8,3.8-2.1,5.6-0.8c1.8,1.3,2.1,3.8,0.8,5.6c-0.2,0.3-0.5,0.6-0.8,0.8L14,50.1
			c-1.8,1.3-4.2,1-5.6-0.8C7.3,47.9,7.3,46,8.4,44.5L8.4,44.5z"/>
		<path class="st0" d="M46.8,34.6L57.4,24c-1.3,1.8-1,4.2,0.8,5.6c1.4,1.1,3.4,1.1,4.8,0L52.3,40.1c1.3-1.7,1-4.2-0.8-5.6
			C50.2,33.5,48.2,33.5,46.8,34.6L46.8,34.6z"/>
		<path class="st0" d="M43,49.2l30.8-30.8c1.8-1.3,4.2-1,5.6,0.8c1.1,1.4,1.1,3.4,0,4.8L48.6,54.8c-1.5,1.5-4,1.5-5.6,0l0,0
			C41.5,53.3,41.5,50.8,43,49.2z"/>
		<path class="st0" d="M13.7,58.4l42-42c1.8-1.3,4.2-1,5.6,0.8c1.1,1.4,1.1,3.4,0,4.8l-42,42c-1.7,1.3-4.2,1-5.6-0.8
			C12.7,61.8,12.7,59.8,13.7,58.4z"/>
		<path class="st0" d="M20.2,30l15.6-15.6c1.7-1.3,4.2-1,5.6,0.7c1.1,1.4,1.1,3.4,0,4.8L25.7,35.5c-1.3,1.7-3.8,2.1-5.6,0.8
			c-1.7-1.3-2.1-3.8-0.8-5.6C19.6,30.4,19.9,30.2,20.2,30L20.2,30z"/>
		<path class="st0" d="M45.9,4.2L45.9,4.2c1.8-1.4,4.3-1.1,5.7,0.7c1.1,1.4,1.1,3.4,0,4.8l-0.1,0.1c-1.7,1.3-4.2,1-5.6-0.8
			C44.8,7.6,44.8,5.6,45.9,4.2z"/>
		<path class="st1" d="M34,58.1l0.1-0.1c1.3-1.7,3.8-2.1,5.6-0.7c1.7,1.3,2.1,3.8,0.7,5.6c-0.2,0.3-0.5,0.5-0.7,0.7l-0.1,0.1
			c-1.7,1.3-4.2,1-5.6-0.7C32.9,61.5,32.9,59.5,34,58.1z"/>
		<path class="st2" d="M10.3,15.9c0-0.2,0.3-0.4,0.5-0.4c0.2,0,0.3,0.2,0.4,0.4v2.7c0,0.2-0.3,0.4-0.5,0.4c-0.2,0-0.3-0.2-0.4-0.4
			V15.9z"/>
		<path class="st2" d="M12.1,16.7c0.2,0,0.4,0.3,0.4,0.5c0,0.2-0.2,0.3-0.4,0.4H9.4c-0.2,0-0.4-0.3-0.4-0.5c0-0.2,0.2-0.3,0.4-0.4
			H12.1z"/>
		<path class="st3" d="M28.8,9.6c0,0.2-0.1,0.5-0.3,0.6l0,0c-0.2,0.2-0.4,0.3-0.7,0.3c-0.2,0-0.5-0.1-0.6-0.3l0,0
			c-0.4-0.3-0.4-0.9,0-1.3c0,0,0,0,0,0l0,0c0.2-0.2,0.4-0.3,0.6-0.3c0.2,0,0.5,0.1,0.7,0.3V9C28.7,9.2,28.8,9.4,28.8,9.6L28.8,9.6z
			 M28.1,9.9c0.1-0.1,0.1-0.2,0.1-0.3c0-0.1,0-0.2-0.1-0.3l0,0c-0.1-0.1-0.2-0.1-0.3-0.1c-0.1,0-0.2,0-0.2,0.1l0,0
			c-0.1,0.1-0.1,0.2-0.1,0.3c0,0.2,0.2,0.4,0.4,0.4l0,0C28,9.9,28.1,9.9,28.1,9.9z"/>
		<path class="st4" d="M64.5,7.8c0-0.2,0.2-0.3,0.3-0.3c0.2,0,0.3,0.1,0.3,0.3v2.7c0,0.2-0.1,0.3-0.3,0.3c-0.2,0-0.3-0.1-0.3-0.3
			V7.8z"/>
		<path class="st4" d="M66.3,8.9c0.2,0,0.3,0.1,0.3,0.3s-0.1,0.3-0.3,0.3h-2.7c-0.2,0-0.3-0.1-0.3-0.3s0.1-0.3,0.3-0.3H66.3z"/>
		<path class="st0" d="M71.1,16.3c0,0.2-0.1,0.5-0.3,0.6c-0.2,0.2-0.4,0.3-0.6,0.3c-0.5,0-0.9-0.4-0.9-0.9c0-0.2,0.1-0.5,0.3-0.6
			l0,0c0.2-0.2,0.4-0.2,0.6-0.2C70.7,15.4,71.1,15.8,71.1,16.3L71.1,16.3z M70.4,16.4c0,0,0-0.1,0-0.1c0-0.1-0.1-0.2-0.2-0.2
			c0,0,0,0-0.1,0c0,0-0.1,0-0.1,0l0,0c0,0.1,0,0.1,0,0.2c0,0.1,0.1,0.2,0.2,0.2C70.3,16.4,70.4,16.4,70.4,16.4L70.4,16.4z"/>
		<path class="st0" d="M74.6,23.8c0,0.5-0.4,0.8-0.8,0.8c0,0,0,0,0,0c-0.2,0-0.4-0.1-0.6-0.2c-0.2-0.2-0.3-0.4-0.3-0.6
			c0-0.5,0.4-0.8,0.8-0.8c0.2,0,0.4,0.1,0.6,0.3C74.5,23.4,74.6,23.6,74.6,23.8z M74,24c0-0.1,0-0.1,0-0.2c0-0.1,0-0.1,0-0.2
			c-0.1-0.1-0.1-0.1-0.2-0.1c-0.1,0-0.3,0.1-0.3,0.3c0,0.1,0,0.1,0.1,0.2C73.7,24.1,73.9,24.1,74,24z"/>
		<path class="st0" d="M57.8,3.2c0,0.2-0.1,0.4-0.2,0.6C57.4,4,57.2,4.1,57,4.1c-0.2,0-0.4-0.1-0.6-0.3l0,0
			c-0.2-0.2-0.2-0.4-0.2-0.6c0-0.2,0.1-0.4,0.2-0.6c0.3-0.3,0.9-0.3,1.2,0C57.7,2.8,57.8,3,57.8,3.2z M57.1,3.4
			c0.1,0,0.1-0.1,0.1-0.2C57.3,3.1,57.1,3,57,3c-0.1,0-0.1,0-0.2,0.1c-0.1,0-0.1,0.1-0.1,0.2c0,0.1,0,0.1,0.1,0.2l0,0
			c0,0,0.1,0.1,0.2,0.1C57.1,3.5,57.1,3.5,57.1,3.4z"/>
		<path class="st0" d="M84.5,41.1c0,0.2-0.1,0.4-0.2,0.6c-0.2,0.2-0.4,0.2-0.6,0.2c-0.2,0-0.4-0.1-0.6-0.2c-0.2-0.2-0.3-0.4-0.3-0.6
			c0-0.2,0.1-0.4,0.3-0.6c0.2-0.2,0.4-0.2,0.6-0.2c0.2,0,0.4,0.1,0.6,0.2C84.4,40.6,84.5,40.8,84.5,41.1z M83.9,41.3
			c0.1-0.1,0-0.3-0.1-0.4c-0.1-0.1-0.2-0.1-0.3,0c0,0-0.1,0.1-0.1,0.2c0,0.1,0,0.1,0.1,0.2C83.6,41.4,83.8,41.4,83.9,41.3z"/>
		<path class="st3" d="M14.2,34l-1.1,1C13,35,12.8,35,12.8,35c0,0,0,0,0,0l-1-1.1c-0.1-0.1-0.1-0.2,0-0.3l1.1-1
			c0.1-0.1,0.2-0.1,0.3,0c0,0,0,0,0,0l1,1.1C14.2,33.7,14.2,33.9,14.2,34C14.2,34,14.2,34,14.2,34L14.2,34z M12.9,34.5l0.8-0.7
			L13,33l-0.8,0.7L12.9,34.5z"/>
		<path class="st0" d="M75,4.3l0.3,1c0,0.1,0,0.2-0.1,0.3c0,0,0,0,0,0l-1,0.3c-0.1,0-0.2,0-0.2-0.1c0,0,0,0,0,0l-0.3-1
			c0-0.1,0-0.2,0.1-0.3l1-0.3C74.9,4.1,75,4.2,75,4.3z M74.9,5.2l-0.2-0.6l-0.6,0.2l0.2,0.6L74.9,5.2z"/>
		<path class="st1" d="M102.2,75L102.2,75z"/>
		<path class="st5" d="M102.2,74.8c0.4-0.1,0.8-0.1,1.2-0.1c0.4,0,0.8,0,1.2,0.1c0.2,0,0.3,0.1,0.3,0.3c0,0.1-0.2,0.2-0.3,0.2
			c-0.4,0.1-0.8,0.1-1.2,0.1c-0.4,0-0.8,0-1.2-0.1c-0.2,0-0.3-0.2-0.2-0.3C102.1,74.9,102.1,74.8,102.2,74.8z"/>
		<path class="st1" d="M-7.2,75L-7.2,75z"/>
		<path class="st3" d="M-7.2,74.8c4.5-0.1,9-0.1,13.5-0.1h40.3h26.9H87c4.5,0,9,0,13.5,0.1c0.2,0,0.4,0.1,0.4,0.3
			c0,0.1-0.2,0.2-0.4,0.3c-4.5,0-9,0-13.5,0H6.2c-4.5,0-9,0-13.5-0.1c-0.2,0-0.3-0.1-0.3-0.2S-7.4,74.8-7.2,74.8z"/>
		<path class="st1" d="M-9.9,75L-9.9,75z"/>
		<path class="st5" d="M-9.9,74.7c0.1,0,0.1,0,0.2,0h0.1h0.1c0.2,0.1,0.3,0.3,0.1,0.4c0,0.1-0.1,0.1-0.1,0.2h-0.1h-0.3
			c-0.2,0-0.4-0.2-0.3-0.3C-10.2,74.8-10,74.7-9.9,74.7z"/>
		<path class="st1" d="M-14.2,75L-14.2,75z"/>
		<path class="st5" d="M-14.2,74.8c0.3-0.1,0.6-0.1,0.9-0.1c0.3,0,0.6,0,0.9,0c0.2,0,0.3,0.2,0.2,0.3c0,0.1-0.1,0.2-0.2,0.3
			c-0.3,0-0.6,0-0.9,0c-0.3,0-0.6,0-0.9-0.1c-0.2,0-0.3-0.1-0.2-0.3C-14.4,74.9-14.3,74.8-14.2,74.8z"/>
		<path class="st1" d="M34.2,78.9L34.2,78.9z"/>
		<path class="st1" d="M20.4,78.9L20.4,78.9z"/>
		<path class="st3" d="M20.4,78.7c1.4,0,2.9-0.1,4.3-0.1c1.4,0,2.9,0,4.3,0c0.2,0,0.3,0.1,0.3,0.3S29.1,79,29,79.1
			c-1.4,0-2.9,0-4.3,0s-2.9,0-4.3-0.1c-0.2,0-0.3-0.1-0.3-0.2S20.2,78.7,20.4,78.7z"/>
		<path class="st6" d="M9.4,32c0,1.6-1.3,2.9-2.9,2.9c-1.6,0-2.9-1.3-2.9-2.9s1.3-2.9,2.9-2.9c0,0,0,0,0,0C8.1,29.1,9.4,30.4,9.4,32
			z"/>
		<path class="st7" d="M9.6,32c0,0.8-0.3,1.6-0.9,2.2C8.2,34.7,7.4,35,6.6,35c-0.8,0-1.6-0.3-2.2-0.9c-1.2-1.2-1.2-3.1,0-4.3
			s3.1-1.2,4.3,0C9.3,30.4,9.6,31.1,9.6,32z M8.4,33.8c1-1,1-2.7,0-3.7c0,0,0,0,0,0c-1-1-2.7-1-3.8,0s-1,2.7,0,3.8
			C5.7,34.9,7.4,34.9,8.4,33.8C8.4,33.8,8.4,33.8,8.4,33.8z"/>
		<path class="st7" d="M5.6,31.4l1,0.8H6.1l2-1.8c0.1-0.1,0.3-0.1,0.4,0c0,0,0,0,0,0c0.1,0.1,0.1,0.2,0,0.3l-1.9,2l0,0
			c-0.1,0.1-0.3,0.1-0.5,0c0,0,0,0,0,0l0,0l-0.8-1c-0.1-0.1-0.1-0.3,0-0.4c0,0,0,0,0,0C5.3,31.3,5.5,31.3,5.6,31.4
			C5.6,31.4,5.6,31.4,5.6,31.4z"/>
		<path class="st7" d="M9.6,32.4c-0.1,0.7-0.4,1.3-0.9,1.8c-0.5,0.4-1.2,0.7-1.9,0.7c-0.7,0-1.4-0.2-2-0.5c-0.6-0.4-1-0.9-1.3-1.6
			c-0.3-1-0.1-2.1,0.6-2.9c0.2-0.3,0.5-0.5,0.8-0.6c0.6-0.3,1.3-0.5,2-0.4c0.7,0,1.3,0.4,1.7,0.9c0,0.1,0,0.1,0,0.2c0,0-0.1,0-0.1,0
			l0,0c-0.5-0.2-1.1-0.3-1.6-0.4c-0.5,0-1.1,0.1-1.5,0.4c-0.4,0.3-0.8,0.7-1,1.2c-0.2,0.5-0.2,1,0,1.5c0.2,0.5,0.5,0.9,0.9,1.2
			c0.9,0.6,2.1,0.5,2.9-0.1c0.1-0.1,0.2-0.2,0.3-0.3c0.1-0.1,0.2-0.2,0.3-0.3c0.2-0.2,0.3-0.4,0.4-0.7l0,0c0-0.1,0.2-0.1,0.3-0.1
			C9.6,32.2,9.6,32.3,9.6,32.4z"/>
		<path class="st6" d="M87,31c0,1.6-1.3,2.9-2.9,2.9c-1.6,0-2.9-1.3-2.9-2.9c0-1.6,1.3-2.9,2.9-2.9c0,0,0,0,0,0
			C85.7,28.1,87,29.4,87,31z"/>
		<path class="st7" d="M87.2,31c0,1.7-1.4,3.1-3.1,3.1c-0.8,0-1.6-0.3-2.2-0.9c-1.3-1.1-1.4-3-0.3-4.3c1.1-1.3,3-1.4,4.3-0.3
			c0.1,0.1,0.2,0.2,0.3,0.3C86.9,29.4,87.2,30.2,87.2,31L87.2,31z M86,32.9c1-1,1-2.7,0-3.7c0,0,0,0,0,0c-0.9-1.1-2.6-1.3-3.7-0.3
			c-1.1,0.9-1.3,2.6-0.3,3.7c0.1,0.1,0.2,0.3,0.4,0.4C83.4,33.9,85,33.9,86,32.9C86.1,32.9,86.1,32.9,86,32.9L86,32.9z"/>
		<path class="st7" d="M83.2,30.4l1,0.8h-0.6l2.1-1.8c0.1-0.1,0.3-0.1,0.4,0c0.1,0.1,0.1,0.2,0,0.3l-1.9,2l0,0
			c-0.1,0.1-0.3,0.1-0.5,0c0,0,0,0,0,0l0,0l-0.8-1c-0.1-0.1-0.1-0.3,0-0.4c0,0,0,0,0,0C83,30.3,83.1,30.3,83.2,30.4z"/>
		<path class="st7" d="M87.2,31.4c-0.1,0.7-0.4,1.3-0.9,1.8c-1.1,0.9-2.7,0.9-3.9,0.2c-0.6-0.4-1.1-0.9-1.3-1.6
			c-0.3-1-0.1-2.1,0.6-2.9c0.2-0.3,0.5-0.5,0.8-0.6c0.6-0.3,1.3-0.5,2-0.4c0.7,0,1.3,0.4,1.7,0.9c0,0,0,0.1,0,0.2c0,0,0,0,0,0H86
			c-0.5-0.2-1.1-0.3-1.6-0.4c-0.5,0-1.1,0.1-1.5,0.4c-0.4,0.3-0.8,0.7-1,1.2c-0.2,0.5-0.2,1,0,1.5c0.2,0.5,0.5,0.9,0.9,1.2
			c0.4,0.3,1,0.4,1.5,0.4c0.5,0,1-0.2,1.4-0.5c0.1-0.1,0.2-0.2,0.3-0.3c0.1-0.1,0.2-0.2,0.3-0.3c0.2-0.2,0.3-0.4,0.4-0.7l0,0
			c0-0.1,0.2-0.1,0.3-0.1C87.2,31.2,87.2,31.3,87.2,31.4z"/>
		<path class="st6" d="M24.1,9.6c0,1.6-1.3,2.9-2.9,2.9s-2.9-1.3-2.9-2.9s1.3-2.9,2.9-2.9l0,0C22.8,6.8,24.1,8.1,24.1,9.6z"/>
		<path class="st7" d="M24.3,9.6c0,0.8-0.3,1.6-0.9,2.2c-1.2,1.2-3.1,1.2-4.3,0c-1.2-1.2-1.2-3.1,0-4.3c1.2-1.2,3.1-1.2,4.3,0
			C24,8.1,24.3,8.8,24.3,9.6z M23.1,11.5c1-1,1-2.7,0-3.8c-1-1-2.7-1-3.8,0c-1,1-1,2.7,0,3.7c0,0,0,0,0,0
			C20.4,12.6,22.1,12.6,23.1,11.5C23.1,11.5,23.1,11.5,23.1,11.5z"/>
		<path class="st3" d="M20.3,9l1,0.8h-0.5L22.8,8c0.1-0.1,0.3-0.1,0.4,0c0,0,0,0,0,0c0.1,0.1,0.1,0.2,0,0.3l-1.8,2l0,0
			c-0.1,0.1-0.4,0.1-0.5,0l0,0l-0.8-1c-0.1-0.1-0.1-0.3,0-0.4C20.1,9,20.2,9,20.3,9z"/>
		<path class="st3" d="M24.3,10.1c-0.1,0.7-0.4,1.3-0.9,1.8c-0.5,0.4-1.2,0.7-1.9,0.7c-0.7,0-1.4-0.1-2-0.5
			c-0.6-0.4-1.1-0.9-1.3-1.6c-0.2-0.7-0.2-1.4,0-2.1c0.1-0.3,0.3-0.6,0.5-0.9c0.2-0.3,0.5-0.5,0.8-0.6c0.6-0.4,1.3-0.5,2.1-0.4
			c0.7,0,1.3,0.4,1.7,0.9c0,0,0,0.1,0,0.2c0,0-0.1,0-0.1,0l0,0c-0.5-0.2-1.1-0.3-1.6-0.4C21,7,20.5,7.2,20,7.5
			c-0.4,0.3-0.8,0.7-1,1.2c-0.2,0.5-0.2,1,0,1.5c0.2,0.5,0.5,0.9,0.9,1.2c0.4,0.3,0.9,0.4,1.4,0.3c0.5,0,1-0.2,1.4-0.5
			c0.1-0.1,0.2-0.2,0.3-0.2l0.3-0.3c0.2-0.2,0.3-0.4,0.4-0.7l0,0c0-0.1,0.1-0.2,0.2-0.1c0,0,0,0,0,0C24.2,9.8,24.3,9.9,24.3,10.1
			C24.3,10,24.3,10,24.3,10.1z"/>
		<rect x="20.6" y="25.3" class="st0" width="39" height="49.6"/>
		<rect x="23.4" y="28.9" class="st8" width="33.2" height="42.7"/>
		<path class="st9" d="M36,37.9c0,2-1.6,3.6-3.6,3.6c-2,0-3.6-1.6-3.6-3.6c0-2,1.6-3.6,3.6-3.6l0,0C34.4,34.3,36,35.9,36,37.9
			C36,37.9,36,37.9,36,37.9z"/>
		<path class="st8" d="M30.8,37.6l1.3,1h-0.8l2.7-2.5c0.1-0.1,0.4-0.1,0.5,0c0,0,0,0,0,0c0.1,0.1,0.1,0.4,0,0.5l-2.3,2.9l0,0
			c-0.2,0.2-0.5,0.2-0.7,0v-0.1l-1.1-1.3c-0.1-0.1-0.1-0.4,0-0.5C30.5,37.5,30.7,37.5,30.8,37.6z"/>
		<path class="st8" d="M39.5,36.2l7.1-0.2L39.5,36.2z"/>
		<path class="st3" d="M39.5,36c0.6-0.2,1.2-0.2,1.7-0.2H43h1.8h1.8c0.1,0,0.2,0.1,0.2,0.3c0,0.1-0.1,0.2-0.2,0.2l-1.8,0.1L43,36.5
			h-1.8c-0.6,0-1.2,0-1.8-0.1c-0.1,0-0.2-0.2-0.2-0.3C39.4,36,39.4,36,39.5,36z"/>
		<path class="st8" d="M39.6,38.9l9.2-0.2L39.6,38.9z"/>
		<path class="st3" d="M39.6,38.6c0.8-0.1,1.5-0.2,2.3-0.2h2.3c0.8,0,1.5,0,2.3,0h2.3c0.2,0,0.3,0.1,0.3,0.3c0,0,0,0,0,0
			c0,0.2-0.1,0.3-0.3,0.3l-2.2,0.1l-2.3,0.1h-2.3c-0.8,0-1.5,0-2.3-0.1c-0.1,0-0.2-0.2-0.2-0.3C39.4,38.7,39.5,38.7,39.6,38.6z"/>
		<path class="st8" d="M48.1,36l3.3-0.1L48.1,36z"/>
		<path class="st3" d="M48.1,35.7c0.3-0.1,0.5-0.1,0.8-0.1h0.8c0.5,0,1.1,0,1.6,0c0.2,0,0.4,0.2,0.4,0.4s-0.2,0.4-0.4,0.4l0,0
			c-0.5,0-1.1,0-1.6,0.1h-0.8c-0.3,0-0.6,0-0.8,0c-0.2,0-0.3-0.2-0.2-0.4c0,0,0,0,0,0C47.9,35.9,47.9,35.7,48.1,35.7z"/>
		<path class="st9" d="M36,49.6c0,2-1.6,3.6-3.6,3.6s-3.6-1.6-3.6-3.6c0-2,1.6-3.6,3.6-3.6c0,0,0,0,0,0C34.4,46,36,47.6,36,49.6z"/>
		<path class="st8" d="M30.8,49.3l1.3,1h-0.8l2.7-2.5c0.1-0.1,0.4-0.1,0.5,0c0,0,0,0,0,0c0.1,0.1,0.1,0.3,0,0.5l-2.3,2.9l0,0
			c-0.2,0.2-0.5,0.2-0.7,0v-0.1l-1.1-1.3c-0.1-0.1-0.1-0.4,0-0.5C30.5,49.2,30.7,49.2,30.8,49.3z"/>
		<path class="st8" d="M39.5,47.9l7.1-0.2L39.5,47.9z"/>
		<path class="st3" d="M39.5,47.7c0.6-0.2,1.1-0.3,1.7-0.3H43h1.8h1.8c0.1,0,0.2,0.1,0.2,0.3c0,0.1-0.1,0.2-0.2,0.2l-1.8,0.1
			L43,48.2h-1.8c-0.6,0-1.2,0-1.8-0.1c-0.1,0-0.2-0.1-0.2-0.3c0,0,0,0,0,0C39.4,47.7,39.4,47.7,39.5,47.7z"/>
		<path class="st8" d="M39.6,50.6l9.2-0.2L39.6,50.6z"/>
		<path class="st3" d="M39.6,50.4c0.8-0.2,1.5-0.2,2.3-0.3h2.3h2.3c0.8,0,1.5,0,2.3,0c0.2,0,0.3,0.1,0.3,0.3c0,0,0,0,0,0
			c0,0.1-0.1,0.3-0.3,0.3l-2.2,0.1l-2.3,0.1h-2.3c-0.8,0-1.5,0-2.3-0.1c-0.1,0-0.2-0.2-0.2-0.3C39.4,50.5,39.5,50.4,39.6,50.4z"/>
		<path class="st8" d="M48.1,47.8l3.3-0.1L48.1,47.8z"/>
		<path class="st5" d="M48.1,47.5c0.3-0.1,0.5-0.1,0.8-0.1h0.8h1.6c0.2,0,0.4,0.2,0.3,0.4c0,0,0,0,0,0c0,0.2-0.1,0.3-0.3,0.3
			c-0.5,0-1.1,0-1.6,0.1h-0.8c-0.3,0-0.6,0-0.8-0.1c-0.2,0-0.3-0.2-0.2-0.4c0,0,0,0,0,0C47.9,47.6,48,47.5,48.1,47.5z"/>
		<path class="st9" d="M36,61.3c0,2-1.6,3.6-3.6,3.6s-3.6-1.6-3.6-3.6s1.6-3.6,3.6-3.6c0,0,0,0,0,0C34.4,57.8,36,59.4,36,61.3
			C36,61.3,36,61.3,36,61.3z"/>
		<path class="st8" d="M30.8,61.1l1.3,1h-0.8l2.7-2.5c0.1-0.1,0.4-0.1,0.5,0c0,0,0,0,0,0c0.1,0.1,0.1,0.4,0,0.5l-2.4,2.8l0,0
			c-0.2,0.2-0.5,0.2-0.7,0l0,0l-1.1-1.3c-0.1-0.1-0.1-0.4,0-0.5C30.4,60.9,30.7,60.9,30.8,61.1z"/>
		<path class="st8" d="M39.5,59.7l7.1-0.2L39.5,59.7z"/>
		<path class="st3" d="M39.5,59.5c0.6-0.2,1.2-0.2,1.7-0.2H43h1.8c0.6,0,1.2,0,1.8,0c0.1,0,0.2,0.1,0.2,0.3c0,0.1-0.1,0.2-0.2,0.2
			c-0.6,0-1.2,0.1-1.8,0.1L43,60h-1.8c-0.6,0-1.2,0-1.8-0.1c-0.1,0-0.2-0.2-0.2-0.3C39.4,59.5,39.4,59.5,39.5,59.5z"/>
		<path class="st8" d="M39.6,62.4l9.2-0.2L39.6,62.4z"/>
		<path class="st3" d="M39.6,62.1c0.8-0.1,1.5-0.2,2.3-0.2h2.3h2.3h2.3c0.2,0,0.3,0.1,0.3,0.3c0,0,0,0,0,0c0,0.2-0.1,0.3-0.3,0.3
			l-2.2,0.1c-0.8,0-1.5,0.1-2.3,0.1h-2.3c-0.8,0-1.5,0-2.3-0.1c-0.1,0-0.2-0.2-0.2-0.3C39.4,62.2,39.5,62.1,39.6,62.1z"/>
		<path class="st8" d="M48.1,59.5h3.3H48.1z"/>
		<path class="st3" d="M48.1,59.2c0.3-0.1,0.5-0.1,0.8-0.1h0.8c0.5,0,1.1,0,1.6,0c0.2,0,0.4,0.2,0.4,0.4s-0.2,0.4-0.4,0.4l0,0
			c-0.5,0-1.1,0-1.6,0.1h-0.8c-0.3,0-0.6,0-0.8,0c-0.2,0-0.3-0.2-0.2-0.4c0,0,0-0.1,0-0.1C47.9,59.3,48,59.2,48.1,59.2z"/>
		<path class="st3" d="M57.3,39.1v27.1v5c0,0.1,0,0.1,0,0.2c-0.1,0.3-0.2,0.5-0.4,0.6c-0.1,0.1-0.2,0.1-0.3,0.2h-0.2H23.7h-0.2
			c-0.2-0.1-0.5-0.3-0.6-0.5c-0.1-0.1-0.1-0.2-0.1-0.4V32.5c0-1.1,0.1-2.3,0.2-3.4c0-0.1,0.1-0.1,0.2-0.1c0,0,0,0,0,0
			c0.1,0,0.1,0.1,0.1,0.1c0.2,1.1,0.3,2.2,0.2,3.4v38.7l0,0l0,0h32.7l0,0v-5V39.1c0-0.2,0.1-0.4,0.3-0.5c0.2,0,0.4,0.1,0.5,0.3
			C57.2,39,57.2,39.1,57.3,39.1L57.3,39.1z"/>
		<path class="st3" d="M20.3,36.3c-0.1-0.8-0.2-1.7-0.1-2.6v-7.8c0-0.4,0.2-0.7,0.6-0.8c0.2-0.1,0.3-0.1,0.5-0.1H59h0.1
			c0.1,0,0.2,0,0.3,0.1c0.2,0.1,0.3,0.2,0.4,0.3c0.1,0.1,0.2,0.3,0.2,0.5c0,0.1,0,0.1,0,0.2v48.1c0,0.1,0,0.1,0,0.2
			c0,0.2-0.1,0.4-0.2,0.5c-0.1,0.1-0.2,0.3-0.4,0.3c-0.2,0.1-0.3,0.1-0.5,0.1H21l-0.3-0.1c-0.3-0.2-0.5-0.5-0.6-0.8v-22
			c0-1.7,0-3.4,0.1-5.2c0-0.1,0.1-0.2,0.3-0.2c0.1,0,0.2,0.1,0.2,0.2c0.1,1.7,0.2,3.4,0.2,5.2v21.9c0,0.1,0,0.1,0.1,0.2h37.8
			c0.1,0,0.2,0,0.2-0.1c0,0,0-0.1,0-0.1V26v-0.1c0,0-0.1-0.1-0.1-0.1l0,0H21.2c-0.1,0-0.1,0-0.1,0C21,25.8,21,25.9,21,26v7.7
			c0,0.9,0,1.7-0.2,2.6c0,0.1-0.1,0.3-0.3,0.3C20.4,36.5,20.3,36.4,20.3,36.3z"/>
		<path class="st3" d="M20.2,40.6c0-0.1,0-0.2,0-0.3c0-0.1,0-0.2,0-0.3c0-0.2,0.1-0.4,0.2-0.6c0.1-0.1,0.2-0.2,0.3-0.1c0,0,0,0,0,0
			c0,0,0.1,0,0.1,0.1c0.1,0.2,0.2,0.4,0.2,0.6c0,0.1,0,0.2,0,0.3c0,0.1,0,0.2,0,0.3c-0.1,0.2-0.3,0.3-0.5,0.3
			C20.4,40.8,20.2,40.7,20.2,40.6z"/>
		<path class="st0" d="M48.8,23h-6.6c0.1-1.4-0.9-2.6-2.3-2.7c-1.4-0.1-2.6,0.9-2.7,2.3c0,0.1,0,0.2,0,0.4h-6.6
			c-1.5,0-2.7,1.2-2.7,2.7c0,1.5,1.2,2.7,2.7,2.7h18.2c1.5,0,2.7-1.2,2.7-2.7C51.4,24.2,50.3,23,48.8,23z"/>
		<path class="st3" d="M48.8,22.6c0.2,0,0.4,0.1,0.5,0.3c0,0.2-0.1,0.4-0.3,0.5c0,0-0.1,0-0.1,0h-6.6c-0.2,0-0.4-0.3-0.3-0.5
			c0-0.2,0.2-0.3,0.3-0.3H48.8z"/>
		<path class="st3" d="M42.6,23c0,0.2-0.2,0.4-0.4,0.4c-0.2,0-0.4-0.2-0.4-0.4c0-1.1-0.9-2-2-2c-1.1,0-2.1,0.9-2.1,2.1
			c0,0.2-0.3,0.4-0.5,0.3c-0.2,0-0.3-0.2-0.3-0.3c0-1.6,1.3-2.9,2.9-2.9C41.3,20.2,42.5,21.4,42.6,23z"/>
		<path class="st3" d="M37.3,22.6c0.2,0,0.4,0.1,0.5,0.3c0,0.2-0.1,0.4-0.3,0.5c0,0-0.1,0-0.1,0h-6.6c-0.2,0-0.4-0.3-0.3-0.5
			c0-0.2,0.2-0.3,0.3-0.3H37.3z"/>
		<path class="st3" d="M30.6,22.6c0.2,0,0.4,0.1,0.5,0.3c0,0.2-0.1,0.4-0.3,0.5c0,0-0.1,0-0.1,0c-1.3,0-2.3,1-2.3,2.3
			c0,0.6,0.2,1.2,0.7,1.6c0.4,0.4,1,0.7,1.6,0.7c0.2,0,0.4,0.2,0.4,0.4l0,0c0,0.2-0.2,0.4-0.4,0.4c0,0,0,0,0,0
			c-1.7,0-3.1-1.4-3.1-3.1C27.6,23.9,28.9,22.6,30.6,22.6z"/>
		<path class="st3" d="M30.6,28.7c-0.2,0-0.4-0.2-0.4-0.4c0-0.2,0.2-0.4,0.4-0.4h18.2c0.2,0,0.4,0.2,0.4,0.4l0,0
			c0,0.2-0.2,0.4-0.4,0.4c0,0,0,0,0,0H30.6z"/>
		<path class="st3" d="M48.8,28.7c-0.2,0-0.4-0.2-0.4-0.4c0,0,0,0,0,0c0-0.2,0.2-0.4,0.4-0.4c0,0,0,0,0,0c0.6,0,1.2-0.2,1.6-0.7
			c0.4-0.4,0.7-1,0.7-1.6c0-1.3-1-2.3-2.3-2.3c-0.2,0-0.4-0.3-0.3-0.5c0-0.2,0.2-0.3,0.3-0.3c1.7,0,3.1,1.4,3.1,3.1
			C51.9,27.3,50.5,28.7,48.8,28.7z"/>
		<circle class="st8" cx="39.7" cy="23" r="1.1"/>
		<path class="st3" d="M41.2,23c0,0.8-0.6,1.4-1.4,1.4l0,0c-0.4,0-0.8-0.1-1-0.4l0,0c-0.6-0.6-0.6-1.5,0-2.1c0.3-0.3,0.6-0.4,1-0.4
			C40.6,21.5,41.2,22.2,41.2,23C41.2,23,41.2,23,41.2,23z M40.3,23.5c0.1-0.1,0.2-0.3,0.2-0.6c0-0.2-0.1-0.4-0.2-0.6
			c-0.1-0.1-0.3-0.2-0.6-0.2c-0.4,0-0.8,0.4-0.8,0.8c0,0.2,0.1,0.4,0.2,0.6l0,0c0.1,0.2,0.3,0.2,0.6,0.2
			C40,23.7,40.2,23.7,40.3,23.5L40.3,23.5z"/>
		<path class="st1" d="M50.1,51.8l13.5-13.5c-1.7,2-1.4,5,0.6,6.6c1.7,1.5,4.3,1.5,6,0L56.8,58.4c2-1.7,2.3-4.6,0.6-6.6
			c-1.7-2-4.6-2.3-6.6-0.6C50.5,51.4,50.3,51.6,50.1,51.8L50.1,51.8z"/>
		<path class="st10" d="M64.3,44.8v0.7V44.8z"/>
		<path class="st11" d="M73.4,39.2v35.3c0,2.7-2.2,4.9-4.9,4.9l0,0H53.7c-2.2,0-4.1-1.4-4.7-3.5c-0.1-0.5-0.2-0.9-0.2,5V45.6
			c0-6.4,0-6.9,0-7.2l0,0c0.4-2.4,2.5-4.2,4.9-4.2h14.8c2.4,0,4.4,1.7,4.8,4.1C73.4,38.6,73.4,38.9,73.4,39.2z"/>
		<path class="st8" d="M75.9,38.9v35.3c0,2.7-2.2,4.9-4.9,4.9H56.2c-2.2,0-4.1-1.4-4.7-3.5c-0.1-0.4-0.2-0.9-0.2,5V45.3
			c0-6.4,0-6.9,0-7.2l0,0c0.4-2.4,2.4-4.1,4.8-4.1h14.8c2.4,0,4.4,1.7,4.8,4.1C75.8,38.4,75.9,38.6,75.9,38.9z"/>
		<path class="st0" d="M76.2,73.6v0.7c0,2.7-2.2,4.9-4.9,4.9H56.4c-2.2,0-4.1-1.4-4.7-3.5v-2H76.2z"/>
		<path class="st0" d="M75.8,38.1H51.3c0.4-2.4,2.4-4.1,4.8-4.1H71C73.4,34,75.4,35.7,75.8,38.1z"/>
		<path class="st5" d="M50.8,53c0,0,0-0.1,0-0.1c0-0.1,0-0.1,0.1-0.1c0.2-0.2,0.5-0.2,0.6,0c0,0,0.1,0.1,0.1,0.1c0,0,0,0.1,0,0.1
			c-0.1,0.2-0.4,0.3-0.7,0.2C50.9,53.2,50.9,53.1,50.8,53z"/>
		<path class="st3" d="M76.2,53.5c0.3,2.9,0.2,5.7,0.2,8.6V74c0,0.4,0,0.8,0,1.1c-0.1,0.8-0.4,1.5-0.8,2.2c-0.4,0.7-1,1.2-1.7,1.6
			c-0.7,0.4-1.4,0.7-2.2,0.7c-0.2,0-0.4,0-0.6,0H56.5c-0.4,0-0.8,0-1.1-0.1c-0.4-0.1-0.8-0.2-1.2-0.3c-0.7-0.3-1.4-0.7-1.9-1.3
			c-0.5-0.6-1-1.3-1.2-2c-0.1-0.4-0.2-0.8-0.3-1.2c0-0.2,0-0.4,0-0.6v-0.5v-8.6v-6.5c0-0.7,0-1.5,0.3-2.1c0-0.1,0.2-0.2,0.3-0.1
			c0.1,0,0.1,0.1,0.1,0.1c0.2,0.7,0.3,1.4,0.2,2.1v15.6c0,0.2,0,0.3,0,0.5c0,0.3,0.1,0.6,0.2,0.9c0.2,0.6,0.6,1.2,1,1.6
			c0.4,0.5,1,0.8,1.6,1c0.3,0.1,0.6,0.2,0.9,0.3c0.3,0,0.7,0,1,0H71h0.5c0.6-0.1,1.3-0.3,1.8-0.6c1.1-0.7,1.9-1.8,2.1-3.1
			c0-0.3,0-0.7,0-1V62.1c0-2.9-0.1-5.7,0.2-8.6c0-0.2,0.1-0.3,0.3-0.3c0,0,0,0,0,0C76,53.2,76.2,53.3,76.2,53.5
			C76.2,53.5,76.2,53.5,76.2,53.5z"/>
		<path class="st3" d="M51,51.8c-0.1-1.1-0.1-2.3-0.2-3.4c-0.1-1.1,0-2.3,0-3.4v-5.9c0-0.3,0-0.6,0-0.9c0.2-1.2,0.8-2.4,1.7-3.2
			c0.9-0.8,2.1-1.3,3.3-1.4h15.3c0.6,0,1.2,0.2,1.8,0.4c1.2,0.5,2.1,1.3,2.7,2.4c0.4,0.8,0.7,1.7,0.7,2.7v9.3c0,0.6,0,1.2-0.2,1.7
			c-0.1,0.1-0.2,0.2-0.3,0.1c-0.1,0-0.1-0.1-0.1-0.1c-0.2-0.5-0.3-1.1-0.2-1.7v-9.3c0-0.3,0-0.5-0.1-0.8c-0.1-0.5-0.3-1-0.5-1.4
			c-0.7-1.4-2.2-2.2-3.7-2.3H55.9c-2.1,0.1-3.8,1.7-4.1,3.8c0,0.3,0,0.5,0,0.8V45c0,1.1,0,2.3,0,3.4s-0.1,2.3-0.2,3.4
			c0,0.1-0.1,0.2-0.3,0.2c0,0,0,0,0,0c-0.1,0.1-0.3,0-0.3-0.1C51,51.9,51,51.8,51,51.8z"/>
		<path class="st3" d="M61.9,35.8c0.3-0.1,0.6-0.2,0.9-0.2c0.3,0,0.6,0,0.9,0c0.6,0,1.2,0.1,1.7,0.2c0.2,0,0.3,0.2,0.3,0.4
			c0,0,0,0,0,0c0,0.1-0.1,0.2-0.3,0.3c-0.6,0.1-1.1,0.2-1.7,0.2c-0.3,0-0.6,0-0.9,0c-0.3,0-0.6-0.1-0.9-0.2
			c-0.2-0.1-0.3-0.3-0.2-0.5C61.7,35.9,61.8,35.8,61.9,35.8z"/>
		<path class="st3" d="M65.1,77.3c-0.2,0.4-0.5,0.7-0.9,0.9c-0.4,0.2-0.9,0.2-1.3,0c-0.4-0.2-0.8-0.5-1-0.8
			c-0.2-0.4-0.3-0.9-0.3-1.3c0.1-0.4,0.3-0.8,0.6-1.1c0.3-0.3,0.7-0.5,1.1-0.5c0.4,0,0.8,0.1,1.2,0.3c0.3,0.2,0.6,0.6,0.7,1
			c0,0.1,0,0.2-0.1,0.2c-0.1,0-0.1,0-0.2,0l0,0c-0.3-0.5-0.9-0.7-1.4-0.6c-0.5,0.1-0.9,0.5-0.9,1c0,0.5,0.2,0.9,0.7,1.1
			c0.2,0.1,0.5,0.1,0.7,0.1c0.3,0,0.5-0.1,0.7-0.3l0,0c0.1-0.1,0.3,0,0.3,0.1c0,0,0,0,0,0C65.1,77.2,65.1,77.2,65.1,77.3z"/>
		<path class="st3" d="M73.4,73.4c0.4-0.1,0.8-0.2,1.2-0.2c0.4,0,0.8,0,1.2,0c0.3,0,0.4,0.3,0.4,0.6c0,0.2-0.2,0.4-0.4,0.4
			c-0.4,0-0.8,0-1.2,0c-0.4,0-0.8-0.1-1.2-0.2c-0.1,0-0.2-0.2-0.1-0.3C73.3,73.5,73.3,73.5,73.4,73.4z"/>
		<path class="st3" d="M69.2,73.4c0.1-0.1,0.2-0.2,0.3-0.2c0.1,0,0.2,0,0.3,0.2c0.1,0.2,0.1,0.4,0,0.6c-0.1,0.3-0.2,0.2-0.3,0.2
			c-0.1,0-0.2-0.1-0.3-0.2C69.1,73.7,69.1,73.5,69.2,73.4z"/>
		<path class="st3" d="M51.3,73.2c2.7-0.1,5.4,0,8,0h4c1.3-0.1,2.7,0,4,0.3c0.1,0,0.2,0.1,0.1,0.2c0,0.1-0.1,0.1-0.1,0.1
			c-1.3,0.2-2.6,0.4-4,0.3h-4c-2.7,0-5.3,0-8,0c-0.3,0-0.5-0.2-0.5-0.5C50.8,73.4,51,73.2,51.3,73.2z"/>
		<path class="st3" d="M54.1,37.9c1.8-0.2,3.6-0.3,5.4-0.3H65c3.6,0,7.3,0,10.9,0c0.3,0,0.5,0.2,0.5,0.5c0,0,0,0,0,0
			c0,0.3-0.2,0.5-0.5,0.5c-3.6,0-7.3,0-10.9,0h-5.4c-1.8,0-3.6,0-5.4-0.3c-0.1,0-0.2-0.1-0.2-0.2C53.9,38,54,37.9,54.1,37.9
			L54.1,37.9z"/>
		<path class="st9" d="M60.5,45.6c0,1.6-1.3,2.9-2.9,2.9c-1.6,0-2.9-1.3-2.9-2.9c0-1.6,1.3-2.9,2.9-2.9c0,0,0,0,0,0
			C59.2,42.7,60.5,44,60.5,45.6L60.5,45.6z"/>
		<path class="st8" d="M56.3,45.3l1.2,0.8h-0.9l2.2-2c0.2-0.2,0.4-0.2,0.6,0c0,0,0,0,0,0c0.1,0.1,0.1,0.4,0,0.5L57.5,47l0,0
			c-0.2,0.2-0.5,0.3-0.8,0.1c0,0,0,0,0,0c0,0-0.1-0.1-0.1-0.1l-0.9-1.1c-0.1-0.2-0.1-0.4,0.1-0.6c0,0,0,0,0,0
			C56,45.2,56.2,45.2,56.3,45.3z"/>
		<path class="st8" d="M63.3,44.3l5.7-0.1L63.3,44.3z"/>
		<path class="st3" d="M63.3,44c0.5-0.2,0.9-0.3,1.4-0.3c0.5,0,1,0,1.4,0s1,0,1.4,0s1,0,1.4,0.1c0.2,0,0.3,0.2,0.3,0.3c0,0,0,0,0,0
			c0,0.1-0.1,0.3-0.3,0.3c-0.5,0.1-1,0.1-1.4,0.2l-1.4,0.1h-1.4c-0.5,0-1,0-1.5-0.2c-0.1-0.1-0.2-0.2-0.1-0.4c0,0,0,0,0,0
			C63.2,44.1,63.3,44,63.3,44z"/>
		<path class="st8" d="M63.4,46.5l7.5-0.2L63.4,46.5z"/>
		<path class="st3" d="M63.4,46.1c0.6-0.1,1.2-0.2,1.9-0.2h1.9H69c0.6,0,1.2,0,1.9,0c0.2,0,0.3,0.1,0.3,0.3c0,0,0,0,0,0
			c0,0.2-0.1,0.3-0.3,0.3L69,46.7h-1.9h-1.9c-0.6,0-1.3,0-1.9-0.1c-0.1,0-0.2-0.2-0.2-0.3C63.2,46.2,63.3,46.1,63.4,46.1z"/>
		<path class="st8" d="M70.3,44.1l2.7-0.1L70.3,44.1z"/>
		<path class="st3" d="M70.3,43.9c0.2-0.1,0.4-0.1,0.7-0.1h0.7c0.4,0,0.9,0,1.3,0c0.2,0,0.3,0.1,0.3,0.3c0,0,0,0,0,0
			c0,0.2-0.1,0.3-0.3,0.3c-0.5,0-0.9,0-1.3,0.1H71c-0.2,0-0.5,0-0.7,0c-0.1,0-0.2-0.2-0.2-0.3c0,0,0,0,0,0
			C70.1,44,70.2,43.9,70.3,43.9z"/>
		<path class="st9" d="M60.5,55.7c0,1.6-1.3,2.9-2.9,2.9c-1.6,0-2.9-1.3-2.9-2.9c0-1.6,1.3-2.9,2.9-2.9
			C59.2,52.8,60.5,54.1,60.5,55.7C60.5,55.7,60.5,55.7,60.5,55.7z"/>
		<path class="st8" d="M56.3,55.4l1.2,0.8h-0.9l2.2-2c0.2-0.2,0.4-0.2,0.6,0c0.1,0.2,0.1,0.4,0,0.5l-1.9,2.3l0,0
			c-0.2,0.2-0.5,0.3-0.7,0.1c0,0,0,0,0,0c0,0-0.1-0.1-0.1-0.1l-0.9-1.1c-0.1-0.2-0.1-0.4,0.1-0.6c0,0,0,0,0,0
			C56,55.3,56.2,55.3,56.3,55.4z"/>
		<path class="st8" d="M63.3,54.3l5.8-0.1L63.3,54.3z"/>
		<path class="st3" d="M63.3,54.1c0.5-0.2,0.9-0.3,1.4-0.3h1.4h1.4c0.5,0,1,0,1.4,0.1c0.2,0,0.3,0.1,0.3,0.3c0,0,0,0,0,0
			c0,0.1-0.1,0.3-0.3,0.3c-0.5,0-1,0.1-1.4,0.1l-1.4,0.1h-1.4c-0.5,0-1,0-1.5-0.2c-0.1-0.1-0.2-0.2-0.1-0.4
			C63.2,54.1,63.3,54.1,63.3,54.1z"/>
		<path class="st8" d="M63.4,56.5l7.5-0.2L63.4,56.5z"/>
		<path class="st3" d="M63.4,56.3c0.6-0.1,1.2-0.2,1.9-0.2h1.9H69h1.9c0.2,0,0.3,0.1,0.3,0.3c0,0,0,0,0,0c0,0.1-0.1,0.3-0.3,0.3
			L69,56.7c-0.6,0-1.2,0-1.9,0.1h-1.9c-0.6,0.1-1.3,0-1.9-0.1c-0.1,0-0.2-0.2-0.2-0.3C63.2,56.3,63.3,56.3,63.4,56.3z"/>
		<path class="st8" d="M70.3,54.2H73H70.3z"/>
		<path class="st3" d="M70.3,53.9c0.2-0.1,0.4-0.1,0.7-0.1h0.7H73c0.2,0,0.3,0.1,0.3,0.3c0,0,0,0,0,0c0,0.1-0.1,0.3-0.3,0.3
			c-0.5,0-0.9,0-1.3,0.1H71c-0.2,0-0.5,0-0.7,0c-0.1,0-0.2-0.2-0.2-0.3c0,0,0,0,0,0C70.1,54.1,70.2,54,70.3,53.9z"/>
		<path class="st9" d="M60.5,65.8c0,1.6-1.3,2.9-2.9,2.9c-1.6,0-2.9-1.3-2.9-2.9c0-1.6,1.3-2.9,2.9-2.9c0,0,0,0,0,0
			C59.2,62.9,60.5,64.2,60.5,65.8L60.5,65.8z"/>
		<path class="st8" d="M56.3,65.4l1.2,0.8h-0.9l2.2-2c0.2-0.2,0.4-0.2,0.6,0c0,0,0,0,0,0c0.1,0.1,0.1,0.4,0,0.5l-1.9,2.4l0,0
			c-0.2,0.2-0.5,0.3-0.8,0.1c0,0-0.1-0.1-0.1-0.1L55.8,66c-0.1-0.2-0.1-0.4,0.1-0.6c0,0,0,0,0,0C56,65.4,56.2,65.3,56.3,65.4z"/>
		<path class="st8" d="M63.3,64.4l5.7-0.1L63.3,64.4z"/>
		<path class="st3" d="M63.3,64.2c0.5-0.2,0.9-0.3,1.4-0.3c0.5,0,1,0,1.4,0s1,0,1.4,0s1,0,1.4,0.1c0.2,0,0.3,0.2,0.3,0.3
			c0,0,0,0,0,0c0,0.1-0.1,0.3-0.3,0.3c-0.5,0.1-0.9,0.1-1.4,0.1l-1.4,0.1h-1.4c-0.5,0-1,0-1.5-0.2C63.3,64.5,63.2,64.4,63.3,64.2
			C63.3,64.2,63.3,64.2,63.3,64.2C63.3,64.2,63.3,64.2,63.3,64.2z"/>
		<path class="st8" d="M63.4,66.6l7.5-0.2L63.4,66.6z"/>
		<path class="st3" d="M63.4,66.3c0.6-0.1,1.2-0.2,1.9-0.2h1.9H69h1.9c0.2,0,0.3,0.1,0.3,0.3c0,0,0,0,0,0c0,0.2-0.1,0.3-0.3,0.3
			L69,66.8l-1.9,0.1h-1.9c-0.6,0-1.3,0-1.9-0.1c-0.1,0-0.2-0.2-0.2-0.3C63.2,66.4,63.3,66.4,63.4,66.3z"/>
		<path class="st8" d="M70.3,64.3l2.7-0.1L70.3,64.3z"/>
		<path class="st3" d="M70.3,64c0.2-0.1,0.4-0.1,0.7-0.1h0.7c0.4,0,0.9,0,1.3,0c0.2,0,0.3,0.1,0.3,0.3c0,0,0,0,0,0
			c0,0.2-0.1,0.3-0.3,0.3c-0.5,0-0.9,0-1.3,0H71c-0.2,0-0.5,0-0.7,0c-0.1,0-0.2-0.2-0.2-0.3c0,0,0,0,0,0C70.1,64.1,70.2,64,70.3,64z
			"/>
		<path class="st12" d="M27.8,65.9c0,5-4,9.1-9.1,9.1c-5,0-9.1-4-9.1-9.1s4-9.1,9.1-9.1c0,0,0,0,0,0C23.8,56.8,27.8,60.9,27.8,65.9z
			"/>
		<path class="st8" d="M26.7,65.4c0,5-4,9.1-9.1,9.1s-9.1-4-9.1-9.1c0-5,4-9.1,9.1-9.1c0,0,0,0,0,0C22.6,56.3,26.6,60.4,26.7,65.4z"
			/>
		<path class="st3" d="M15,56.4c1-0.4,2.1-0.6,3.1-0.5c5.3,0.3,9.3,4.8,9,10c0,0.4-0.1,0.8-0.1,1.2c-0.4,2.2-1.5,4.1-3.2,5.6
			c-0.8,0.7-1.8,1.3-2.8,1.7l-0.8,0.3l-0.8,0.2l-0.8,0.1c-0.3,0-0.5,0-0.8,0c-2.2,0.1-4.3-0.6-6.1-1.9c-1.8-1.3-3-3.2-3.5-5.3
			c-0.3-1-0.4-2.1-0.3-3.2c0-0.5,0.1-1.1,0.3-1.6c0.1-0.5,0.4-1,0.7-1.4c0.1-0.1,0.3-0.1,0.4,0c0.1,0.1,0.1,0.2,0.1,0.3l0,0
			c-0.1,0.5-0.1,1-0.2,1.5c-0.1,0.5-0.2,0.9-0.2,1.4c-0.2,1.9,0.3,3.9,1.4,5.5c0.5,0.8,1.2,1.5,2,2.1c0.8,0.6,1.6,1,2.5,1.3
			c0.9,0.3,1.9,0.4,2.9,0.4c4-0.1,7.4-3,8.1-7c0.4-1.9,0.1-3.9-0.9-5.6c-0.9-1.7-2.4-3.1-4.2-3.8c-0.9-0.4-1.9-0.6-2.8-0.6
			c-1,0-2,0-2.9,0.1l0,0c-0.2,0-0.3-0.1-0.4-0.2c0,0,0,0,0,0C14.9,56.6,14.9,56.4,15,56.4z"/>
		<path class="st3" d="M10.8,59c0-0.1,0.1-0.2,0.1-0.3c0-0.1,0.1-0.2,0.2-0.3c0.1-0.2,0.3-0.3,0.5-0.4c0.2-0.1,0.5-0.1,0.7,0.2
			c0.1,0.2,0.1,0.4,0,0.6l0,0c-0.1,0.1-0.3,0.2-0.4,0.3l-0.3,0.1c-0.1,0.1-0.2,0.1-0.3,0.1l0,0c-0.2,0-0.3,0-0.4-0.2c0,0,0,0,0,0
			C10.9,59.1,10.8,59,10.8,59z"/>
		<path class="st3" d="M17.1,62.6c0-0.3,0.2-0.5,0.5-0.5c0,0,0,0,0,0c0.3,0,0.5,0.2,0.5,0.5c0,0,0,0,0,0v3.1l4.3,2.8
			c0.2,0.2,0.3,0.5,0.1,0.7c0,0,0,0,0,0c-0.1,0.2-0.5,0.3-0.7,0.1c0,0,0,0,0,0l-4.5-2.9c-0.2-0.1-0.2-0.2-0.2-0.4L17.1,62.6z"/>
		<path class="st8" d="M17.6,58.2L17.6,58.2z"/>
		<rect x="17.1" y="58.2" class="st3" width="0.9" height="0.7"/>
		<path class="st8" d="M17.6,71.6L17.6,71.6z"/>
		<rect x="17.1" y="71.6" class="st3" width="0.9" height="0.7"/>
		<path class="st8" d="M24.6,65.3L24.6,65.3z"/>
		<rect x="23.9" y="64.8" class="st3" width="0.7" height="0.9"/>
		<path class="st8" d="M11.3,65.3L11.3,65.3z"/>
		<rect x="10.6" y="64.8" class="st3" width="0.7" height="0.9"/>
	</g>
</g>
</svg>
