<svg xmlns="http://www.w3.org/2000/svg" xmlns:xlink="http://www.w3.org/1999/xlink" viewBox="0 0 38.72 39.02"><defs><style>.cls-1{fill:#e6e7e8;}.cls-2,.cls-4{fill:#fff;}.cls-3{fill:url(#GradientFill_2);}.cls-4,.cls-6,.cls-7{fill-rule:evenodd;}.cls-5{opacity:0.1;}.cls-7{fill:#f37021;}</style><linearGradient id="GradientFill_2" x1="22.27" y1="7.03" x2="22.27" y2="32.77" gradientUnits="userSpaceOnUse"><stop offset="0" stop-color="#f8971d"/><stop offset="1" stop-color="#ef4123"/></linearGradient></defs><title>hetevch</title><g id="Layer_2" data-name="Layer 2"><g id="Layer_1-2" data-name="Layer 1"><rect class="cls-1" x="9.97" y="10.26" width="28.76" height="28.76" rx="6.32" ry="6.32"/><rect class="cls-2" x="8.47" y="8.77" width="27.61" height="27.61" rx="6.07" ry="6.07"/><rect class="cls-3" x="7.89" y="8.18" width="28.76" height="28.76" rx="6.85" ry="6.85"/><path class="cls-4" d="M26.13,25.45,26,25.34l-2.49-2.5c-.12-.12-.14-.2,0-.32l1-1c.11-.12.19-.13.31,0L26,22.73l.21.2a1.74,1.74,0,0,1,.13-.2L29,20.07c.13-.13.22-.16.36,0,.31.34.64.66,1,1,.09.09.11.15,0,.25l-4.11,4.11-.06,0ZM26.62,16H17.91a6.56,6.56,0,0,0,0,13.11h8.71a6.56,6.56,0,0,0,0-13.11Zm0,11.8a5.25,5.25,0,1,0-5.22-5.25A5.24,5.24,0,0,0,26.62,27.8Z"/><g class="cls-5"><path class="cls-6" d="M8.13,15.26A7.13,7.13,0,1,0,1,8.13,7.14,7.14,0,0,0,8.13,15.26Z"/><path class="cls-6" d="M6.24,7.24a.59.59,0,0,0,.59.18,1.15,1.15,0,0,0,.45-.33l.6-.6V10.9a1.23,1.23,0,0,0,.08.59.69.69,0,0,0,1.16,0,1.23,1.23,0,0,0,.08-.59V5.32A.9.9,0,0,0,9,4.64a.72.72,0,0,0-.49-.19,1,1,0,0,0-.72.35L6.39,6.21a1,1,0,0,0-.32.44A.59.59,0,0,0,6.24,7.24Z"/></g><path class="cls-7" d="M7.13,14.26A7.13,7.13,0,1,0,0,7.13,7.14,7.14,0,0,0,7.13,14.26Z"/><path class="cls-4" d="M5.24,6.24a.59.59,0,0,0,.59.18,1.15,1.15,0,0,0,.45-.33l.6-.6V9.9a1.23,1.23,0,0,0,.08.59.62.62,0,0,0,.58.32.62.62,0,0,0,.58-.32A1.23,1.23,0,0,0,8.2,9.9V4.32A.9.9,0,0,0,8,3.64a.72.72,0,0,0-.49-.19,1,1,0,0,0-.72.35L5.39,5.21a1,1,0,0,0-.32.44A.59.59,0,0,0,5.24,6.24Z"/></g></g></svg>
