<svg xmlns="http://www.w3.org/2000/svg" xmlns:xlink="http://www.w3.org/1999/xlink" viewBox="0 0 38.67 39.02"><defs><style>.cls-1{fill:#e6e7e8;}.cls-2,.cls-8{fill:#fff;}.cls-3,.cls-4,.cls-6,.cls-7,.cls-8{fill-rule:evenodd;}.cls-3{fill:url(#GradientFill_2);}.cls-4{fill:none;stroke:#fff;stroke-miterlimit:2.61;stroke-width:1.44px;}.cls-5{opacity:0.1;}.cls-7{fill:#f37021;}</style><linearGradient id="GradientFill_2" x1="22.15" y1="7.03" x2="22.15" y2="32.77" gradientUnits="userSpaceOnUse"><stop offset="0" stop-color="#f8971d"/><stop offset="1" stop-color="#ef4123"/></linearGradient></defs><title>uramshuulal</title><g id="Layer_2" data-name="Layer 2"><g id="Layer_1-2" data-name="Layer 1"><rect class="cls-1" x="9.91" y="10.26" width="28.76" height="28.76" rx="6.32" ry="6.32"/><rect class="cls-2" x="8.42" y="8.77" width="27.61" height="27.61" rx="6.07" ry="6.07"/><path class="cls-3" d="M13.17,8.18h18a5.41,5.41,0,0,1,5.41,5.4v18a5.41,5.41,0,0,1-5.41,5.4h-18a5.39,5.39,0,0,1-5.4-5.4v-18a5.39,5.39,0,0,1,5.4-5.4Z"/><path class="cls-4" d="M25.07,13.72c3.85,0,7,1,7,2.32s-3.13,2.31-7,2.31-7-1-7-2.31S21.22,13.72,25.07,13.72Z"/><path class="cls-4" d="M32.05,16v3c0,1.28-3.13,2.32-7,2.32s-7-1-7-2.32V16"/><path class="cls-4" d="M26.2,21.23c0,1.28-3.12,2.32-7,2.32s-7-1-7-2.32c0-1.13,2.48-2.08,5.73-2.27"/><path class="cls-4" d="M26.2,21.23v3c0,1.28-3.12,2.31-7,2.31s-7-1-7-2.31v-3"/><path class="cls-4" d="M26.22,23.82c3.31.18,5.83,1.13,5.83,2.28s-3.13,2.31-7,2.31-7-1-7-2.31"/><path class="cls-4" d="M32.05,26.1v3c0,1.28-3.13,2.32-7,2.32s-7-1-7-2.32v-3"/><g class="cls-5"><path class="cls-6" d="M8.13,15.26A7.13,7.13,0,1,0,1,8.13,7.14,7.14,0,0,0,8.13,15.26Z"/><path class="cls-6" d="M5.87,10.19a1.49,1.49,0,0,0,.54,1.12,2.38,2.38,0,0,0,1.69.52,2.09,2.09,0,0,0,2.29-2.14A1.73,1.73,0,0,0,9.45,8a1.61,1.61,0,0,0,.88-1.53A2,2,0,0,0,8.11,4.43,2.27,2.27,0,0,0,6.54,5a1.72,1.72,0,0,0-.43.64,1.47,1.47,0,0,0-.09.5.6.6,0,0,0,.61.63A.55.55,0,0,0,7,6.59a1,1,0,0,0,.25-.4.76.76,0,0,1,.81-.55A.84.84,0,0,1,9,6.55a.86.86,0,0,1-.92.92.77.77,0,0,0-.37.08.59.59,0,0,0,0,1,.91.91,0,0,0,.37.08.91.91,0,0,1,1,1,.92.92,0,0,1-1,1c-.54,0-.77-.18-.9-.58a1,1,0,0,0-.25-.41.58.58,0,0,0-.41-.13A.65.65,0,0,0,6,9.7a.71.71,0,0,0-.17.49Z"/></g><path class="cls-7" d="M7.13,14.26A7.13,7.13,0,1,0,0,7.13,7.14,7.14,0,0,0,7.13,14.26Z"/><path class="cls-8" d="M4.87,9.19a1.49,1.49,0,0,0,.54,1.12,2.38,2.38,0,0,0,1.69.52A2.09,2.09,0,0,0,9.39,8.69,1.73,1.73,0,0,0,8.45,7a1.61,1.61,0,0,0,.88-1.53A2,2,0,0,0,7.11,3.43,2.27,2.27,0,0,0,5.54,4a1.72,1.72,0,0,0-.43.64,1.47,1.47,0,0,0-.09.5.6.6,0,0,0,.61.63A.55.55,0,0,0,6,5.59a1,1,0,0,0,.25-.4.76.76,0,0,1,.81-.55A.84.84,0,0,1,8,5.55a.86.86,0,0,1-.92.92.77.77,0,0,0-.37.08.59.59,0,0,0,0,1,.91.91,0,0,0,.37.08.91.91,0,0,1,1,1,.92.92,0,0,1-1,1c-.54,0-.77-.18-.9-.58a1,1,0,0,0-.25-.41.58.58,0,0,0-.41-.13A.65.65,0,0,0,5,8.7a.71.71,0,0,0-.17.49Z"/></g></g></svg>
