<svg xmlns="http://www.w3.org/2000/svg" viewBox="0 0 38.43 38.69"><defs><style>.cls-1{fill:#f37021;fill-rule:evenodd;}</style></defs><title>dansaar</title><g id="Layer_2" data-name="Layer 2"><g id="Layer_1-2" data-name="Layer 1"><path class="cls-1" d="M5.36,0H33.07a5.34,5.34,0,0,1,3.79,1.57l.07.08a5.35,5.35,0,0,1,1.5,3.71v28a5.34,5.34,0,0,1-1.57,3.79h0a5.35,5.35,0,0,1-3.79,1.58H5.36a5.35,5.35,0,0,1-3.78-1.58h0A5.34,5.34,0,0,1,0,33.32v-28A5.34,5.34,0,0,1,1.57,1.58h0A5.36,5.36,0,0,1,5.36,0ZM27.81,24.84V18.57a1.44,1.44,0,1,0-2.87,0v6.27a1.44,1.44,0,1,0,2.87,0Zm-4.77,0V18.57a1.44,1.44,0,1,0-2.88,0v6.27a1.44,1.44,0,0,0,2.88,0Zm-9.54,0V18.57a1.44,1.44,0,1,0-2.88,0v6.27a1.44,1.44,0,0,0,2.88,0Zm4.77,0V18.57a1.44,1.44,0,1,0-2.88,0v6.27a1.44,1.44,0,0,0,2.88,0ZM19.68,6.78a.71.71,0,0,0-.92,0l-9.88,8a.72.72,0,0,0,.4,1.32H29.15a.73.73,0,0,0,.56-.26.72.72,0,0,0-.11-1L19.68,6.78ZM10,29.37H28.49a1,1,0,0,0,0-1.92H10a1,1,0,0,0,0,1.92ZM8.8,32.32H29.64a1,1,0,0,0,0-1.92H8.8a1,1,0,1,0,0,1.92ZM33.07,2.4H5.36a3,3,0,0,0-2.09.87h0A3,3,0,0,0,2.4,5.36v28a2.91,2.91,0,0,0,.87,2.09h0a3,3,0,0,0,2.09.87H33.07a2.92,2.92,0,0,0,2.09-.88h0A3,3,0,0,0,36,33.32v-28a3,3,0,0,0-.81-2l-.06,0A2.91,2.91,0,0,0,33.07,2.4Z"/></g></g></svg>
