<svg xmlns="http://www.w3.org/2000/svg" viewBox="0 0 54.24 74.2"><defs><style>.cls-1{fill:#d6e2e2;}.cls-2,.cls-3,.cls-8{fill:none;}.cls-2,.cls-8{stroke:#fff;stroke-miterlimit:2.61;}.cls-2{stroke-width:2.4px;}.cls-2,.cls-3,.cls-5,.cls-7,.cls-8{fill-rule:evenodd;}.cls-4,.cls-5{fill:#fff;}.cls-6,.cls-7{fill:#f37021;}.cls-8{stroke-width:1.92px;}</style></defs><title>dugaraar</title><g id="Layer_2" data-name="Layer 2"><g id="Layer_1-2" data-name="Layer 1"><rect class="cls-1" y="21.63" width="54.24" height="52.57" rx="10.01" ry="10.01"/><path class="cls-2" d="M15.31,1.2H38.92c2.87,0,5.21,2,5.21,4.52v9.33a.56.56,0,0,1,.6.51v4a.56.56,0,0,1-.6.52V61.92c0,2.48-2.35,4.52-5.21,4.52H15.31c-2.86,0-5.21-2-5.21-4.52V26.12a.57.57,0,0,1-.59-.52v-4a.56.56,0,0,1,.59-.52v-1a.56.56,0,0,1-.59-.51v-4A.56.56,0,0,1,10.1,15V5.72C10.1,3.23,12.45,1.2,15.31,1.2Z"/><path class="cls-3" d="M15.31,1.2H38.92c2.87,0,5.21,2,5.21,4.52v9.33a.56.56,0,0,1,.6.51v4a.56.56,0,0,1-.6.52V61.92c0,2.48-2.35,4.52-5.21,4.52H15.31c-2.86,0-5.21-2-5.21-4.52V26.12a.57.57,0,0,1-.59-.52v-4a.56.56,0,0,1,.59-.52v-1a.56.56,0,0,1-.59-.51v-4A.56.56,0,0,1,10.1,15V5.72C10.1,3.23,12.45,1.2,15.31,1.2Z"/><rect class="cls-4" x="21.56" y="5.53" width="11.12" height="0.99" rx="0.5" ry="0.5"/><rect class="cls-4" x="11.34" y="10.35" width="31.55" height="44.58"/><path class="cls-5" d="M27.12,63.84a3.33,3.33,0,1,0-3.34-3.33A3.34,3.34,0,0,0,27.12,63.84Z"/><circle class="cls-6" cx="19.32" cy="22.84" r="2.96"/><path class="cls-7" d="M19.32,33.12a3,3,0,1,0-3-3A3,3,0,0,0,19.32,33.12Z"/><circle class="cls-6" cx="19.32" cy="37.48" r="2.96"/><circle class="cls-6" cx="19.32" cy="44.8" r="2.96"/><path class="cls-7" d="M27.12,25.8a3,3,0,1,0-3-3A3,3,0,0,0,27.12,25.8Z"/><path class="cls-7" d="M27.12,33.12a3,3,0,1,0-3-3A3,3,0,0,0,27.12,33.12Z"/><path class="cls-7" d="M27.12,40.44a3,3,0,1,0-3-3A3,3,0,0,0,27.12,40.44Z"/><path class="cls-7" d="M27.12,47.76a3,3,0,1,0-3-3A3,3,0,0,0,27.12,47.76Z"/><circle class="cls-6" cx="34.92" cy="22.84" r="2.96"/><path class="cls-7" d="M34.92,33.12a3,3,0,1,0-3-3A3,3,0,0,0,34.92,33.12Z"/><circle class="cls-6" cx="34.92" cy="37.48" r="2.96"/><circle class="cls-6" cx="34.92" cy="44.8" r="2.96"/><path class="cls-8" d="M36.12,49.2,41.5,57l.33-.23L39,52.6c-.69-1,1.11-2.11,1.74-1.2l3.37,4.89.33-.23-3-4.31c-.78-1.12,1-2.23,1.74-1.2l3,4.31.3-.2L45,52.6a.84.84,0,1,1,1.39-1l2.91,4.23C50.6,58,52,59.75,52,61.4s-2.7,4.53-4.3,5.2a6.74,6.74,0,0,1-4.39.18c-2.63-.84-6.09-4.93-8-7a1.06,1.06,0,0,1,1.51-1.5c.24.2,3.42,3.35,3.42,3.35a.67.67,0,0,0,1,0c.45-.52-.18-1.21-.18-1.21q-3.26-5.09-6.53-10.15C33.78,49,35.33,48,36.12,49.2Z"/><path class="cls-3" d="M36.12,49.2,41.5,57l.33-.23L39,52.6c-.69-1,1.11-2.11,1.74-1.2l3.37,4.89.33-.23-3-4.31c-.78-1.12,1-2.23,1.74-1.2l3,4.31.3-.2L45,52.6a.84.84,0,1,1,1.39-1l2.91,4.23C50.6,58,52,59.75,52,61.4s-2.7,4.53-4.3,5.2a6.74,6.74,0,0,1-4.39.18c-2.63-.84-6.09-4.93-8-7a1.06,1.06,0,0,1,1.51-1.5c.24.2,3.42,3.35,3.42,3.35a.67.67,0,0,0,1,0c.45-.52-.18-1.21-.18-1.21q-3.26-5.09-6.53-10.15C33.78,49,35.33,48,36.12,49.2Z"/></g></g></svg>
